M48
METRIC,LZ,000.000
;FILE_FORMAT=3:3
;TYPE=PLATED
;Layer: PTH_Through
;EasyEDA v6.5.20, 2022-10-24 14:32:38
;8d121422a4ac45e995a65f3fcbcb15b0,c6a1bf633b9a4ba285e4988a7d74c357,10
;Gerber Generator version 0.2
;Holesize 1 = 0.600 mm
T01C0.600
;Holesize 2 = 0.762 mm
T02C0.762
;Holesize 3 = 0.800 mm
T03C0.800
;Holesize 4 = 0.901 mm
T04C0.901
;Holesize 5 = 1.000 mm
T05C1.000
;Holesize 6 = 1.016 mm
T06C1.016
;Holesize 7 = 1.200 mm
T07C1.200
;Holesize 8 = 1.301 mm
T08C1.301
;Holesize 9 = 6.000 mm
T09C6.000
%
G05
G90
T01
X098997Y013000G85X099002Y013000
X086000Y038997G85X086000Y039002
X086000Y047497G85X086000Y047503
X104000Y038997G85X104000Y039002
X104000Y047497G85X104000Y047503
X082997Y013000G85X083002Y013000
X091497Y013000G85X091502Y013000
X082997Y009000G85X083002Y009000
X091497Y009000G85X091502Y009000
X098997Y009000G85X099002Y009000
X107497Y009000G85X107502Y009000
X094000Y021997G85X094000Y022002
X094000Y030498G85X094000Y030503
X096901Y030483G85X096901Y030477
X096901Y021982G85X096901Y021977
X079997Y-007000G85X080002Y-007000
X088497Y-007000G85X088502Y-007000
X082997Y017000G85X083002Y017000
X091497Y017000G85X091502Y017000
X126873Y-066170G85X126873Y-066164
X126873Y-057669G85X126873Y-057664
X141482Y-057664G85X141482Y-057669
X141482Y-066164G85X141482Y-066170
X116459Y-057664G85X116459Y-057669
X116459Y-066164G85X116459Y-066170
X101473Y-066170G85X101473Y-066164
X101473Y-057669G85X101473Y-057664
X086233Y-057664G85X086233Y-057669
X086233Y-066164G85X086233Y-066170
X071482Y-066170G85X071482Y-066164
X071482Y-057669G85X071482Y-057664
X061722Y-057664G85X061722Y-057669
X061722Y-066164G85X061722Y-066170
X046482Y-066170G85X046482Y-066164
X046482Y-057669G85X046482Y-057664
T02
X107540Y-007000
X102460Y-007000
X098540Y-007000
X093460Y-007000
X100965Y017018
X106045Y017018
T03
X098810Y039190
X098810Y041730
X098810Y044270
X098810Y046810
X091190Y039190
X091190Y041730
X091190Y044270
X091190Y046810
X082190Y023190
X084730Y023190
X087270Y023190
X089810Y023190
X082190Y030810
X084730Y030810
X087270Y030810
X089810Y030810
T04
X084190Y-030810
X086730Y-030810
X089270Y-030810
X091810Y-030810
X084190Y-023190
X086730Y-023190
X089270Y-023190
X091810Y-023190
X101190Y023190
X103730Y023190
X106270Y023190
X108810Y023190
X101190Y030810
X103730Y030810
X106270Y030810
X108810Y030810
T05
X056751Y-059730
X051249Y-059730
X056751Y-062270
X051249Y-062270
X081751Y-059730
X076249Y-059730
X081751Y-062270
X076249Y-062270
X111751Y-062270
X106249Y-059730
X111751Y-059730
X131249Y-062270
X136751Y-062270
X131249Y-059730
X136751Y-059730
X086380Y-002810
X088920Y-002810
X091460Y-002810
X094000Y-002810
X096540Y-002810
X099080Y-002810
X101620Y-002810
X086380Y004810
X088920Y004810
X091460Y004810
X094000Y004810
X096540Y004810
X099080Y004810
X101620Y004810
X097810Y-052620
X097810Y-050080
X097810Y-047540
X097810Y-045000
X097810Y-042460
X097810Y-039920
X097810Y-037380
X090190Y-052620
X090190Y-050080
X090190Y-047540
X090190Y-045000
X090190Y-042460
X090190Y-039920
X090190Y-037380
T06
X081917Y-015030G85X081922Y-015030
X084457Y-015030G85X084462Y-015030
X086997Y-015030G85X087002Y-015030
X091917Y-015030G85X091922Y-015030
X094457Y-015030G85X094462Y-015030
X096997Y-015030G85X097002Y-015030
X101917Y-015030G85X101922Y-015030
X104457Y-015030G85X104462Y-015030
X106997Y-015030G85X107002Y-015030
X099917Y-028030G85X099922Y-028030
X102457Y-028030G85X102462Y-028030
X104997Y-028030G85X105002Y-028030
T07
X116000Y049995
X113460Y050005
X118540Y049995
X071000Y049995
X068460Y050005
X073540Y049995
T08
X139000Y018496
X139000Y023504
X050000Y023504
X050000Y018496
X139000Y048495
X139000Y053504
X050000Y053504
X050000Y048495
T09
X070000Y-051000G85X066000Y-051000
X070000Y019000G85X066000Y019000
X119000Y019000G85X123000Y019000
X119000Y-051000G85X123000Y-051000
M30
