G04 Layer: BottomSilkscreenLayer*
G04 EasyEDA v6.5.20, 2022-10-24 14:32:38*
G04 8d121422a4ac45e995a65f3fcbcb15b0,c6a1bf633b9a4ba285e4988a7d74c357,10*
G04 Gerber Generator version 0.2*
G04 Scale: 100 percent, Rotated: No, Reflected: No *
G04 Dimensions in millimeters *
G04 leading zeros omitted , absolute positions ,4 integer and 5 decimal *
%FSLAX45Y45*%
%MOMM*%

%ADD10C,0.1524*%
%ADD11C,0.2540*%

%LPD*%
D10*
X8799982Y-4384675D02*
G01*
X8799982Y-4493640D01*
X8799982Y-4384675D02*
G01*
X8753246Y-4384675D01*
X8737752Y-4389755D01*
X8732418Y-4395089D01*
X8727338Y-4405503D01*
X8727338Y-4415917D01*
X8732418Y-4426331D01*
X8737752Y-4431411D01*
X8753246Y-4436490D01*
X8799982Y-4436490D01*
X8763660Y-4436490D02*
G01*
X8727338Y-4493640D01*
X8693048Y-4405503D02*
G01*
X8682634Y-4400169D01*
X8666886Y-4384675D01*
X8666886Y-4493640D01*
X8570366Y-4384675D02*
G01*
X8622182Y-4384675D01*
X8627516Y-4431411D01*
X8622182Y-4426331D01*
X8606688Y-4420997D01*
X8591194Y-4420997D01*
X8575446Y-4426331D01*
X8565032Y-4436490D01*
X8559952Y-4452239D01*
X8559952Y-4462653D01*
X8565032Y-4478147D01*
X8575446Y-4488561D01*
X8591194Y-4493640D01*
X8606688Y-4493640D01*
X8622182Y-4488561D01*
X8627516Y-4483481D01*
X8632596Y-4473067D01*
X8799982Y-3884676D02*
G01*
X8799982Y-3993642D01*
X8799982Y-3884676D02*
G01*
X8753246Y-3884676D01*
X8737752Y-3889756D01*
X8732418Y-3895090D01*
X8727338Y-3905504D01*
X8727338Y-3915918D01*
X8732418Y-3926332D01*
X8737752Y-3931412D01*
X8753246Y-3936492D01*
X8799982Y-3936492D01*
X8763660Y-3936492D02*
G01*
X8727338Y-3993642D01*
X8693048Y-3905504D02*
G01*
X8682634Y-3900170D01*
X8666886Y-3884676D01*
X8666886Y-3993642D01*
X8570366Y-3900170D02*
G01*
X8575446Y-3889756D01*
X8591194Y-3884676D01*
X8601608Y-3884676D01*
X8617102Y-3889756D01*
X8627516Y-3905504D01*
X8632596Y-3931412D01*
X8632596Y-3957320D01*
X8627516Y-3978148D01*
X8617102Y-3988562D01*
X8601608Y-3993642D01*
X8596274Y-3993642D01*
X8580780Y-3988562D01*
X8570366Y-3978148D01*
X8565032Y-3962654D01*
X8565032Y-3957320D01*
X8570366Y-3941826D01*
X8580780Y-3931412D01*
X8596274Y-3926332D01*
X8601608Y-3926332D01*
X8617102Y-3931412D01*
X8627516Y-3941826D01*
X8632596Y-3957320D01*
X8799982Y-5384673D02*
G01*
X8799982Y-5493639D01*
X8799982Y-5384673D02*
G01*
X8753246Y-5384673D01*
X8737752Y-5389753D01*
X8732418Y-5395087D01*
X8727338Y-5405501D01*
X8727338Y-5415915D01*
X8732418Y-5426329D01*
X8737752Y-5431409D01*
X8753246Y-5436489D01*
X8799982Y-5436489D01*
X8763660Y-5436489D02*
G01*
X8727338Y-5493639D01*
X8693048Y-5405501D02*
G01*
X8682634Y-5400167D01*
X8666886Y-5384673D01*
X8666886Y-5493639D01*
X8559952Y-5384673D02*
G01*
X8612022Y-5493639D01*
X8632596Y-5384673D02*
G01*
X8559952Y-5384673D01*
X8799982Y-4884673D02*
G01*
X8799982Y-4993640D01*
X8799982Y-4884673D02*
G01*
X8753246Y-4884673D01*
X8737752Y-4889754D01*
X8732418Y-4895088D01*
X8727338Y-4905502D01*
X8727338Y-4915915D01*
X8732418Y-4926330D01*
X8737752Y-4931410D01*
X8753246Y-4936490D01*
X8799982Y-4936490D01*
X8763660Y-4936490D02*
G01*
X8727338Y-4993640D01*
X8693048Y-4905502D02*
G01*
X8682634Y-4900168D01*
X8666886Y-4884673D01*
X8666886Y-4993640D01*
X8606688Y-4884673D02*
G01*
X8622182Y-4889754D01*
X8627516Y-4900168D01*
X8627516Y-4910582D01*
X8622182Y-4920996D01*
X8612022Y-4926330D01*
X8591194Y-4931410D01*
X8575446Y-4936490D01*
X8565032Y-4946904D01*
X8559952Y-4957318D01*
X8559952Y-4973065D01*
X8565032Y-4983480D01*
X8570366Y-4988560D01*
X8585860Y-4993640D01*
X8606688Y-4993640D01*
X8622182Y-4988560D01*
X8627516Y-4983480D01*
X8632596Y-4973065D01*
X8632596Y-4957318D01*
X8627516Y-4946904D01*
X8617102Y-4936490D01*
X8601608Y-4931410D01*
X8580780Y-4926330D01*
X8570366Y-4920996D01*
X8565032Y-4910582D01*
X8565032Y-4900168D01*
X8570366Y-4889754D01*
X8585860Y-4884673D01*
X8606688Y-4884673D01*
X10999977Y-4884673D02*
G01*
X10999977Y-4993640D01*
X10999977Y-4884673D02*
G01*
X10953241Y-4884673D01*
X10937747Y-4889754D01*
X10932413Y-4895088D01*
X10927334Y-4905502D01*
X10927334Y-4915915D01*
X10932413Y-4926330D01*
X10937747Y-4931410D01*
X10953241Y-4936490D01*
X10999977Y-4936490D01*
X10963656Y-4936490D02*
G01*
X10927334Y-4993640D01*
X10893043Y-4905502D02*
G01*
X10882629Y-4900168D01*
X10866881Y-4884673D01*
X10866881Y-4993640D01*
X10765027Y-4920996D02*
G01*
X10770361Y-4936490D01*
X10780775Y-4946904D01*
X10796270Y-4952238D01*
X10801604Y-4952238D01*
X10817097Y-4946904D01*
X10827511Y-4936490D01*
X10832591Y-4920996D01*
X10832591Y-4915915D01*
X10827511Y-4900168D01*
X10817097Y-4889754D01*
X10801604Y-4884673D01*
X10796270Y-4884673D01*
X10780775Y-4889754D01*
X10770361Y-4900168D01*
X10765027Y-4920996D01*
X10765027Y-4946904D01*
X10770361Y-4973065D01*
X10780775Y-4988560D01*
X10796270Y-4993640D01*
X10806684Y-4993640D01*
X10822177Y-4988560D01*
X10827511Y-4978146D01*
X10499979Y-4884673D02*
G01*
X10499979Y-4993640D01*
X10499979Y-4884673D02*
G01*
X10453243Y-4884673D01*
X10437748Y-4889754D01*
X10432414Y-4895088D01*
X10427334Y-4905502D01*
X10427334Y-4915915D01*
X10432414Y-4926330D01*
X10437748Y-4931410D01*
X10453243Y-4936490D01*
X10499979Y-4936490D01*
X10463656Y-4936490D02*
G01*
X10427334Y-4993640D01*
X10387711Y-4910582D02*
G01*
X10387711Y-4905502D01*
X10382631Y-4895088D01*
X10377297Y-4889754D01*
X10366882Y-4884673D01*
X10346309Y-4884673D01*
X10335895Y-4889754D01*
X10330561Y-4895088D01*
X10325481Y-4905502D01*
X10325481Y-4915915D01*
X10330561Y-4926330D01*
X10340975Y-4941823D01*
X10393045Y-4993640D01*
X10320147Y-4993640D01*
X10254868Y-4884673D02*
G01*
X10270363Y-4889754D01*
X10280777Y-4905502D01*
X10285856Y-4931410D01*
X10285856Y-4946904D01*
X10280777Y-4973065D01*
X10270363Y-4988560D01*
X10254868Y-4993640D01*
X10244454Y-4993640D01*
X10228706Y-4988560D01*
X10218293Y-4973065D01*
X10213213Y-4946904D01*
X10213213Y-4931410D01*
X10218293Y-4905502D01*
X10228706Y-4889754D01*
X10244454Y-4884673D01*
X10254868Y-4884673D01*
X10999977Y-5384673D02*
G01*
X10999977Y-5493639D01*
X10999977Y-5384673D02*
G01*
X10953241Y-5384673D01*
X10937747Y-5389753D01*
X10932413Y-5395087D01*
X10927334Y-5405501D01*
X10927334Y-5415915D01*
X10932413Y-5426329D01*
X10937747Y-5431409D01*
X10953241Y-5436489D01*
X10999977Y-5436489D01*
X10963656Y-5436489D02*
G01*
X10927334Y-5493639D01*
X10887709Y-5410581D02*
G01*
X10887709Y-5405501D01*
X10882629Y-5395087D01*
X10877295Y-5389753D01*
X10866881Y-5384673D01*
X10846307Y-5384673D01*
X10835893Y-5389753D01*
X10830559Y-5395087D01*
X10825479Y-5405501D01*
X10825479Y-5415915D01*
X10830559Y-5426329D01*
X10840973Y-5441823D01*
X10893043Y-5493639D01*
X10820145Y-5493639D01*
X10785856Y-5405501D02*
G01*
X10775441Y-5400167D01*
X10759947Y-5384673D01*
X10759947Y-5493639D01*
X10499979Y-3884676D02*
G01*
X10499979Y-3993642D01*
X10499979Y-3884676D02*
G01*
X10453243Y-3884676D01*
X10437748Y-3889756D01*
X10432414Y-3895090D01*
X10427334Y-3905504D01*
X10427334Y-3915918D01*
X10432414Y-3926332D01*
X10437748Y-3931412D01*
X10453243Y-3936492D01*
X10499979Y-3936492D01*
X10463656Y-3936492D02*
G01*
X10427334Y-3993642D01*
X10387711Y-3910584D02*
G01*
X10387711Y-3905504D01*
X10382631Y-3895090D01*
X10377297Y-3889756D01*
X10366882Y-3884676D01*
X10346309Y-3884676D01*
X10335895Y-3889756D01*
X10330561Y-3895090D01*
X10325481Y-3905504D01*
X10325481Y-3915918D01*
X10330561Y-3926332D01*
X10340975Y-3941826D01*
X10393045Y-3993642D01*
X10320147Y-3993642D01*
X10280777Y-3910584D02*
G01*
X10280777Y-3905504D01*
X10275443Y-3895090D01*
X10270363Y-3889756D01*
X10259948Y-3884676D01*
X10239120Y-3884676D01*
X10228706Y-3889756D01*
X10223627Y-3895090D01*
X10218293Y-3905504D01*
X10218293Y-3915918D01*
X10223627Y-3926332D01*
X10234040Y-3941826D01*
X10285856Y-3993642D01*
X10213213Y-3993642D01*
X10999977Y-4384675D02*
G01*
X10999977Y-4493640D01*
X10999977Y-4384675D02*
G01*
X10953241Y-4384675D01*
X10937747Y-4389755D01*
X10932413Y-4395089D01*
X10927334Y-4405503D01*
X10927334Y-4415917D01*
X10932413Y-4426331D01*
X10937747Y-4431411D01*
X10953241Y-4436490D01*
X10999977Y-4436490D01*
X10963656Y-4436490D02*
G01*
X10927334Y-4493640D01*
X10887709Y-4410582D02*
G01*
X10887709Y-4405503D01*
X10882629Y-4395089D01*
X10877295Y-4389755D01*
X10866881Y-4384675D01*
X10846307Y-4384675D01*
X10835893Y-4389755D01*
X10830559Y-4395089D01*
X10825479Y-4405503D01*
X10825479Y-4415917D01*
X10830559Y-4426331D01*
X10840973Y-4441825D01*
X10893043Y-4493640D01*
X10820145Y-4493640D01*
X10775441Y-4384675D02*
G01*
X10718291Y-4384675D01*
X10749534Y-4426331D01*
X10734039Y-4426331D01*
X10723625Y-4431411D01*
X10718291Y-4436490D01*
X10713211Y-4452239D01*
X10713211Y-4462653D01*
X10718291Y-4478147D01*
X10728706Y-4488561D01*
X10744454Y-4493640D01*
X10759947Y-4493640D01*
X10775441Y-4488561D01*
X10780775Y-4483481D01*
X10785856Y-4473067D01*
X10599978Y-4384675D02*
G01*
X10599978Y-4493640D01*
X10599978Y-4384675D02*
G01*
X10553242Y-4384675D01*
X10537748Y-4389755D01*
X10532414Y-4395089D01*
X10527334Y-4405503D01*
X10527334Y-4415917D01*
X10532414Y-4426331D01*
X10537748Y-4431411D01*
X10553242Y-4436490D01*
X10599978Y-4436490D01*
X10563656Y-4436490D02*
G01*
X10527334Y-4493640D01*
X10487710Y-4410582D02*
G01*
X10487710Y-4405503D01*
X10482630Y-4395089D01*
X10477296Y-4389755D01*
X10466882Y-4384675D01*
X10446308Y-4384675D01*
X10435894Y-4389755D01*
X10430560Y-4395089D01*
X10425480Y-4405503D01*
X10425480Y-4415917D01*
X10430560Y-4426331D01*
X10440974Y-4441825D01*
X10493044Y-4493640D01*
X10420146Y-4493640D01*
X10334040Y-4384675D02*
G01*
X10385856Y-4457319D01*
X10307878Y-4457319D01*
X10334040Y-4384675D02*
G01*
X10334040Y-4493640D01*
X10999977Y-3884676D02*
G01*
X10999977Y-3993642D01*
X10999977Y-3884676D02*
G01*
X10953241Y-3884676D01*
X10937747Y-3889756D01*
X10932413Y-3895090D01*
X10927334Y-3905504D01*
X10927334Y-3915918D01*
X10932413Y-3926332D01*
X10937747Y-3931412D01*
X10953241Y-3936492D01*
X10999977Y-3936492D01*
X10963656Y-3936492D02*
G01*
X10927334Y-3993642D01*
X10887709Y-3910584D02*
G01*
X10887709Y-3905504D01*
X10882629Y-3895090D01*
X10877295Y-3889756D01*
X10866881Y-3884676D01*
X10846307Y-3884676D01*
X10835893Y-3889756D01*
X10830559Y-3895090D01*
X10825479Y-3905504D01*
X10825479Y-3915918D01*
X10830559Y-3926332D01*
X10840973Y-3941826D01*
X10893043Y-3993642D01*
X10820145Y-3993642D01*
X10723625Y-3884676D02*
G01*
X10775441Y-3884676D01*
X10780775Y-3931412D01*
X10775441Y-3926332D01*
X10759947Y-3920998D01*
X10744454Y-3920998D01*
X10728706Y-3926332D01*
X10718291Y-3936492D01*
X10713211Y-3952240D01*
X10713211Y-3962654D01*
X10718291Y-3978148D01*
X10728706Y-3988562D01*
X10744454Y-3993642D01*
X10759947Y-3993642D01*
X10775441Y-3988562D01*
X10780775Y-3983482D01*
X10785856Y-3973068D01*
X10499979Y-5384673D02*
G01*
X10499979Y-5493639D01*
X10499979Y-5384673D02*
G01*
X10453243Y-5384673D01*
X10437748Y-5389753D01*
X10432414Y-5395087D01*
X10427334Y-5405501D01*
X10427334Y-5415915D01*
X10432414Y-5426329D01*
X10437748Y-5431409D01*
X10453243Y-5436489D01*
X10499979Y-5436489D01*
X10463656Y-5436489D02*
G01*
X10427334Y-5493639D01*
X10387711Y-5410581D02*
G01*
X10387711Y-5405501D01*
X10382631Y-5395087D01*
X10377297Y-5389753D01*
X10366882Y-5384673D01*
X10346309Y-5384673D01*
X10335895Y-5389753D01*
X10330561Y-5395087D01*
X10325481Y-5405501D01*
X10325481Y-5415915D01*
X10330561Y-5426329D01*
X10340975Y-5441823D01*
X10393045Y-5493639D01*
X10320147Y-5493639D01*
X10223627Y-5400167D02*
G01*
X10228706Y-5389753D01*
X10244454Y-5384673D01*
X10254868Y-5384673D01*
X10270363Y-5389753D01*
X10280777Y-5405501D01*
X10285856Y-5431409D01*
X10285856Y-5457317D01*
X10280777Y-5478145D01*
X10270363Y-5488559D01*
X10254868Y-5493639D01*
X10249534Y-5493639D01*
X10234040Y-5488559D01*
X10223627Y-5478145D01*
X10218293Y-5462651D01*
X10218293Y-5457317D01*
X10223627Y-5441823D01*
X10234040Y-5431409D01*
X10249534Y-5426329D01*
X10254868Y-5426329D01*
X10270363Y-5431409D01*
X10280777Y-5441823D01*
X10285856Y-5457317D01*
X7899984Y-5215305D02*
G01*
X7899984Y-5106339D01*
X7899984Y-5215305D02*
G01*
X7946720Y-5215305D01*
X7962214Y-5210225D01*
X7967548Y-5204891D01*
X7972628Y-5194477D01*
X7972628Y-5184063D01*
X7967548Y-5173649D01*
X7962214Y-5168569D01*
X7946720Y-5163489D01*
X7899984Y-5163489D01*
X7936306Y-5163489D02*
G01*
X7972628Y-5106339D01*
X8012252Y-5189397D02*
G01*
X8012252Y-5194477D01*
X8017332Y-5204891D01*
X8022666Y-5210225D01*
X8033080Y-5215305D01*
X8053654Y-5215305D01*
X8064068Y-5210225D01*
X8069402Y-5204891D01*
X8074482Y-5194477D01*
X8074482Y-5184063D01*
X8069402Y-5173649D01*
X8058988Y-5158155D01*
X8006918Y-5106339D01*
X8079816Y-5106339D01*
X8186750Y-5215305D02*
G01*
X8134934Y-5106339D01*
X8114106Y-5215305D02*
G01*
X8186750Y-5215305D01*
X8299983Y-4884673D02*
G01*
X8299983Y-4993640D01*
X8299983Y-4884673D02*
G01*
X8253247Y-4884673D01*
X8237753Y-4889754D01*
X8232419Y-4895088D01*
X8227339Y-4905502D01*
X8227339Y-4915915D01*
X8232419Y-4926330D01*
X8237753Y-4931410D01*
X8253247Y-4936490D01*
X8299983Y-4936490D01*
X8263661Y-4936490D02*
G01*
X8227339Y-4993640D01*
X8187715Y-4910582D02*
G01*
X8187715Y-4905502D01*
X8182635Y-4895088D01*
X8177301Y-4889754D01*
X8166887Y-4884673D01*
X8146313Y-4884673D01*
X8135899Y-4889754D01*
X8130565Y-4895088D01*
X8125485Y-4905502D01*
X8125485Y-4915915D01*
X8130565Y-4926330D01*
X8140979Y-4941823D01*
X8193049Y-4993640D01*
X8120151Y-4993640D01*
X8059953Y-4884673D02*
G01*
X8075447Y-4889754D01*
X8080781Y-4900168D01*
X8080781Y-4910582D01*
X8075447Y-4920996D01*
X8065033Y-4926330D01*
X8044459Y-4931410D01*
X8028711Y-4936490D01*
X8018297Y-4946904D01*
X8013217Y-4957318D01*
X8013217Y-4973065D01*
X8018297Y-4983480D01*
X8023631Y-4988560D01*
X8039125Y-4993640D01*
X8059953Y-4993640D01*
X8075447Y-4988560D01*
X8080781Y-4983480D01*
X8085861Y-4973065D01*
X8085861Y-4957318D01*
X8080781Y-4946904D01*
X8070367Y-4936490D01*
X8054873Y-4931410D01*
X8034045Y-4926330D01*
X8023631Y-4920996D01*
X8018297Y-4910582D01*
X8018297Y-4900168D01*
X8023631Y-4889754D01*
X8039125Y-4884673D01*
X8059953Y-4884673D01*
X8299983Y-4384675D02*
G01*
X8299983Y-4493640D01*
X8299983Y-4384675D02*
G01*
X8253247Y-4384675D01*
X8237753Y-4389755D01*
X8232419Y-4395089D01*
X8227339Y-4405503D01*
X8227339Y-4415917D01*
X8232419Y-4426331D01*
X8237753Y-4431411D01*
X8253247Y-4436490D01*
X8299983Y-4436490D01*
X8263661Y-4436490D02*
G01*
X8227339Y-4493640D01*
X8187715Y-4410582D02*
G01*
X8187715Y-4405503D01*
X8182635Y-4395089D01*
X8177301Y-4389755D01*
X8166887Y-4384675D01*
X8146313Y-4384675D01*
X8135899Y-4389755D01*
X8130565Y-4395089D01*
X8125485Y-4405503D01*
X8125485Y-4415917D01*
X8130565Y-4426331D01*
X8140979Y-4441825D01*
X8193049Y-4493640D01*
X8120151Y-4493640D01*
X8018297Y-4420997D02*
G01*
X8023631Y-4436490D01*
X8034045Y-4446905D01*
X8049539Y-4452239D01*
X8054873Y-4452239D01*
X8070367Y-4446905D01*
X8080781Y-4436490D01*
X8085861Y-4420997D01*
X8085861Y-4415917D01*
X8080781Y-4400169D01*
X8070367Y-4389755D01*
X8054873Y-4384675D01*
X8049539Y-4384675D01*
X8034045Y-4389755D01*
X8023631Y-4400169D01*
X8018297Y-4420997D01*
X8018297Y-4446905D01*
X8023631Y-4473067D01*
X8034045Y-4488561D01*
X8049539Y-4493640D01*
X8059953Y-4493640D01*
X8075447Y-4488561D01*
X8080781Y-4478147D01*
X8299983Y-3884676D02*
G01*
X8299983Y-3993642D01*
X8299983Y-3884676D02*
G01*
X8253247Y-3884676D01*
X8237753Y-3889756D01*
X8232419Y-3895090D01*
X8227339Y-3905504D01*
X8227339Y-3915918D01*
X8232419Y-3926332D01*
X8237753Y-3931412D01*
X8253247Y-3936492D01*
X8299983Y-3936492D01*
X8263661Y-3936492D02*
G01*
X8227339Y-3993642D01*
X8182635Y-3884676D02*
G01*
X8125485Y-3884676D01*
X8156473Y-3926332D01*
X8140979Y-3926332D01*
X8130565Y-3931412D01*
X8125485Y-3936492D01*
X8120151Y-3952240D01*
X8120151Y-3962654D01*
X8125485Y-3978148D01*
X8135899Y-3988562D01*
X8151393Y-3993642D01*
X8166887Y-3993642D01*
X8182635Y-3988562D01*
X8187715Y-3983482D01*
X8193049Y-3973068D01*
X8054873Y-3884676D02*
G01*
X8070367Y-3889756D01*
X8080781Y-3905504D01*
X8085861Y-3931412D01*
X8085861Y-3946906D01*
X8080781Y-3973068D01*
X8070367Y-3988562D01*
X8054873Y-3993642D01*
X8044459Y-3993642D01*
X8028711Y-3988562D01*
X8018297Y-3973068D01*
X8013217Y-3946906D01*
X8013217Y-3931412D01*
X8018297Y-3905504D01*
X8028711Y-3889756D01*
X8044459Y-3884676D01*
X8054873Y-3884676D01*
X5360619Y-5611799D02*
G01*
X5371033Y-5601385D01*
X5386527Y-5596305D01*
X5407355Y-5596305D01*
X5422849Y-5601385D01*
X5433263Y-5611799D01*
X5433263Y-5622213D01*
X5428183Y-5632627D01*
X5422849Y-5637961D01*
X5412435Y-5643041D01*
X5381193Y-5653455D01*
X5371033Y-5658535D01*
X5365699Y-5663869D01*
X5360619Y-5674283D01*
X5360619Y-5689777D01*
X5371033Y-5700191D01*
X5386527Y-5705271D01*
X5407355Y-5705271D01*
X5422849Y-5700191D01*
X5433263Y-5689777D01*
X5326329Y-5617133D02*
G01*
X5315915Y-5611799D01*
X5300167Y-5596305D01*
X5300167Y-5705271D01*
X7860614Y-5611799D02*
G01*
X7871028Y-5601385D01*
X7886522Y-5596305D01*
X7907350Y-5596305D01*
X7922844Y-5601385D01*
X7933258Y-5611799D01*
X7933258Y-5622213D01*
X7928178Y-5632627D01*
X7922844Y-5637961D01*
X7912430Y-5643041D01*
X7881188Y-5653455D01*
X7871028Y-5658535D01*
X7865694Y-5663869D01*
X7860614Y-5674283D01*
X7860614Y-5689777D01*
X7871028Y-5700191D01*
X7886522Y-5705271D01*
X7907350Y-5705271D01*
X7922844Y-5700191D01*
X7933258Y-5689777D01*
X7820990Y-5622213D02*
G01*
X7820990Y-5617133D01*
X7815910Y-5606719D01*
X7810576Y-5601385D01*
X7800162Y-5596305D01*
X7779588Y-5596305D01*
X7769174Y-5601385D01*
X7763840Y-5606719D01*
X7758760Y-5617133D01*
X7758760Y-5627547D01*
X7763840Y-5637961D01*
X7774254Y-5653455D01*
X7826324Y-5705271D01*
X7753426Y-5705271D01*
X10939348Y-6588175D02*
G01*
X10928934Y-6598589D01*
X10913440Y-6603669D01*
X10892612Y-6603669D01*
X10877118Y-6598589D01*
X10866704Y-6588175D01*
X10866704Y-6577761D01*
X10871784Y-6567347D01*
X10877118Y-6562013D01*
X10887532Y-6556933D01*
X10918774Y-6546519D01*
X10928934Y-6541439D01*
X10934268Y-6536105D01*
X10939348Y-6525691D01*
X10939348Y-6510197D01*
X10928934Y-6499783D01*
X10913440Y-6494703D01*
X10892612Y-6494703D01*
X10877118Y-6499783D01*
X10866704Y-6510197D01*
X10984052Y-6603669D02*
G01*
X11041202Y-6603669D01*
X11010214Y-6562013D01*
X11025708Y-6562013D01*
X11036122Y-6556933D01*
X11041202Y-6551853D01*
X11046536Y-6536105D01*
X11046536Y-6525691D01*
X11041202Y-6510197D01*
X11030788Y-6499783D01*
X11015294Y-6494703D01*
X10999800Y-6494703D01*
X10984052Y-6499783D01*
X10978972Y-6504863D01*
X10973638Y-6515277D01*
X13439343Y-6588175D02*
G01*
X13428929Y-6598589D01*
X13413435Y-6603669D01*
X13392607Y-6603669D01*
X13377113Y-6598589D01*
X13366699Y-6588175D01*
X13366699Y-6577761D01*
X13371779Y-6567347D01*
X13377113Y-6562013D01*
X13387527Y-6556933D01*
X13418769Y-6546519D01*
X13428929Y-6541439D01*
X13434263Y-6536105D01*
X13439343Y-6525691D01*
X13439343Y-6510197D01*
X13428929Y-6499783D01*
X13413435Y-6494703D01*
X13392607Y-6494703D01*
X13377113Y-6499783D01*
X13366699Y-6510197D01*
X13525703Y-6603669D02*
G01*
X13473633Y-6531025D01*
X13551611Y-6531025D01*
X13525703Y-6603669D02*
G01*
X13525703Y-6494703D01*
X8642604Y-4233931D02*
G01*
X8738491Y-4233931D01*
X8738491Y-4366051D01*
X8642604Y-4366051D01*
X8557361Y-4233931D02*
G01*
X8461474Y-4233931D01*
X8461474Y-4366051D01*
X8557361Y-4366051D01*
X8557361Y-3866052D02*
G01*
X8461474Y-3866052D01*
X8461474Y-3733932D01*
X8557361Y-3733932D01*
X8642604Y-3866052D02*
G01*
X8738491Y-3866052D01*
X8738491Y-3733932D01*
X8642604Y-3733932D01*
X8557361Y-5366049D02*
G01*
X8461474Y-5366049D01*
X8461474Y-5233929D01*
X8557361Y-5233929D01*
X8642604Y-5366049D02*
G01*
X8738491Y-5366049D01*
X8738491Y-5233929D01*
X8642604Y-5233929D01*
X8642604Y-4733930D02*
G01*
X8738491Y-4733930D01*
X8738491Y-4866050D01*
X8642604Y-4866050D01*
X8557361Y-4733930D02*
G01*
X8461474Y-4733930D01*
X8461474Y-4866050D01*
X8557361Y-4866050D01*
X10757357Y-4866050D02*
G01*
X10661469Y-4866050D01*
X10661469Y-4733930D01*
X10757357Y-4733930D01*
X10842599Y-4866050D02*
G01*
X10938487Y-4866050D01*
X10938487Y-4733930D01*
X10842599Y-4733930D01*
X10342600Y-4733930D02*
G01*
X10438488Y-4733930D01*
X10438488Y-4866050D01*
X10342600Y-4866050D01*
X10257358Y-4733930D02*
G01*
X10161470Y-4733930D01*
X10161470Y-4866050D01*
X10257358Y-4866050D01*
X10757357Y-5366049D02*
G01*
X10661469Y-5366049D01*
X10661469Y-5233929D01*
X10757357Y-5233929D01*
X10842599Y-5366049D02*
G01*
X10938487Y-5366049D01*
X10938487Y-5233929D01*
X10842599Y-5233929D01*
X10257358Y-3866052D02*
G01*
X10161470Y-3866052D01*
X10161470Y-3733932D01*
X10257358Y-3733932D01*
X10342600Y-3866052D02*
G01*
X10438488Y-3866052D01*
X10438488Y-3733932D01*
X10342600Y-3733932D01*
X10842599Y-4233931D02*
G01*
X10938487Y-4233931D01*
X10938487Y-4366051D01*
X10842599Y-4366051D01*
X10757357Y-4233931D02*
G01*
X10661469Y-4233931D01*
X10661469Y-4366051D01*
X10757357Y-4366051D01*
X10357357Y-4366051D02*
G01*
X10261470Y-4366051D01*
X10261470Y-4233931D01*
X10357357Y-4233931D01*
X10442600Y-4366051D02*
G01*
X10538487Y-4366051D01*
X10538487Y-4233931D01*
X10442600Y-4233931D01*
X10842599Y-3733932D02*
G01*
X10938487Y-3733932D01*
X10938487Y-3866052D01*
X10842599Y-3866052D01*
X10757357Y-3733932D02*
G01*
X10661469Y-3733932D01*
X10661469Y-3866052D01*
X10757357Y-3866052D01*
X10257358Y-5366049D02*
G01*
X10161470Y-5366049D01*
X10161470Y-5233929D01*
X10257358Y-5233929D01*
X10342600Y-5366049D02*
G01*
X10438488Y-5366049D01*
X10438488Y-5233929D01*
X10342600Y-5233929D01*
X8142604Y-5233929D02*
G01*
X8238492Y-5233929D01*
X8238492Y-5366049D01*
X8142604Y-5366049D01*
X8057362Y-5233929D02*
G01*
X7961475Y-5233929D01*
X7961475Y-5366049D01*
X8057362Y-5366049D01*
X8057362Y-4866050D02*
G01*
X7961475Y-4866050D01*
X7961475Y-4733930D01*
X8057362Y-4733930D01*
X8142604Y-4866050D02*
G01*
X8238492Y-4866050D01*
X8238492Y-4733930D01*
X8142604Y-4733930D01*
X8142604Y-4233931D02*
G01*
X8238492Y-4233931D01*
X8238492Y-4366051D01*
X8142604Y-4366051D01*
X8057362Y-4233931D02*
G01*
X7961475Y-4233931D01*
X7961475Y-4366051D01*
X8057362Y-4366051D01*
X8057362Y-3866052D02*
G01*
X7961475Y-3866052D01*
X7961475Y-3733932D01*
X8057362Y-3733932D01*
X8142604Y-3866052D02*
G01*
X8238492Y-3866052D01*
X8238492Y-3733932D01*
X8142604Y-3733932D01*
D11*
X5910910Y-6390208D02*
G01*
X5910910Y-5810224D01*
X5910910Y-5810224D02*
G01*
X4890897Y-5810224D01*
X5910910Y-6390208D02*
G01*
X4890897Y-6390208D01*
X4890897Y-5810224D02*
G01*
X4890897Y-6390208D01*
X5096103Y-5820816D02*
G01*
X4892903Y-6024016D01*
X4892903Y-6180277D01*
X5096103Y-6379616D01*
X8410905Y-6390208D02*
G01*
X8410905Y-5810224D01*
X8410905Y-5810224D02*
G01*
X7390891Y-5810224D01*
X8410905Y-6390208D02*
G01*
X7390891Y-6390208D01*
X7390891Y-5810224D02*
G01*
X7390891Y-6390208D01*
X7596098Y-5820816D02*
G01*
X7392898Y-6024016D01*
X7392898Y-6180277D01*
X7596098Y-6379616D01*
X10389057Y-5809767D02*
G01*
X10389057Y-6389751D01*
X10389057Y-6389751D02*
G01*
X11409070Y-6389751D01*
X10389057Y-5809767D02*
G01*
X11409070Y-5809767D01*
X11409070Y-6389751D02*
G01*
X11409070Y-5809767D01*
X11203863Y-6379159D02*
G01*
X11407063Y-6175959D01*
X11407063Y-6019698D01*
X11203863Y-5820359D01*
X12889052Y-5809767D02*
G01*
X12889052Y-6389751D01*
X12889052Y-6389751D02*
G01*
X13909065Y-6389751D01*
X12889052Y-5809767D02*
G01*
X13909065Y-5809767D01*
X13909065Y-6389751D02*
G01*
X13909065Y-5809767D01*
X13703858Y-6379159D02*
G01*
X13907058Y-6175959D01*
X13907058Y-6019698D01*
X13703858Y-5820359D01*
M02*
