G04 Layer: TopSolderMaskLayer*
G04 EasyEDA v6.5.20, 2022-10-24 14:32:38*
G04 8d121422a4ac45e995a65f3fcbcb15b0,c6a1bf633b9a4ba285e4988a7d74c357,10*
G04 Gerber Generator version 0.2*
G04 Scale: 100 percent, Rotated: No, Reflected: No *
G04 Dimensions in millimeters *
G04 leading zeros omitted , absolute positions ,4 integer and 5 decimal *
%FSLAX45Y45*%
%MOMM*%

%AMMACRO1*1,1,$1,$2,$3*1,1,$1,$4,$5*1,1,$1,0-$2,0-$3*1,1,$1,0-$4,0-$5*20,1,$1,$2,$3,$4,$5,0*20,1,$1,$4,$5,0-$2,0-$3,0*20,1,$1,0-$2,0-$3,0-$4,0-$5,0*20,1,$1,0-$4,0-$5,$2,$3,0*4,1,4,$2,$3,$4,$5,0-$2,0-$3,0-$4,0-$5,$2,$3,0*%
%ADD10C,2.1016*%
%ADD11MACRO1,0.1016X-1X1X1X1*%
%ADD12MACRO1,0.1016X-1X-1X-1X1*%
%ADD13MACRO1,0.1016X1X1X1X-1*%
%ADD14MACRO1,0.1016X-0.75X0.75X0.75X0.75*%
%ADD15C,1.6016*%
%ADD16O,1.92659X1.561592*%
%ADD17O,1.6015970000000002X2.1015960000000002*%
%ADD18MACRO1,0.1016X0.75X1X0.75X-1*%
%ADD19O,1.9015964X2.7015948*%
%ADD20MACRO1,0.1016X0.9X-1.3X-0.9X-1.3*%
%ADD21O,1.561592X1.92659*%
%ADD22C,1.6256*%
%ADD23O,12.100026600000001X8.100034599999999*%
%ADD24MACRO1,0.1016X-0.9398X0.9398X0.9398X0.9398*%
%ADD25C,1.9812*%
%ADD26O,2.1015960000000002X1.6015970000000002*%
%ADD27MACRO1,0.1016X-1X0.75X1X0.75*%

%LPD*%
D10*
G01*
X5675071Y-5972987D03*
G01*
X5124907Y-5972987D03*
G01*
X5675071Y-6226987D03*
G01*
X5124907Y-6226987D03*
G01*
X8175066Y-5972987D03*
G01*
X7624902Y-5972987D03*
G01*
X8175066Y-6226987D03*
G01*
X7624902Y-6226987D03*
G01*
X10624896Y-6226987D03*
G01*
X11175060Y-6226987D03*
G01*
X10624896Y-5972987D03*
G01*
X11175060Y-5972987D03*
G01*
X13124891Y-6226987D03*
G01*
X13675055Y-6226987D03*
G01*
X13124891Y-5972987D03*
G01*
X13675055Y-5972987D03*
D11*
G01*
X10749991Y1299997D03*
G01*
X9899980Y1299997D03*
D12*
G01*
X8599982Y3899992D03*
G01*
X8599982Y4750003D03*
G01*
X10399979Y3899992D03*
G01*
X10399979Y4750003D03*
D11*
G01*
X8299983Y1299997D03*
G01*
X9149994Y1299997D03*
G01*
X8299983Y899998D03*
G01*
X9149994Y899998D03*
G01*
X9899980Y899998D03*
G01*
X10749991Y899998D03*
D12*
G01*
X9399981Y2199995D03*
G01*
X9399981Y3050006D03*
D13*
G01*
X9690100Y3047999D03*
G01*
X9690100Y2197988D03*
D11*
G01*
X7999984Y-699998D03*
G01*
X8849995Y-699998D03*
D10*
G01*
X13899972Y1849551D03*
G01*
X13899972Y2350439D03*
G01*
X4999989Y2350439D03*
G01*
X4999989Y1849551D03*
D14*
G01*
X8418982Y-3080994D03*
D15*
G01*
X8672982Y-3080994D03*
G01*
X8926982Y-3080994D03*
G01*
X9180982Y-3080994D03*
G01*
X8418982Y-2318994D03*
G01*
X8672982Y-2318994D03*
G01*
X8926982Y-2318994D03*
G01*
X9180982Y-2318994D03*
D11*
G01*
X8299983Y1699996D03*
G01*
X9149994Y1699996D03*
D16*
G01*
X9880981Y3918991D03*
G01*
X9880981Y4172991D03*
G01*
X9880981Y4426991D03*
G01*
X9880981Y4680991D03*
G01*
X9118981Y3918991D03*
G01*
X9118981Y4172991D03*
G01*
X9118981Y4426991D03*
G01*
X9118981Y4680991D03*
D17*
G01*
X8637981Y-281000D03*
G01*
X8891981Y-281000D03*
G01*
X9145981Y-281000D03*
G01*
X9399981Y-281000D03*
G01*
X9653981Y-281000D03*
G01*
X9907981Y-281000D03*
G01*
X10161981Y-281000D03*
G01*
X8637981Y480999D03*
G01*
X8891981Y480999D03*
G01*
X9145981Y480999D03*
G01*
X9399981Y480999D03*
G01*
X9653981Y480999D03*
G01*
X9907981Y480999D03*
D18*
G01*
X10161981Y480999D03*
D10*
G01*
X13899972Y4849545D03*
G01*
X13899972Y5350433D03*
G01*
X4999989Y5350433D03*
G01*
X4999989Y4849545D03*
D19*
G01*
X11600002Y4999481D03*
G01*
X11345976Y5000472D03*
D20*
G01*
X11853989Y4999494D03*
D19*
G01*
X7100011Y4999481D03*
G01*
X6845985Y5000472D03*
D20*
G01*
X7353998Y4999494D03*
D14*
G01*
X10118979Y2318994D03*
D15*
G01*
X10372979Y2318994D03*
G01*
X10626979Y2318994D03*
G01*
X10880979Y2318994D03*
G01*
X10118979Y3080994D03*
G01*
X10372979Y3080994D03*
G01*
X10626979Y3080994D03*
G01*
X10880979Y3080994D03*
D21*
G01*
X8218982Y2318994D03*
G01*
X8472982Y2318994D03*
G01*
X8726982Y2318994D03*
G01*
X8980982Y2318994D03*
G01*
X8218982Y3080994D03*
G01*
X8472982Y3080994D03*
G01*
X8726982Y3080994D03*
G01*
X8980982Y3080994D03*
D22*
G01*
X10753979Y-699998D03*
G01*
X10245979Y-699998D03*
G01*
X9853980Y-699998D03*
G01*
X9345980Y-699998D03*
G01*
X10096500Y1701800D03*
G01*
X10604500Y1701800D03*
D23*
G01*
X6799986Y-5100015D03*
G01*
X6799986Y1899996D03*
G01*
X12099975Y1899996D03*
G01*
X12099975Y-5100015D03*
D24*
G01*
X8191982Y-1502994D03*
D25*
G01*
X8445982Y-1502994D03*
G01*
X8699982Y-1502994D03*
D24*
G01*
X9191980Y-1502994D03*
D25*
G01*
X9445980Y-1502994D03*
G01*
X9699980Y-1502994D03*
D24*
G01*
X10191978Y-1502994D03*
D25*
G01*
X10445978Y-1502994D03*
G01*
X10699978Y-1502994D03*
D24*
G01*
X9991978Y-2802991D03*
D25*
G01*
X10245979Y-2802991D03*
G01*
X10499979Y-2802991D03*
D12*
G01*
X12687300Y-6616700D03*
G01*
X12687300Y-5766689D03*
D13*
G01*
X14148180Y-5766689D03*
G01*
X14148180Y-6616700D03*
G01*
X11645900Y-5766686D03*
G01*
X11645900Y-6616697D03*
D12*
G01*
X10147300Y-6616700D03*
G01*
X10147300Y-5766689D03*
D13*
G01*
X8623300Y-5766686D03*
G01*
X8623300Y-6616697D03*
D12*
G01*
X7148195Y-6616700D03*
G01*
X7148195Y-5766689D03*
D13*
G01*
X6172200Y-5766686D03*
G01*
X6172200Y-6616697D03*
D12*
G01*
X4648200Y-6616700D03*
G01*
X4648200Y-5766689D03*
D26*
G01*
X9780981Y-5261990D03*
G01*
X9780981Y-5007990D03*
G01*
X9780981Y-4753990D03*
G01*
X9780981Y-4499990D03*
G01*
X9780981Y-4245990D03*
G01*
X9780981Y-3991990D03*
G01*
X9780981Y-3737990D03*
G01*
X9018981Y-5261990D03*
G01*
X9018981Y-5007990D03*
G01*
X9018981Y-4753990D03*
G01*
X9018981Y-4499990D03*
G01*
X9018981Y-4245990D03*
G01*
X9018981Y-3991990D03*
D27*
G01*
X9018981Y-3737990D03*
M02*
