G04 Layer: TopLayer*
G04 EasyEDA v6.5.20, 2022-10-24 14:32:38*
G04 8d121422a4ac45e995a65f3fcbcb15b0,c6a1bf633b9a4ba285e4988a7d74c357,10*
G04 Gerber Generator version 0.2*
G04 Scale: 100 percent, Rotated: No, Reflected: No *
G04 Dimensions in millimeters *
G04 leading zeros omitted , absolute positions ,4 integer and 5 decimal *
%FSLAX45Y45*%
%MOMM*%

%ADD10C,0.9000*%
%ADD11C,2.0000*%
%ADD12R,2.0000X2.0000*%
%ADD13R,1.5000X1.5000*%
%ADD14C,1.5000*%
%ADD15O,1.82499X1.4599920000000002*%
%ADD16O,1.499997X1.9999959999999999*%
%ADD17R,1.5000X2.0000*%
%ADD18O,1.7999964X2.5999948*%
%ADD19R,1.8000X2.6000*%
%ADD20O,1.4599920000000002X1.82499*%
%ADD21C,1.5240*%
%ADD22O,12.0000014X8.0000094*%
%ADD23R,1.8796X1.8796*%
%ADD24C,1.8796*%
%ADD25O,1.9999959999999999X1.499997*%
%ADD26R,2.0000X1.5000*%
%ADD27R,0.0188X1.5000*%

%LPD*%
G36*
X8920480Y4445355D02*
G01*
X8916111Y4445914D01*
X8912352Y4448302D01*
X8782456Y4578197D01*
X8780475Y4581042D01*
X8779510Y4584446D01*
X8779764Y4587900D01*
X8781186Y4591050D01*
X8787028Y4599736D01*
X8792819Y4611522D01*
X8797036Y4624019D01*
X8799626Y4636871D01*
X8800490Y4650384D01*
X8800490Y4849672D01*
X8799626Y4863084D01*
X8797036Y4876038D01*
X8792819Y4888433D01*
X8787028Y4900218D01*
X8779713Y4911140D01*
X8771026Y4921046D01*
X8761171Y4929682D01*
X8750249Y4936998D01*
X8738412Y4942789D01*
X8725966Y4947056D01*
X8713114Y4949596D01*
X8699652Y4950460D01*
X8500313Y4950460D01*
X8486851Y4949596D01*
X8473998Y4947056D01*
X8461552Y4942789D01*
X8449716Y4936998D01*
X8441029Y4931257D01*
X8437880Y4929835D01*
X8434425Y4929530D01*
X8431072Y4930444D01*
X8428228Y4932476D01*
X8298840Y5061813D01*
X8296656Y5065115D01*
X8295843Y5069027D01*
X8296656Y5072938D01*
X8298840Y5076190D01*
X8302142Y5078374D01*
X8306003Y5079238D01*
X8766911Y5079238D01*
X8770823Y5078374D01*
X8774125Y5076190D01*
X9008211Y4842103D01*
X9010599Y4838293D01*
X9011107Y4833874D01*
X9009684Y4829657D01*
X9006535Y4826406D01*
X8998762Y4821377D01*
X8984640Y4809896D01*
X8971788Y4797044D01*
X8960358Y4782921D01*
X8950502Y4767732D01*
X8942222Y4751527D01*
X8935720Y4734560D01*
X8932824Y4723790D01*
X9066987Y4723790D01*
X9066987Y4758842D01*
X9067800Y4762703D01*
X9069984Y4765954D01*
X9073286Y4768138D01*
X9077147Y4768951D01*
X9081058Y4768138D01*
X9084360Y4765954D01*
X9194850Y4655464D01*
X9197035Y4652162D01*
X9197797Y4648250D01*
X9197035Y4644390D01*
X9194850Y4641138D01*
X9191548Y4638903D01*
X9187637Y4638090D01*
X9170974Y4638090D01*
X9170974Y4608931D01*
X9170009Y4604664D01*
X9167418Y4601210D01*
X9163558Y4599178D01*
X9159189Y4598924D01*
X9155379Y4599584D01*
X9136989Y4600448D01*
X9100972Y4600448D01*
X9082582Y4599584D01*
X9078772Y4598924D01*
X9074404Y4599178D01*
X9070543Y4601210D01*
X9067952Y4604664D01*
X9066987Y4608931D01*
X9066987Y4638090D01*
X8932824Y4638090D01*
X8935720Y4627422D01*
X8942222Y4610404D01*
X8950502Y4594250D01*
X8960358Y4579061D01*
X8971788Y4564938D01*
X8975547Y4561128D01*
X8977731Y4557877D01*
X8978493Y4553966D01*
X8977731Y4550054D01*
X8975547Y4546854D01*
X8971788Y4543044D01*
X8960358Y4528921D01*
X8950502Y4513732D01*
X8942222Y4497527D01*
X8935720Y4480560D01*
X8931046Y4463034D01*
X8929573Y4453890D01*
X8927947Y4449775D01*
X8924696Y4446727D01*
G37*

%LPD*%
G36*
X7486294Y2045462D02*
G01*
X7482027Y2046427D01*
X7478572Y2049018D01*
X7476540Y2052828D01*
X7465364Y2084222D01*
X7452868Y2113076D01*
X7438593Y2141067D01*
X7422591Y2168144D01*
X7404912Y2194153D01*
X7385608Y2218994D01*
X7364831Y2242566D01*
X7342581Y2264816D01*
X7319009Y2285593D01*
X7294168Y2304897D01*
X7268159Y2322576D01*
X7241082Y2338578D01*
X7213092Y2352852D01*
X7184237Y2365400D01*
X7154672Y2375966D01*
X7124446Y2384755D01*
X7116927Y2386431D01*
X7113117Y2388158D01*
X7110323Y2391308D01*
X7109053Y2395321D01*
X7109510Y2399588D01*
X7111644Y2403144D01*
X7115048Y2405634D01*
X7119162Y2406497D01*
X7944916Y2406497D01*
X7948777Y2405735D01*
X7952079Y2403551D01*
X8042503Y2313127D01*
X8044688Y2309825D01*
X8045500Y2305913D01*
X8045500Y2300986D01*
X8046415Y2282596D01*
X8049259Y2264714D01*
X8053984Y2247138D01*
X8060486Y2230170D01*
X8068716Y2213965D01*
X8078622Y2198776D01*
X8090052Y2184654D01*
X8102904Y2171801D01*
X8117027Y2160371D01*
X8132216Y2150465D01*
X8148421Y2142236D01*
X8165388Y2135784D01*
X8182914Y2131009D01*
X8200847Y2128164D01*
X8218982Y2127250D01*
X8237118Y2128164D01*
X8255050Y2131009D01*
X8272576Y2135784D01*
X8289544Y2142236D01*
X8305749Y2150465D01*
X8320938Y2160371D01*
X8335060Y2171801D01*
X8338820Y2175510D01*
X8342071Y2177694D01*
X8345982Y2178507D01*
X8349894Y2177694D01*
X8353145Y2175510D01*
X8356904Y2171801D01*
X8371027Y2160371D01*
X8386216Y2150465D01*
X8402421Y2142236D01*
X8419388Y2135784D01*
X8430158Y2132888D01*
X8430158Y2267000D01*
X8400948Y2267000D01*
X8396681Y2267915D01*
X8393226Y2270607D01*
X8391194Y2274417D01*
X8390940Y2278735D01*
X8391550Y2282596D01*
X8392515Y2300986D01*
X8392515Y2305913D01*
X8393277Y2309825D01*
X8395462Y2313127D01*
X8498484Y2416200D01*
X8501786Y2418334D01*
X8505698Y2419096D01*
X8509558Y2418334D01*
X8512860Y2416200D01*
X8515045Y2412847D01*
X8515858Y2408936D01*
X8515858Y2370937D01*
X8545017Y2370937D01*
X8549284Y2370023D01*
X8552738Y2367381D01*
X8554770Y2363520D01*
X8555024Y2359202D01*
X8554415Y2355342D01*
X8553500Y2337003D01*
X8553500Y2300986D01*
X8554415Y2282596D01*
X8555024Y2278735D01*
X8554770Y2274417D01*
X8552738Y2270607D01*
X8549284Y2267915D01*
X8545017Y2267000D01*
X8515858Y2267000D01*
X8515858Y2132888D01*
X8526576Y2135784D01*
X8543544Y2142236D01*
X8559749Y2150465D01*
X8574938Y2160371D01*
X8589060Y2171801D01*
X8592820Y2175510D01*
X8596071Y2177694D01*
X8599982Y2178507D01*
X8603894Y2177694D01*
X8607145Y2175510D01*
X8610904Y2171801D01*
X8625027Y2160371D01*
X8629091Y2157679D01*
X8632240Y2154478D01*
X8633663Y2150262D01*
X8633155Y2145792D01*
X8630767Y2141982D01*
X8537194Y2048459D01*
X8533892Y2046274D01*
X8530031Y2045462D01*
G37*

%LPD*%
G36*
X10110673Y834694D02*
G01*
X10106761Y835507D01*
X10103459Y837692D01*
X10101275Y840994D01*
X10100513Y844854D01*
X10100513Y999642D01*
X10099598Y1013104D01*
X10097058Y1026007D01*
X10092842Y1038402D01*
X10087000Y1050239D01*
X10079685Y1061212D01*
X10071049Y1071016D01*
X10061143Y1079754D01*
X10050221Y1087069D01*
X10042398Y1090879D01*
X10038892Y1093673D01*
X10036962Y1097788D01*
X10036962Y1102207D01*
X10038892Y1106271D01*
X10042398Y1109065D01*
X10050221Y1112977D01*
X10061143Y1120292D01*
X10071049Y1128928D01*
X10079685Y1138834D01*
X10087000Y1149705D01*
X10092842Y1161542D01*
X10097058Y1174038D01*
X10099598Y1186840D01*
X10100513Y1200353D01*
X10100513Y1399692D01*
X10099598Y1413103D01*
X10097058Y1425956D01*
X10092842Y1438402D01*
X10087000Y1450238D01*
X10079685Y1461211D01*
X10071049Y1471015D01*
X10061143Y1479753D01*
X10050221Y1487017D01*
X10038435Y1492808D01*
X10025989Y1497025D01*
X10013086Y1499616D01*
X9999624Y1500479D01*
X9800336Y1500479D01*
X9786874Y1499616D01*
X9773970Y1497025D01*
X9761524Y1492808D01*
X9749739Y1487017D01*
X9738817Y1479753D01*
X9728911Y1471015D01*
X9720275Y1461211D01*
X9712807Y1449984D01*
X9710572Y1447596D01*
X9707626Y1446072D01*
X9704374Y1445463D01*
X9345625Y1445463D01*
X9342323Y1446072D01*
X9339427Y1447596D01*
X9337141Y1449984D01*
X9329724Y1461211D01*
X9321038Y1471015D01*
X9311182Y1479753D01*
X9300260Y1487017D01*
X9292386Y1490878D01*
X9288932Y1493672D01*
X9287002Y1497736D01*
X9287002Y1502257D01*
X9288932Y1506270D01*
X9292386Y1509115D01*
X9300260Y1512976D01*
X9311182Y1520240D01*
X9321038Y1528927D01*
X9329724Y1538782D01*
X9337192Y1549958D01*
X9339275Y1552295D01*
X9342018Y1553819D01*
X9345066Y1554530D01*
X9361373Y1555394D01*
X9367367Y1556258D01*
X9993376Y1556258D01*
X9996474Y1555800D01*
X9999268Y1554378D01*
X10001656Y1552702D01*
X10017506Y1543761D01*
X10034168Y1536446D01*
X10051491Y1530908D01*
X10069322Y1527200D01*
X10087406Y1525320D01*
X10105593Y1525320D01*
X10123678Y1527200D01*
X10141508Y1530908D01*
X10158831Y1536446D01*
X10175494Y1543761D01*
X10191343Y1552702D01*
X10206177Y1563217D01*
X10219842Y1575257D01*
X10232186Y1588566D01*
X10243108Y1603146D01*
X10252456Y1618742D01*
X10260177Y1635201D01*
X10266172Y1652371D01*
X10270337Y1670100D01*
X10272674Y1688134D01*
X10273131Y1706321D01*
X10271709Y1724507D01*
X10268458Y1742338D01*
X10263378Y1759813D01*
X10256520Y1776679D01*
X10247985Y1792732D01*
X10243718Y1799031D01*
X10242448Y1801774D01*
X10241991Y1804720D01*
X10241991Y1922373D01*
X10242804Y1926234D01*
X10244988Y1929536D01*
X10475671Y2160219D01*
X10486745Y2172563D01*
X10496092Y2185771D01*
X10499191Y2188616D01*
X10503204Y2190038D01*
X10507370Y2189581D01*
X10511078Y2187549D01*
X10518089Y2181352D01*
X10532770Y2170938D01*
X10548518Y2161997D01*
X10565079Y2154732D01*
X10583113Y2149094D01*
X10583113Y2275128D01*
X10555528Y2275128D01*
X10551363Y2276043D01*
X10547908Y2278583D01*
X10545826Y2282342D01*
X10545470Y2286609D01*
X10547959Y2305456D01*
X10548416Y2323490D01*
X10547299Y2337612D01*
X10547858Y2341727D01*
X10549991Y2345334D01*
X10553395Y2347772D01*
X10557459Y2348585D01*
X10641380Y2348585D01*
X10645292Y2347823D01*
X10648594Y2345588D01*
X10701731Y2292451D01*
X10703915Y2289200D01*
X10704677Y2285288D01*
X10703915Y2281377D01*
X10701731Y2278075D01*
X10698429Y2275890D01*
X10694517Y2275128D01*
X10670844Y2275128D01*
X10670844Y2149094D01*
X10688878Y2154732D01*
X10705439Y2161997D01*
X10721187Y2170938D01*
X10735868Y2181352D01*
X10747248Y2191359D01*
X10750397Y2193239D01*
X10754004Y2193950D01*
X10757560Y2193239D01*
X10760710Y2191359D01*
X10772089Y2181352D01*
X10786770Y2170938D01*
X10802518Y2161997D01*
X10819079Y2154732D01*
X10836300Y2149246D01*
X10853978Y2145588D01*
X10871962Y2143709D01*
X10889996Y2143709D01*
X10908487Y2145639D01*
X10912652Y2145182D01*
X10916310Y2143099D01*
X10918799Y2139696D01*
X10919663Y2135530D01*
X10919663Y1874723D01*
X10918901Y1870811D01*
X10916716Y1867509D01*
X10792002Y1742846D01*
X10788497Y1740611D01*
X10784382Y1739849D01*
X10780318Y1740916D01*
X10777016Y1743557D01*
X10775086Y1747164D01*
X10771378Y1759813D01*
X10764520Y1776679D01*
X10755985Y1792732D01*
X10745825Y1807819D01*
X10734192Y1821789D01*
X10721136Y1834489D01*
X10706862Y1845767D01*
X10691520Y1855571D01*
X10675264Y1863750D01*
X10658246Y1870100D01*
X10640618Y1874723D01*
X10622686Y1877517D01*
X10604500Y1878482D01*
X10586313Y1877517D01*
X10568381Y1874723D01*
X10550753Y1870100D01*
X10533735Y1863750D01*
X10517479Y1855571D01*
X10502138Y1845767D01*
X10487863Y1834489D01*
X10474807Y1821789D01*
X10463174Y1807819D01*
X10453014Y1792732D01*
X10444480Y1776679D01*
X10437622Y1759813D01*
X10432542Y1742338D01*
X10429290Y1724507D01*
X10427868Y1706321D01*
X10428325Y1688134D01*
X10430662Y1670100D01*
X10434828Y1652371D01*
X10440822Y1635201D01*
X10448544Y1618742D01*
X10457891Y1603146D01*
X10468813Y1588566D01*
X10481157Y1575257D01*
X10494822Y1563217D01*
X10509656Y1552702D01*
X10525506Y1543761D01*
X10542168Y1536446D01*
X10559491Y1530908D01*
X10577322Y1527200D01*
X10595762Y1525320D01*
X10600029Y1524355D01*
X10603534Y1521764D01*
X10605566Y1517904D01*
X10605770Y1513484D01*
X10605414Y1511350D01*
X10604500Y1495044D01*
X10603839Y1491996D01*
X10602315Y1489252D01*
X10599978Y1487170D01*
X10588802Y1479753D01*
X10578947Y1471015D01*
X10570260Y1461211D01*
X10562945Y1450238D01*
X10557154Y1438402D01*
X10552938Y1425956D01*
X10550347Y1413103D01*
X10549483Y1399692D01*
X10549483Y1251813D01*
X10548721Y1247902D01*
X10546486Y1244600D01*
X10543235Y1242415D01*
X10527690Y1236014D01*
X10513415Y1228090D01*
X10500106Y1218641D01*
X10487761Y1207566D01*
X10117836Y837692D01*
X10114534Y835507D01*
G37*

%LPD*%
G36*
X9112300Y369011D02*
G01*
X9108389Y369773D01*
X9105087Y371957D01*
X9102902Y375259D01*
X9102140Y379171D01*
X9102140Y424688D01*
X9076334Y424688D01*
X9072067Y425551D01*
X9068612Y428142D01*
X9066580Y432054D01*
X9066276Y436321D01*
X9066580Y438200D01*
X9067495Y456234D01*
X9067495Y505764D01*
X9066580Y523748D01*
X9066276Y525627D01*
X9066580Y529945D01*
X9068612Y533806D01*
X9072067Y536397D01*
X9076334Y537311D01*
X9102140Y537311D01*
X9102140Y675894D01*
X9085021Y670560D01*
X9068714Y663600D01*
X9053169Y654913D01*
X9038539Y644753D01*
X9025585Y633628D01*
X9022486Y631850D01*
X9018981Y631190D01*
X9015476Y631850D01*
X9012377Y633628D01*
X8999423Y644753D01*
X8984792Y654913D01*
X8969248Y663600D01*
X8952941Y670560D01*
X8935974Y675843D01*
X8918549Y679450D01*
X8900871Y681228D01*
X8883091Y681228D01*
X8865412Y679450D01*
X8847988Y675843D01*
X8831021Y670560D01*
X8814714Y663600D01*
X8798610Y654558D01*
X8794597Y653338D01*
X8790432Y653846D01*
X8786825Y655929D01*
X8784336Y659333D01*
X8783472Y663448D01*
X8783472Y912926D01*
X8782558Y929487D01*
X8779814Y945591D01*
X8775293Y961237D01*
X8769045Y976325D01*
X8761171Y990600D01*
X8751722Y1003909D01*
X8740648Y1016304D01*
X8549386Y1207566D01*
X8536990Y1218641D01*
X8523681Y1228090D01*
X8509406Y1236014D01*
X8506764Y1237081D01*
X8503462Y1239266D01*
X8501278Y1242568D01*
X8500516Y1246479D01*
X8500516Y1399692D01*
X8499602Y1413103D01*
X8497062Y1425956D01*
X8492845Y1438402D01*
X8487003Y1450238D01*
X8479688Y1461211D01*
X8471052Y1471015D01*
X8461146Y1479753D01*
X8450224Y1487017D01*
X8442401Y1490878D01*
X8438896Y1493672D01*
X8436965Y1497736D01*
X8436965Y1502257D01*
X8438896Y1506270D01*
X8442401Y1509115D01*
X8450224Y1512976D01*
X8461146Y1520240D01*
X8471052Y1528927D01*
X8479688Y1538782D01*
X8487003Y1549704D01*
X8492845Y1561541D01*
X8497062Y1574038D01*
X8499602Y1586839D01*
X8500516Y1600301D01*
X8500516Y1744319D01*
X8501278Y1748180D01*
X8503462Y1751482D01*
X8506764Y1753666D01*
X8510676Y1754479D01*
X8594191Y1754479D01*
X8610803Y1755393D01*
X8626856Y1758188D01*
X8642553Y1762658D01*
X8657640Y1768957D01*
X8671915Y1776780D01*
X8685225Y1786229D01*
X8697569Y1797304D01*
X9035389Y2135073D01*
X9038945Y2137359D01*
X9051544Y2142236D01*
X9067749Y2150465D01*
X9082938Y2160371D01*
X9097060Y2171801D01*
X9109913Y2184654D01*
X9121343Y2198776D01*
X9131249Y2213965D01*
X9139478Y2230170D01*
X9145981Y2247138D01*
X9150705Y2264714D01*
X9153601Y2283053D01*
X9154566Y2286101D01*
X9156446Y2288692D01*
X9182608Y2314854D01*
X9186011Y2317089D01*
X9190024Y2317800D01*
X9193987Y2316886D01*
X9197289Y2314549D01*
X9199422Y2311044D01*
X9199930Y2306980D01*
X9199473Y2299614D01*
X9199473Y2100326D01*
X9200337Y2086914D01*
X9202928Y2073960D01*
X9207144Y2061565D01*
X9212935Y2049729D01*
X9220250Y2038807D01*
X9228937Y2028901D01*
X9238792Y2020265D01*
X9249714Y2012950D01*
X9261551Y2007107D01*
X9273997Y2002942D01*
X9286849Y2000351D01*
X9300311Y1999488D01*
X9499650Y1999488D01*
X9513112Y2000351D01*
X9525965Y2002942D01*
X9541459Y2008124D01*
X9544558Y2008124D01*
X9547504Y2007158D01*
X9551670Y2005126D01*
X9564116Y2000961D01*
X9576968Y1998319D01*
X9590430Y1997456D01*
X9789769Y1997456D01*
X9803231Y1998319D01*
X9816084Y2000961D01*
X9828530Y2005126D01*
X9840366Y2010918D01*
X9851288Y2018233D01*
X9861143Y2026920D01*
X9869830Y2036775D01*
X9877145Y2047697D01*
X9882936Y2059584D01*
X9887153Y2071979D01*
X9889744Y2084832D01*
X9890607Y2098294D01*
X9890607Y2297633D01*
X9889744Y2311146D01*
X9887153Y2323947D01*
X9883394Y2335123D01*
X9882835Y2338984D01*
X9883749Y2342642D01*
X9885984Y2345842D01*
X9889236Y2347823D01*
X9892995Y2348585D01*
X9933330Y2348585D01*
X9937191Y2347823D01*
X9940493Y2345588D01*
X9942677Y2342286D01*
X9943490Y2338476D01*
X9943490Y2244293D01*
X9944354Y2230831D01*
X9946894Y2217978D01*
X9951161Y2205532D01*
X9956952Y2193747D01*
X9964267Y2182774D01*
X9972903Y2172919D01*
X9982809Y2164232D01*
X9993731Y2156968D01*
X10005517Y2151126D01*
X10017963Y2146909D01*
X10026700Y2145182D01*
X10030714Y2143404D01*
X10033609Y2140204D01*
X10034879Y2135987D01*
X10034270Y2131669D01*
X10031933Y2128012D01*
X9993833Y2089912D01*
X9982758Y2077516D01*
X9973310Y2064207D01*
X9965436Y2049932D01*
X9959187Y2034844D01*
X9954666Y2019198D01*
X9951923Y2003094D01*
X9951008Y1986534D01*
X9951008Y1857451D01*
X9950196Y1853539D01*
X9948011Y1850237D01*
X9944709Y1848104D01*
X9940848Y1847291D01*
X9347149Y1847291D01*
X9341612Y1847596D01*
X9338462Y1849120D01*
X9336024Y1851660D01*
X9329724Y1861159D01*
X9321038Y1871065D01*
X9311182Y1879701D01*
X9300260Y1887016D01*
X9288424Y1892807D01*
X9275978Y1897024D01*
X9263126Y1899615D01*
X9249664Y1900478D01*
X9050324Y1900478D01*
X9036862Y1899615D01*
X9024010Y1897024D01*
X9011564Y1892807D01*
X8999728Y1887016D01*
X8988806Y1879701D01*
X8978950Y1871065D01*
X8970264Y1861159D01*
X8962948Y1850237D01*
X8957157Y1838401D01*
X8952941Y1825955D01*
X8950350Y1813102D01*
X8949486Y1799640D01*
X8949486Y1600301D01*
X8950350Y1586839D01*
X8952941Y1574038D01*
X8957157Y1561541D01*
X8962948Y1549704D01*
X8970264Y1538782D01*
X8978950Y1528927D01*
X8988806Y1520240D01*
X8999728Y1512976D01*
X9007602Y1509115D01*
X9011056Y1506270D01*
X9012986Y1502257D01*
X9012986Y1497736D01*
X9011056Y1493672D01*
X9007602Y1490878D01*
X8999728Y1487017D01*
X8988806Y1479753D01*
X8978950Y1471015D01*
X8970264Y1461211D01*
X8962948Y1450238D01*
X8957157Y1438402D01*
X8952941Y1425956D01*
X8950350Y1413103D01*
X8949486Y1399692D01*
X8949486Y1200353D01*
X8950350Y1186840D01*
X8952941Y1174038D01*
X8957157Y1161542D01*
X8962948Y1149705D01*
X8970264Y1138834D01*
X8978950Y1128928D01*
X8988806Y1120292D01*
X8999728Y1112977D01*
X9007602Y1109065D01*
X9011056Y1106271D01*
X9012986Y1102207D01*
X9012986Y1097788D01*
X9011056Y1093673D01*
X9007602Y1090879D01*
X8999728Y1087069D01*
X8988806Y1079754D01*
X8978950Y1071016D01*
X8970264Y1061212D01*
X8962948Y1050239D01*
X8957157Y1038402D01*
X8952941Y1026007D01*
X8950350Y1013104D01*
X8949486Y999642D01*
X8949486Y800354D01*
X8950350Y786841D01*
X8952941Y773988D01*
X8957157Y761542D01*
X8962948Y749706D01*
X8970264Y738784D01*
X8978950Y728929D01*
X8988806Y720242D01*
X8999728Y712927D01*
X9011564Y707136D01*
X9024010Y702919D01*
X9036862Y700328D01*
X9050324Y699465D01*
X9249664Y699465D01*
X9263126Y700328D01*
X9275978Y702919D01*
X9288424Y707136D01*
X9300260Y712927D01*
X9311182Y720242D01*
X9321038Y728929D01*
X9329724Y738784D01*
X9337040Y749706D01*
X9342831Y761542D01*
X9347047Y773988D01*
X9349638Y786841D01*
X9350502Y800354D01*
X9350502Y999642D01*
X9349638Y1013104D01*
X9347047Y1026007D01*
X9342831Y1038402D01*
X9337040Y1050239D01*
X9329724Y1061212D01*
X9321038Y1071016D01*
X9311182Y1079754D01*
X9300260Y1087069D01*
X9292386Y1090879D01*
X9288932Y1093673D01*
X9287002Y1097788D01*
X9287002Y1102207D01*
X9288932Y1106271D01*
X9292386Y1109065D01*
X9300260Y1112977D01*
X9311182Y1120292D01*
X9321038Y1128928D01*
X9329724Y1138834D01*
X9337141Y1149959D01*
X9339427Y1152347D01*
X9342323Y1153972D01*
X9345625Y1154480D01*
X9704374Y1154480D01*
X9707626Y1153972D01*
X9710572Y1152347D01*
X9712807Y1149959D01*
X9720275Y1138834D01*
X9728911Y1128928D01*
X9738817Y1120292D01*
X9749739Y1112977D01*
X9757562Y1109065D01*
X9761067Y1106271D01*
X9762998Y1102207D01*
X9762998Y1097788D01*
X9761067Y1093673D01*
X9757562Y1090879D01*
X9749739Y1087069D01*
X9738817Y1079754D01*
X9728911Y1071016D01*
X9720275Y1061212D01*
X9712960Y1050239D01*
X9707168Y1038402D01*
X9702901Y1026007D01*
X9700361Y1013104D01*
X9699498Y999642D01*
X9699498Y800354D01*
X9700361Y786841D01*
X9702901Y773988D01*
X9707168Y761542D01*
X9712960Y749706D01*
X9720275Y738784D01*
X9728911Y728929D01*
X9738817Y720242D01*
X9749739Y712927D01*
X9761524Y707136D01*
X9773970Y702919D01*
X9786874Y700328D01*
X9800336Y699465D01*
X9878923Y699465D01*
X9883038Y698601D01*
X9886492Y696112D01*
X9888575Y692404D01*
X9889032Y688187D01*
X9887712Y684174D01*
X9884816Y681126D01*
X9880955Y679348D01*
X9863988Y675843D01*
X9847021Y670560D01*
X9830714Y663600D01*
X9815169Y654913D01*
X9800539Y644753D01*
X9787585Y633628D01*
X9784486Y631850D01*
X9780981Y631190D01*
X9777476Y631850D01*
X9774377Y633628D01*
X9761423Y644753D01*
X9746792Y654913D01*
X9731248Y663600D01*
X9714941Y670560D01*
X9697821Y675894D01*
X9697821Y537311D01*
X9723628Y537311D01*
X9727895Y536397D01*
X9731349Y533806D01*
X9733381Y529945D01*
X9733686Y525627D01*
X9733381Y523748D01*
X9732467Y505764D01*
X9732467Y456234D01*
X9733381Y438200D01*
X9733686Y436321D01*
X9733381Y432054D01*
X9731349Y428142D01*
X9727895Y425551D01*
X9723628Y424688D01*
X9696551Y424688D01*
X9694316Y421843D01*
X9691217Y420014D01*
X9687661Y419354D01*
X9647123Y419354D01*
X9643262Y420166D01*
X9639960Y422351D01*
X9578441Y483819D01*
X9576257Y487121D01*
X9575495Y491032D01*
X9575495Y505764D01*
X9574580Y523748D01*
X9574276Y525627D01*
X9574580Y529945D01*
X9576612Y533806D01*
X9580067Y536397D01*
X9584334Y537311D01*
X9610140Y537311D01*
X9610140Y675894D01*
X9593021Y670560D01*
X9576714Y663600D01*
X9561169Y654913D01*
X9546539Y644753D01*
X9533585Y633628D01*
X9530486Y631850D01*
X9526981Y631190D01*
X9523476Y631850D01*
X9520377Y633628D01*
X9507423Y644753D01*
X9492792Y654913D01*
X9477248Y663600D01*
X9460941Y670560D01*
X9443974Y675843D01*
X9426549Y679450D01*
X9408871Y681228D01*
X9391091Y681228D01*
X9373412Y679450D01*
X9355988Y675843D01*
X9339021Y670560D01*
X9322714Y663600D01*
X9307169Y654913D01*
X9292539Y644753D01*
X9279585Y633628D01*
X9276486Y631850D01*
X9272981Y631190D01*
X9269476Y631850D01*
X9266377Y633628D01*
X9253423Y644753D01*
X9238792Y654913D01*
X9223248Y663600D01*
X9206941Y670560D01*
X9189821Y675894D01*
X9189821Y537311D01*
X9215628Y537311D01*
X9219895Y536397D01*
X9223349Y533806D01*
X9225381Y529945D01*
X9225686Y525627D01*
X9225381Y523748D01*
X9224467Y505764D01*
X9224467Y456234D01*
X9225381Y438200D01*
X9225686Y436321D01*
X9225381Y432054D01*
X9223349Y428142D01*
X9219895Y425551D01*
X9215628Y424688D01*
X9189821Y424688D01*
X9189821Y379171D01*
X9189059Y375259D01*
X9186875Y371957D01*
X9183573Y369773D01*
X9179661Y369011D01*
G37*

%LPD*%
G36*
X9620300Y-380390D02*
G01*
X9616389Y-379577D01*
X9613087Y-377342D01*
X9610902Y-374091D01*
X9610140Y-370230D01*
X9610140Y-337312D01*
X9584334Y-337312D01*
X9580067Y-336448D01*
X9576612Y-333857D01*
X9574580Y-329946D01*
X9574276Y-325678D01*
X9574580Y-323799D01*
X9575495Y-305765D01*
X9575495Y-256235D01*
X9574580Y-238252D01*
X9574276Y-236372D01*
X9574580Y-232054D01*
X9576612Y-228193D01*
X9580067Y-225602D01*
X9584334Y-224688D01*
X9609480Y-224688D01*
X9612274Y-225094D01*
X9621367Y-227685D01*
X9637471Y-230428D01*
X9654032Y-231292D01*
X9723069Y-231292D01*
X9727031Y-232206D01*
X9730435Y-234543D01*
X9732568Y-237998D01*
X9733178Y-242011D01*
X9732467Y-256235D01*
X9732467Y-305765D01*
X9733381Y-323799D01*
X9733686Y-325678D01*
X9733381Y-329946D01*
X9731349Y-333857D01*
X9727895Y-336448D01*
X9723628Y-337312D01*
X9697821Y-337312D01*
X9697821Y-370230D01*
X9697059Y-374091D01*
X9694875Y-377342D01*
X9691573Y-379577D01*
X9687661Y-380390D01*
G37*

%LPD*%
G36*
X9179661Y-463956D02*
G01*
X9175800Y-463194D01*
X9172498Y-461009D01*
X9105087Y-393598D01*
X9102902Y-390296D01*
X9102140Y-386435D01*
X9102140Y-337312D01*
X9076334Y-337312D01*
X9072067Y-336448D01*
X9068612Y-333857D01*
X9066580Y-329946D01*
X9066276Y-325678D01*
X9066580Y-323799D01*
X9067495Y-305765D01*
X9067495Y-256235D01*
X9066580Y-238252D01*
X9066276Y-236372D01*
X9066580Y-232054D01*
X9068612Y-228193D01*
X9072067Y-225602D01*
X9076334Y-224688D01*
X9102140Y-224688D01*
X9102140Y-193294D01*
X9102902Y-189433D01*
X9105087Y-186131D01*
X9108389Y-183896D01*
X9112300Y-183134D01*
X9116161Y-183896D01*
X9119463Y-186131D01*
X9221520Y-288137D01*
X9223705Y-291388D01*
X9224467Y-295300D01*
X9224467Y-305765D01*
X9225381Y-323799D01*
X9225686Y-325678D01*
X9225381Y-329946D01*
X9223349Y-333857D01*
X9219895Y-336448D01*
X9215628Y-337312D01*
X9189821Y-337312D01*
X9189821Y-453796D01*
X9189059Y-457708D01*
X9186875Y-461009D01*
X9183573Y-463194D01*
G37*

%LPD*%
G36*
X8167268Y-6667957D02*
G01*
X8163407Y-6667195D01*
X8160105Y-6665010D01*
X8001762Y-6506667D01*
X7999628Y-6503568D01*
X7998815Y-6499910D01*
X7999323Y-6496253D01*
X8001101Y-6492900D01*
X8003997Y-6490614D01*
X8019440Y-6481978D01*
X8036661Y-6470192D01*
X8052663Y-6456883D01*
X8067395Y-6442100D01*
X8080705Y-6426149D01*
X8087410Y-6416395D01*
X8090611Y-6413296D01*
X8094827Y-6412026D01*
X8099196Y-6412534D01*
X8116874Y-6418884D01*
X8135975Y-6423660D01*
X8155431Y-6426555D01*
X8175091Y-6427520D01*
X8194700Y-6426555D01*
X8214156Y-6423660D01*
X8227009Y-6420459D01*
X8231022Y-6420256D01*
X8234832Y-6421678D01*
X8237778Y-6424472D01*
X8248192Y-6439154D01*
X8259419Y-6451803D01*
X8271967Y-6463030D01*
X8285734Y-6472783D01*
X8300516Y-6480962D01*
X8316112Y-6487414D01*
X8332317Y-6492087D01*
X8348980Y-6494932D01*
X8365845Y-6495796D01*
X8382660Y-6494932D01*
X8399322Y-6492087D01*
X8411565Y-6488582D01*
X8415680Y-6488277D01*
X8419592Y-6489598D01*
X8422640Y-6492392D01*
X8424316Y-6496202D01*
X8424316Y-6500317D01*
X8423656Y-6503619D01*
X8422792Y-6517030D01*
X8422792Y-6560312D01*
X8566962Y-6560312D01*
X8566962Y-6416192D01*
X8523630Y-6416192D01*
X8514740Y-6416802D01*
X8510676Y-6416192D01*
X8507171Y-6414109D01*
X8504783Y-6410807D01*
X8503920Y-6406794D01*
X8504682Y-6402781D01*
X8507882Y-6395059D01*
X8512556Y-6378854D01*
X8515350Y-6362242D01*
X8516315Y-6345326D01*
X8515350Y-6328511D01*
X8512556Y-6311900D01*
X8507882Y-6295694D01*
X8501430Y-6280099D01*
X8493252Y-6265265D01*
X8483498Y-6251549D01*
X8472220Y-6238900D01*
X8459673Y-6227673D01*
X8446262Y-6218224D01*
X8443315Y-6214922D01*
X8441994Y-6210757D01*
X8442604Y-6206439D01*
X8444941Y-6202730D01*
X8530793Y-6116878D01*
X8541867Y-6104534D01*
X8551316Y-6091224D01*
X8559190Y-6076950D01*
X8565438Y-6061862D01*
X8569960Y-6046165D01*
X8572703Y-6030112D01*
X8573617Y-6013500D01*
X8573617Y-5977382D01*
X8574379Y-5973470D01*
X8576564Y-5970219D01*
X8579866Y-5967984D01*
X8583777Y-5967222D01*
X8722969Y-5967222D01*
X8736431Y-5966307D01*
X8749284Y-5963767D01*
X8761730Y-5959500D01*
X8773566Y-5953760D01*
X8782253Y-5947918D01*
X8785402Y-5946495D01*
X8788857Y-5946241D01*
X8792210Y-5947206D01*
X8795054Y-5949188D01*
X9370110Y-6524142D01*
X9382455Y-6535267D01*
X9395764Y-6544665D01*
X9410039Y-6552590D01*
X9425127Y-6558788D01*
X9440824Y-6563359D01*
X9456877Y-6566103D01*
X9473488Y-6567017D01*
X10191191Y-6567017D01*
X10195052Y-6567830D01*
X10198354Y-6570014D01*
X10200538Y-6573316D01*
X10201351Y-6577177D01*
X10201351Y-6657797D01*
X10200538Y-6661708D01*
X10198354Y-6665010D01*
X10195052Y-6667195D01*
X10191191Y-6667957D01*
G37*

%LPC*%
G36*
X8679637Y-6560312D02*
G01*
X8823807Y-6560312D01*
X8823807Y-6517030D01*
X8822944Y-6503619D01*
X8820353Y-6490716D01*
X8816136Y-6478219D01*
X8810345Y-6466484D01*
X8803030Y-6455562D01*
X8794343Y-6445656D01*
X8784488Y-6437020D01*
X8773566Y-6429705D01*
X8761730Y-6423863D01*
X8749284Y-6419596D01*
X8736431Y-6417106D01*
X8722969Y-6416192D01*
X8679637Y-6416192D01*
G37*

%LPD*%
G36*
X9813239Y-7719669D02*
G01*
X8608822Y-7668971D01*
X7568895Y-7567472D01*
X6453022Y-7389926D01*
X5070957Y-7047534D01*
X4603242Y-6883146D01*
X4084370Y-6655308D01*
X3707028Y-6454089D01*
X3356000Y-6190945D01*
X3354171Y-6189167D01*
X3105962Y-5878880D01*
X3104591Y-5876645D01*
X2866491Y-5337860D01*
X2865932Y-5336082D01*
X2790799Y-5022646D01*
X2767177Y-4822088D01*
X2767380Y-4818532D01*
X2768803Y-4815281D01*
X2797911Y-4771542D01*
X2800908Y-4768646D01*
X2804820Y-4767122D01*
X2808986Y-4767427D01*
X2973425Y-4811369D01*
X3391001Y-4988509D01*
X3847693Y-5166106D01*
X3852722Y-5167579D01*
X4410710Y-5281726D01*
X4414977Y-5282285D01*
X4418888Y-5282234D01*
X4862677Y-5244185D01*
X4866436Y-5243576D01*
X4869840Y-5242610D01*
X5224729Y-5115864D01*
X5229352Y-5113782D01*
X5571540Y-4923637D01*
X5574995Y-4921402D01*
X5577890Y-4918913D01*
X5932881Y-4563872D01*
X5936386Y-4559655D01*
X6228080Y-4141215D01*
X6230213Y-4137660D01*
X6471208Y-3668318D01*
X6473444Y-3662527D01*
X6612991Y-3129635D01*
X6613652Y-3126536D01*
X6702755Y-2553055D01*
X6753504Y-1867916D01*
X6753352Y-1861972D01*
X6689953Y-1329486D01*
X6688937Y-1324457D01*
X6574891Y-931621D01*
X6573012Y-926693D01*
X6344767Y-457454D01*
X6342684Y-453847D01*
X6036818Y4724D01*
X5681522Y461568D01*
X5679287Y464159D01*
X5209794Y946353D01*
X5206847Y948944D01*
X4775555Y1291437D01*
X4772253Y1293774D01*
X4518863Y1445768D01*
X4514596Y1447901D01*
X4172559Y1587246D01*
X4166565Y1589024D01*
X3964228Y1626971D01*
X3960266Y1627428D01*
X3956608Y1627378D01*
X3805072Y1614728D01*
X3798874Y1613611D01*
X3583787Y1550314D01*
X3580333Y1549044D01*
X3577336Y1547520D01*
X3232556Y1343050D01*
X2915462Y1114755D01*
X2912973Y1112774D01*
X2682798Y907999D01*
X2467254Y679754D01*
X2463546Y674878D01*
X2349601Y484987D01*
X2347417Y480415D01*
X2346096Y475996D01*
X2304999Y270408D01*
X2303576Y266954D01*
X2300986Y264160D01*
X2297531Y262585D01*
X2293772Y262331D01*
X2290165Y263550D01*
X2196693Y314502D01*
X2195017Y315620D01*
X1883054Y577646D01*
X1881632Y579120D01*
X1543812Y1004569D01*
X1542491Y1006703D01*
X1266190Y1622044D01*
X1265631Y1623669D01*
X1076604Y2367178D01*
X1013256Y3062782D01*
X1013206Y3593236D01*
X1076198Y4097934D01*
X1214932Y4627930D01*
X1442415Y5171592D01*
X1733448Y5728411D01*
X2138984Y6362141D01*
X2443022Y6792772D01*
X3114040Y7514336D01*
X3544366Y7906613D01*
X4015130Y8278875D01*
X4682236Y8652408D01*
X5208879Y8875572D01*
X6250584Y9132671D01*
X6844690Y9221063D01*
X7191756Y9221063D01*
X7194956Y9220555D01*
X7272020Y9194850D01*
X7275322Y9193072D01*
X7277709Y9190177D01*
X7278878Y9186519D01*
X7278674Y9182811D01*
X7275474Y9170009D01*
X7274204Y9167063D01*
X7100976Y8894876D01*
X6504990Y8209889D01*
X6060744Y7702194D01*
X6057950Y7698486D01*
X5766206Y7241895D01*
X5764428Y7238593D01*
X5612282Y6921703D01*
X5610199Y6915912D01*
X5559552Y6700520D01*
X5558790Y6693966D01*
X5558790Y6504228D01*
X5559196Y6499453D01*
X5560263Y6495186D01*
X5598109Y6381597D01*
X5599785Y6377635D01*
X5675630Y6225895D01*
X5678119Y6221831D01*
X5680964Y6218478D01*
X5758688Y6140907D01*
X5834583Y6077712D01*
X5837275Y6075730D01*
X5989015Y5974486D01*
X5994044Y5971794D01*
X6437782Y5781649D01*
X6441592Y5780227D01*
X7345019Y5525820D01*
X8011464Y5390286D01*
X8015325Y5388610D01*
X8018170Y5385511D01*
X8019491Y5381447D01*
X8019084Y5377230D01*
X8017002Y5373573D01*
X8013547Y5371084D01*
X8009432Y5370169D01*
X7014362Y5370169D01*
X6997801Y5369255D01*
X6981698Y5366512D01*
X6966051Y5361990D01*
X6950964Y5355742D01*
X6936689Y5347919D01*
X6923379Y5338419D01*
X6910984Y5327396D01*
X6813600Y5230012D01*
X6811467Y5228336D01*
X6808927Y5227320D01*
X6790690Y5222748D01*
X6773113Y5216499D01*
X6756196Y5208473D01*
X6740144Y5198922D01*
X6725158Y5187746D01*
X6711289Y5175148D01*
X6698742Y5161330D01*
X6687616Y5146294D01*
X6678015Y5130292D01*
X6669989Y5113426D01*
X6663690Y5095748D01*
X6659168Y5077612D01*
X6656425Y5059121D01*
X6655511Y5040223D01*
X6655511Y4960721D01*
X6656425Y4941773D01*
X6659168Y4923129D01*
X6658914Y4918811D01*
X6656831Y4915001D01*
X6653377Y4912410D01*
X6649161Y4911496D01*
X5197652Y4911496D01*
X5193639Y4912309D01*
X5190236Y4914696D01*
X5188102Y4918202D01*
X5185206Y4926228D01*
X5176824Y4944008D01*
X5166715Y4960924D01*
X5154980Y4976723D01*
X5141772Y4991354D01*
X5127193Y5004562D01*
X5111394Y5016296D01*
X5094478Y5026355D01*
X5076698Y5034788D01*
X5058206Y5041392D01*
X5039106Y5046167D01*
X5019649Y5049062D01*
X4999990Y5050028D01*
X4980330Y5049062D01*
X4960874Y5046167D01*
X4955336Y5044795D01*
X4951679Y5044592D01*
X4948174Y5045608D01*
X4945278Y5047894D01*
X4943398Y5051044D01*
X4942738Y5054650D01*
X4942738Y5083200D01*
X4943500Y5087112D01*
X4945684Y5090363D01*
X5002784Y5147411D01*
X5005832Y5149494D01*
X5009438Y5150358D01*
X5019649Y5150866D01*
X5039106Y5153761D01*
X5058206Y5158536D01*
X5076698Y5165242D01*
X5094478Y5173573D01*
X5111394Y5183682D01*
X5127193Y5195417D01*
X5141772Y5208676D01*
X5154980Y5223205D01*
X5166715Y5239004D01*
X5176824Y5255920D01*
X5185206Y5273700D01*
X5191861Y5292242D01*
X5196636Y5311292D01*
X5199532Y5330799D01*
X5200497Y5350408D01*
X5199532Y5370068D01*
X5196636Y5389524D01*
X5191861Y5408625D01*
X5185206Y5427116D01*
X5176824Y5444896D01*
X5166715Y5461812D01*
X5154980Y5477611D01*
X5141772Y5492191D01*
X5127193Y5505399D01*
X5111394Y5517134D01*
X5094478Y5527243D01*
X5076698Y5535625D01*
X5058206Y5542330D01*
X5039106Y5547055D01*
X5019649Y5549950D01*
X4999990Y5550916D01*
X4980330Y5549950D01*
X4960874Y5547055D01*
X4941773Y5542330D01*
X4923282Y5535625D01*
X4905502Y5527243D01*
X4888585Y5517134D01*
X4872786Y5505399D01*
X4858207Y5492191D01*
X4844999Y5477611D01*
X4833264Y5461812D01*
X4823155Y5444896D01*
X4814773Y5427116D01*
X4808118Y5408625D01*
X4803343Y5389524D01*
X4800447Y5370068D01*
X4799939Y5359857D01*
X4799076Y5356250D01*
X4796993Y5353253D01*
X4694529Y5250738D01*
X4683455Y5238343D01*
X4674006Y5225034D01*
X4666132Y5210759D01*
X4659884Y5195671D01*
X4655362Y5180025D01*
X4652670Y5163921D01*
X4651705Y5147360D01*
X4651705Y4760315D01*
X4652670Y4743704D01*
X4655362Y4727600D01*
X4659884Y4711954D01*
X4666132Y4696815D01*
X4674006Y4682540D01*
X4683455Y4669231D01*
X4694529Y4656886D01*
X5859424Y3491992D01*
X5871768Y3480917D01*
X5885078Y3471468D01*
X5899353Y3463594D01*
X5914440Y3457346D01*
X5930138Y3452825D01*
X5946190Y3450082D01*
X5962802Y3449167D01*
X8063331Y3449167D01*
X8067192Y3448405D01*
X8070494Y3446221D01*
X8072678Y3442919D01*
X8073491Y3439007D01*
X8073491Y3196285D01*
X8073034Y3193389D01*
X8071815Y3190748D01*
X8068716Y3186023D01*
X8060486Y3169767D01*
X8053984Y3152851D01*
X8049259Y3135274D01*
X8046415Y3117342D01*
X8045500Y3099003D01*
X8045500Y3062986D01*
X8046415Y3044596D01*
X8049259Y3026714D01*
X8053984Y3009138D01*
X8060486Y2992170D01*
X8068716Y2975965D01*
X8078622Y2960776D01*
X8090052Y2946654D01*
X8102904Y2933801D01*
X8117027Y2922371D01*
X8132216Y2912465D01*
X8148421Y2904236D01*
X8165388Y2897784D01*
X8182914Y2893009D01*
X8200847Y2890164D01*
X8218982Y2889250D01*
X8237118Y2890164D01*
X8255050Y2893009D01*
X8272576Y2897784D01*
X8289544Y2904236D01*
X8305749Y2912465D01*
X8320938Y2922371D01*
X8335060Y2933801D01*
X8338820Y2937510D01*
X8342071Y2939694D01*
X8345982Y2940507D01*
X8349894Y2939694D01*
X8353145Y2937510D01*
X8356904Y2933801D01*
X8371027Y2922371D01*
X8386216Y2912465D01*
X8402421Y2904236D01*
X8419388Y2897784D01*
X8436914Y2893009D01*
X8454847Y2890164D01*
X8472982Y2889250D01*
X8491118Y2890164D01*
X8509050Y2893009D01*
X8526576Y2897784D01*
X8543544Y2904236D01*
X8550554Y2907792D01*
X8554466Y2908858D01*
X8558530Y2908350D01*
X8562035Y2906217D01*
X8564422Y2902915D01*
X8565337Y2898952D01*
X8564575Y2894939D01*
X8562340Y2891536D01*
X8226145Y2555392D01*
X8222894Y2553157D01*
X8218982Y2552446D01*
X8215071Y2553157D01*
X8211820Y2555392D01*
X8112455Y2654706D01*
X8100110Y2665780D01*
X8086801Y2675229D01*
X8072526Y2683103D01*
X8057438Y2689352D01*
X8041741Y2693873D01*
X8025688Y2696565D01*
X8009077Y2697530D01*
X5201869Y2697530D01*
X5185308Y2696565D01*
X5169204Y2693873D01*
X5153558Y2689352D01*
X5138470Y2683103D01*
X5124196Y2675229D01*
X5110886Y2665780D01*
X5098491Y2654706D01*
X4997196Y2553462D01*
X4994148Y2551328D01*
X4990541Y2550515D01*
X4980330Y2550007D01*
X4960874Y2547112D01*
X4941773Y2542286D01*
X4923282Y2535631D01*
X4905502Y2527249D01*
X4888585Y2517140D01*
X4872786Y2505405D01*
X4858207Y2492197D01*
X4844999Y2477617D01*
X4833264Y2461818D01*
X4823155Y2444953D01*
X4814773Y2427122D01*
X4808118Y2408631D01*
X4803343Y2389530D01*
X4800447Y2370074D01*
X4799482Y2350414D01*
X4800447Y2330754D01*
X4803343Y2311298D01*
X4808118Y2292197D01*
X4814773Y2273706D01*
X4823155Y2255977D01*
X4833264Y2239010D01*
X4844999Y2223262D01*
X4858207Y2208631D01*
X4872786Y2195423D01*
X4888585Y2183688D01*
X4905502Y2173579D01*
X4923282Y2165197D01*
X4941773Y2158542D01*
X4960874Y2153767D01*
X4980330Y2150922D01*
X4999990Y2149957D01*
X5019649Y2150922D01*
X5039106Y2153767D01*
X5058206Y2158542D01*
X5076698Y2165197D01*
X5094478Y2173579D01*
X5111394Y2183688D01*
X5127193Y2195423D01*
X5141772Y2208631D01*
X5154980Y2223262D01*
X5166715Y2239010D01*
X5176824Y2255977D01*
X5185206Y2273706D01*
X5191861Y2292197D01*
X5196636Y2311298D01*
X5199532Y2330754D01*
X5200040Y2340965D01*
X5200904Y2344572D01*
X5202986Y2347620D01*
X5258866Y2403551D01*
X5262168Y2405735D01*
X5266080Y2406497D01*
X6480810Y2406497D01*
X6484924Y2405634D01*
X6488328Y2403144D01*
X6490462Y2399588D01*
X6490919Y2395321D01*
X6489649Y2391308D01*
X6486855Y2388158D01*
X6483045Y2386431D01*
X6475526Y2384755D01*
X6445300Y2375966D01*
X6415735Y2365400D01*
X6386880Y2352852D01*
X6358890Y2338578D01*
X6331813Y2322576D01*
X6305804Y2304897D01*
X6280962Y2285593D01*
X6257391Y2264816D01*
X6235141Y2242566D01*
X6214364Y2218994D01*
X6195060Y2194153D01*
X6177381Y2168144D01*
X6161379Y2141067D01*
X6147104Y2113076D01*
X6134608Y2084222D01*
X6123990Y2054707D01*
X6115202Y2024430D01*
X6108344Y1993747D01*
X6103416Y1962708D01*
X6100470Y1931416D01*
X6099505Y1899970D01*
X6100470Y1868576D01*
X6103416Y1837232D01*
X6108344Y1806193D01*
X6115202Y1775510D01*
X6123990Y1745284D01*
X6134608Y1715719D01*
X6147104Y1686915D01*
X6161379Y1658874D01*
X6177381Y1631797D01*
X6195060Y1605838D01*
X6214364Y1580946D01*
X6235141Y1557426D01*
X6257391Y1535125D01*
X6280962Y1514348D01*
X6305804Y1495044D01*
X6331813Y1477365D01*
X6358890Y1461363D01*
X6386880Y1447088D01*
X6415735Y1434592D01*
X6445300Y1423974D01*
X6475526Y1415186D01*
X6506209Y1408328D01*
X6537248Y1403400D01*
X6568541Y1400454D01*
X6600139Y1399489D01*
X6999833Y1399489D01*
X7031431Y1400454D01*
X7062724Y1403400D01*
X7093762Y1408328D01*
X7124446Y1415186D01*
X7154672Y1423974D01*
X7184237Y1434592D01*
X7213092Y1447088D01*
X7241082Y1461363D01*
X7268159Y1477365D01*
X7294168Y1495044D01*
X7319009Y1514348D01*
X7342581Y1535125D01*
X7364831Y1557426D01*
X7385608Y1580946D01*
X7404912Y1605838D01*
X7422591Y1631797D01*
X7438593Y1658874D01*
X7452868Y1686915D01*
X7465364Y1715719D01*
X7476540Y1747113D01*
X7478572Y1750923D01*
X7482027Y1753565D01*
X7486294Y1754479D01*
X7944103Y1754479D01*
X7948015Y1753666D01*
X7951317Y1751482D01*
X7953502Y1748180D01*
X7954264Y1744319D01*
X7954264Y393496D01*
X7955229Y376885D01*
X7957921Y360832D01*
X7962442Y345135D01*
X7968691Y330047D01*
X7976565Y315772D01*
X7986014Y302463D01*
X7997088Y290118D01*
X8214055Y73152D01*
X8216239Y69850D01*
X8217001Y65938D01*
X8216239Y62077D01*
X8214055Y58826D01*
X7599730Y-555548D01*
X7588656Y-567944D01*
X7579207Y-581253D01*
X7571333Y-595528D01*
X7565085Y-610616D01*
X7560564Y-626262D01*
X7557820Y-642366D01*
X7556906Y-658926D01*
X7556906Y-2653690D01*
X7557820Y-2670200D01*
X7560564Y-2686304D01*
X7565085Y-2701950D01*
X7571333Y-2717038D01*
X7579207Y-2731363D01*
X7588656Y-2744673D01*
X7599730Y-2757068D01*
X8273796Y-3431184D01*
X8276031Y-3434435D01*
X8276793Y-3438347D01*
X8276031Y-3442208D01*
X8273846Y-3445510D01*
X8270544Y-3447745D01*
X8266684Y-3448507D01*
X8262823Y-3447745D01*
X8255253Y-3444697D01*
X8237778Y-3439617D01*
X8219897Y-3436365D01*
X8201761Y-3434943D01*
X8183575Y-3435400D01*
X8165490Y-3437737D01*
X8147812Y-3441903D01*
X8130641Y-3447846D01*
X8114131Y-3455619D01*
X8098536Y-3464915D01*
X8084007Y-3475888D01*
X8070646Y-3488232D01*
X8058658Y-3501898D01*
X8048091Y-3516680D01*
X8039150Y-3532581D01*
X8031835Y-3549243D01*
X8026298Y-3566515D01*
X8022590Y-3584397D01*
X8020710Y-3602482D01*
X8020710Y-3620668D01*
X8022590Y-3638753D01*
X8026298Y-3656584D01*
X8031835Y-3673906D01*
X8039150Y-3690569D01*
X8048091Y-3706418D01*
X8058658Y-3721252D01*
X8070646Y-3734917D01*
X8084007Y-3747211D01*
X8098536Y-3758184D01*
X8114131Y-3767531D01*
X8130641Y-3775252D01*
X8147812Y-3781247D01*
X8165490Y-3785362D01*
X8183575Y-3787749D01*
X8201761Y-3788206D01*
X8219897Y-3786784D01*
X8237778Y-3783533D01*
X8255253Y-3778453D01*
X8272068Y-3771595D01*
X8288172Y-3763060D01*
X8294471Y-3758793D01*
X8297164Y-3757472D01*
X8300110Y-3757015D01*
X8633002Y-3757015D01*
X8636863Y-3757879D01*
X8640165Y-3760063D01*
X8720836Y-3840683D01*
X8733180Y-3851757D01*
X8746490Y-3861206D01*
X8760764Y-3869080D01*
X8775852Y-3875328D01*
X8791549Y-3879850D01*
X8807602Y-3882542D01*
X8824214Y-3883507D01*
X8836507Y-3883507D01*
X8840622Y-3884371D01*
X8844026Y-3886860D01*
X8846108Y-3890467D01*
X8846616Y-3894632D01*
X8845397Y-3898646D01*
X8836406Y-3914749D01*
X8829395Y-3931056D01*
X8824112Y-3947972D01*
X8820505Y-3965448D01*
X8818727Y-3983126D01*
X8818727Y-4000906D01*
X8820505Y-4018584D01*
X8824112Y-4036009D01*
X8829395Y-4052976D01*
X8836406Y-4069283D01*
X8845042Y-4084777D01*
X8855202Y-4099407D01*
X8866327Y-4112412D01*
X8868156Y-4115511D01*
X8868765Y-4118965D01*
X8868156Y-4122521D01*
X8866327Y-4125620D01*
X8855202Y-4138523D01*
X8845042Y-4153154D01*
X8836406Y-4168749D01*
X8829395Y-4185056D01*
X8824112Y-4201972D01*
X8822436Y-4209999D01*
X8821470Y-4212742D01*
X8819692Y-4215130D01*
X7365746Y-5669076D01*
X7362545Y-5671261D01*
X7358786Y-5672074D01*
X7354976Y-5671413D01*
X7351674Y-5669330D01*
X7349388Y-5666282D01*
X7348423Y-5662523D01*
X7347813Y-5653582D01*
X7345273Y-5640730D01*
X7341057Y-5628284D01*
X7335215Y-5616448D01*
X7327900Y-5605526D01*
X7319264Y-5595670D01*
X7309358Y-5586984D01*
X7298436Y-5579668D01*
X7286650Y-5573877D01*
X7274204Y-5569661D01*
X7261301Y-5567070D01*
X7247839Y-5566206D01*
X7229297Y-5566206D01*
X7224928Y-5565241D01*
X7221372Y-5562396D01*
X7219391Y-5558434D01*
X7219340Y-5553913D01*
X7221220Y-5549849D01*
X7224674Y-5547004D01*
X7241082Y-5538622D01*
X7268159Y-5522620D01*
X7294168Y-5504942D01*
X7319009Y-5485638D01*
X7342581Y-5464860D01*
X7364831Y-5442661D01*
X7385608Y-5419039D01*
X7404912Y-5394198D01*
X7422591Y-5368188D01*
X7438593Y-5341112D01*
X7452868Y-5313121D01*
X7455763Y-5306364D01*
X7106361Y-5306364D01*
X7106361Y-5555996D01*
X7105548Y-5559907D01*
X7103364Y-5563209D01*
X7100062Y-5565444D01*
X7096201Y-5566206D01*
X7048550Y-5566206D01*
X7035088Y-5567070D01*
X7022185Y-5569661D01*
X7009739Y-5573877D01*
X6997953Y-5579668D01*
X6987031Y-5586984D01*
X6977125Y-5595670D01*
X6968490Y-5605526D01*
X6961174Y-5616448D01*
X6955383Y-5628284D01*
X6951116Y-5640730D01*
X6948576Y-5653582D01*
X6947712Y-5667044D01*
X6947712Y-5866384D01*
X6948576Y-5879846D01*
X6951116Y-5892698D01*
X6955383Y-5905144D01*
X6961174Y-5916980D01*
X6968490Y-5927902D01*
X6977125Y-5937758D01*
X6987031Y-5946444D01*
X6997953Y-5953760D01*
X7009739Y-5959500D01*
X7022185Y-5963767D01*
X7035088Y-5966307D01*
X7048550Y-5967222D01*
X7070953Y-5967222D01*
X7074814Y-5967984D01*
X7078116Y-5970219D01*
X7080351Y-5973470D01*
X7081113Y-5977382D01*
X7080351Y-5981293D01*
X7078116Y-5984544D01*
X7012990Y-6049721D01*
X7009688Y-6051905D01*
X7005777Y-6052718D01*
X5873648Y-6052718D01*
X5869889Y-6051956D01*
X5866638Y-6049822D01*
X5864402Y-6046724D01*
X5863539Y-6042964D01*
X5864098Y-6039053D01*
X5866942Y-6031230D01*
X5871718Y-6012129D01*
X5874613Y-5992672D01*
X5875578Y-5973013D01*
X5874613Y-5953353D01*
X5871718Y-5933897D01*
X5866942Y-5914796D01*
X5860288Y-5896305D01*
X5851906Y-5878525D01*
X5847486Y-5871159D01*
X5846114Y-5867196D01*
X5846470Y-5863082D01*
X5848451Y-5859322D01*
X5851753Y-5856833D01*
X5855766Y-5855817D01*
X5859881Y-5856427D01*
X5863386Y-5858764D01*
X5874054Y-5869381D01*
X5886399Y-5880455D01*
X5899708Y-5889904D01*
X5913983Y-5897778D01*
X5929071Y-5904026D01*
X5944768Y-5908548D01*
X5960821Y-5911291D01*
X5977128Y-5912205D01*
X5980176Y-5912866D01*
X5982919Y-5914390D01*
X5985002Y-5916726D01*
X5992469Y-5927902D01*
X6001156Y-5937758D01*
X6011011Y-5946444D01*
X6021933Y-5953760D01*
X6033770Y-5959500D01*
X6046216Y-5963767D01*
X6059068Y-5966307D01*
X6072530Y-5967222D01*
X6271869Y-5967222D01*
X6285331Y-5966307D01*
X6298184Y-5963767D01*
X6310630Y-5959500D01*
X6322466Y-5953760D01*
X6333388Y-5946444D01*
X6343243Y-5937758D01*
X6351930Y-5927902D01*
X6359245Y-5916930D01*
X6365036Y-5905144D01*
X6369253Y-5892698D01*
X6371844Y-5879846D01*
X6372707Y-5866384D01*
X6372707Y-5667044D01*
X6371844Y-5653582D01*
X6369253Y-5640679D01*
X6365036Y-5628233D01*
X6359245Y-5616448D01*
X6351930Y-5605526D01*
X6343243Y-5595670D01*
X6333388Y-5586984D01*
X6322466Y-5579668D01*
X6310630Y-5573877D01*
X6298184Y-5569661D01*
X6285331Y-5567070D01*
X6271869Y-5566206D01*
X6072530Y-5566206D01*
X6059068Y-5567070D01*
X6046216Y-5569661D01*
X6033770Y-5573877D01*
X6021933Y-5579668D01*
X6013094Y-5585612D01*
X6008979Y-5587187D01*
X6004560Y-5586882D01*
X6000699Y-5584748D01*
X5990488Y-5575554D01*
X5977178Y-5566156D01*
X5962904Y-5558282D01*
X5947816Y-5552033D01*
X5932170Y-5547512D01*
X5916066Y-5544769D01*
X5899505Y-5543804D01*
X5122367Y-5543804D01*
X5105806Y-5544769D01*
X5089702Y-5547512D01*
X5074056Y-5552033D01*
X5058968Y-5558282D01*
X5044694Y-5566156D01*
X5031384Y-5575554D01*
X5018989Y-5586679D01*
X4866030Y-5739638D01*
X4862779Y-5741822D01*
X4858867Y-5742584D01*
X4854956Y-5741822D01*
X4851704Y-5739638D01*
X4849469Y-5736285D01*
X4848707Y-5732373D01*
X4848707Y-5667044D01*
X4847844Y-5653582D01*
X4845253Y-5640730D01*
X4841036Y-5628284D01*
X4835245Y-5616448D01*
X4827930Y-5605526D01*
X4819243Y-5595670D01*
X4809388Y-5586984D01*
X4798466Y-5579668D01*
X4786630Y-5573877D01*
X4774184Y-5569661D01*
X4761331Y-5567070D01*
X4747869Y-5566206D01*
X4548530Y-5566206D01*
X4535068Y-5567070D01*
X4522216Y-5569661D01*
X4509770Y-5573877D01*
X4497933Y-5579668D01*
X4487011Y-5586984D01*
X4477156Y-5595670D01*
X4468469Y-5605526D01*
X4461154Y-5616448D01*
X4455363Y-5628284D01*
X4451146Y-5640730D01*
X4448556Y-5653582D01*
X4447692Y-5667044D01*
X4447692Y-5866384D01*
X4448556Y-5879846D01*
X4451146Y-5892698D01*
X4455363Y-5905144D01*
X4461154Y-5916980D01*
X4468469Y-5927902D01*
X4477156Y-5937758D01*
X4487011Y-5946444D01*
X4497933Y-5953760D01*
X4509770Y-5959500D01*
X4522216Y-5963767D01*
X4535068Y-5966307D01*
X4548530Y-5967222D01*
X4747869Y-5967222D01*
X4761331Y-5966307D01*
X4763414Y-5965850D01*
X4767884Y-5966053D01*
X4771847Y-5968034D01*
X4774590Y-5971540D01*
X4775555Y-5975908D01*
X4775555Y-6055868D01*
X4776470Y-6072428D01*
X4779213Y-6088532D01*
X4783734Y-6104178D01*
X4789982Y-6119215D01*
X4797856Y-6133541D01*
X4807305Y-6146850D01*
X4818380Y-6159246D01*
X4927295Y-6268110D01*
X4928920Y-6270294D01*
X4929936Y-6272834D01*
X4933035Y-6285230D01*
X4939690Y-6303721D01*
X4948072Y-6321450D01*
X4958181Y-6338417D01*
X4969916Y-6354165D01*
X4983124Y-6368796D01*
X4997704Y-6381953D01*
X5013502Y-6393688D01*
X5030419Y-6403848D01*
X5048199Y-6412230D01*
X5066690Y-6418884D01*
X5085791Y-6423660D01*
X5105247Y-6426555D01*
X5124907Y-6427520D01*
X5144566Y-6426555D01*
X5164023Y-6423660D01*
X5183124Y-6418884D01*
X5202021Y-6412128D01*
X5206390Y-6411569D01*
X5210556Y-6412941D01*
X5213807Y-6415938D01*
X5220817Y-6426149D01*
X5234127Y-6442100D01*
X5248859Y-6456883D01*
X5264861Y-6470192D01*
X5282031Y-6481978D01*
X5300218Y-6492138D01*
X5319268Y-6500520D01*
X5339029Y-6507073D01*
X5359298Y-6511899D01*
X5379923Y-6514795D01*
X5400751Y-6515760D01*
X5421579Y-6514795D01*
X5442204Y-6511899D01*
X5462473Y-6507073D01*
X5482234Y-6500520D01*
X5501284Y-6492138D01*
X5519470Y-6481978D01*
X5536641Y-6470192D01*
X5552643Y-6456883D01*
X5567375Y-6442100D01*
X5580684Y-6426149D01*
X5587390Y-6416395D01*
X5590641Y-6413296D01*
X5594807Y-6412026D01*
X5599226Y-6412534D01*
X5616854Y-6418884D01*
X5635955Y-6423660D01*
X5655411Y-6426555D01*
X5675071Y-6427520D01*
X5694730Y-6426555D01*
X5714187Y-6423660D01*
X5726988Y-6420459D01*
X5731052Y-6420256D01*
X5734862Y-6421678D01*
X5737809Y-6424472D01*
X5748172Y-6439154D01*
X5759399Y-6451803D01*
X5771997Y-6463030D01*
X5785764Y-6472783D01*
X5800547Y-6480962D01*
X5816142Y-6487414D01*
X5832348Y-6492087D01*
X5848959Y-6494932D01*
X5865825Y-6495796D01*
X5882690Y-6494932D01*
X5899302Y-6492087D01*
X5915507Y-6487414D01*
X5931103Y-6480962D01*
X5945886Y-6472783D01*
X5959652Y-6463030D01*
X5969304Y-6454444D01*
X5972708Y-6452362D01*
X5976670Y-6451803D01*
X5980480Y-6452819D01*
X5983681Y-6455257D01*
X5985662Y-6458661D01*
X5986170Y-6462623D01*
X5985154Y-6466484D01*
X5979363Y-6478219D01*
X5975146Y-6490716D01*
X5972556Y-6503619D01*
X5971692Y-6517030D01*
X5971692Y-6560312D01*
X6115862Y-6560312D01*
X6115862Y-6416192D01*
X6072530Y-6416192D01*
X6059068Y-6417106D01*
X6046216Y-6419596D01*
X6033770Y-6423863D01*
X6021933Y-6429705D01*
X6011011Y-6437020D01*
X6007303Y-6440271D01*
X6003645Y-6442303D01*
X5999480Y-6442710D01*
X5995517Y-6441389D01*
X5992418Y-6438595D01*
X5990691Y-6434734D01*
X5990640Y-6430568D01*
X5992317Y-6426758D01*
X5993231Y-6425438D01*
X6001410Y-6410655D01*
X6007862Y-6395059D01*
X6012535Y-6378854D01*
X6015380Y-6362242D01*
X6015888Y-6353302D01*
X6016802Y-6349593D01*
X6019038Y-6346494D01*
X6022238Y-6344361D01*
X6025997Y-6343700D01*
X7069988Y-6343700D01*
X7086549Y-6342786D01*
X7102652Y-6339992D01*
X7118299Y-6335522D01*
X7133386Y-6329222D01*
X7147661Y-6321399D01*
X7160971Y-6311950D01*
X7173366Y-6300876D01*
X7424623Y-6049670D01*
X7427823Y-6047435D01*
X7431582Y-6046673D01*
X7435392Y-6047333D01*
X7438694Y-6049314D01*
X7440980Y-6052515D01*
X7448092Y-6067450D01*
X7458202Y-6084417D01*
X7465263Y-6093968D01*
X7467041Y-6097879D01*
X7467041Y-6102096D01*
X7465263Y-6106007D01*
X7458202Y-6115608D01*
X7448092Y-6132525D01*
X7439659Y-6150305D01*
X7433056Y-6168796D01*
X7428280Y-6187897D01*
X7425385Y-6207353D01*
X7424420Y-6227013D01*
X7425385Y-6246672D01*
X7428280Y-6266129D01*
X7433056Y-6285230D01*
X7439659Y-6303721D01*
X7448092Y-6321450D01*
X7458202Y-6338417D01*
X7469936Y-6354165D01*
X7481773Y-6367322D01*
X7484008Y-6371285D01*
X7487564Y-6383629D01*
X7493812Y-6398717D01*
X7501686Y-6412992D01*
X7511135Y-6426301D01*
X7522209Y-6438646D01*
X7999730Y-6916166D01*
X8012074Y-6927240D01*
X8025384Y-6936689D01*
X8039658Y-6944563D01*
X8054746Y-6950811D01*
X8070443Y-6955332D01*
X8086496Y-6958075D01*
X8103108Y-6958990D01*
X10286288Y-6958990D01*
X10302849Y-6958075D01*
X10318953Y-6955332D01*
X10334599Y-6950811D01*
X10349687Y-6944563D01*
X10363962Y-6936689D01*
X10377271Y-6927240D01*
X10389666Y-6916166D01*
X10449509Y-6856272D01*
X10460583Y-6843928D01*
X10470032Y-6830618D01*
X10477906Y-6816344D01*
X10484154Y-6801256D01*
X10488676Y-6785559D01*
X10491419Y-6769506D01*
X10492333Y-6752894D01*
X10492333Y-6468160D01*
X10491419Y-6451600D01*
X10488777Y-6435902D01*
X10488828Y-6431991D01*
X10490403Y-6428384D01*
X10493146Y-6425742D01*
X10496753Y-6424218D01*
X10500614Y-6424218D01*
X10504220Y-6425641D01*
X10507065Y-6428333D01*
X10511129Y-6434074D01*
X10522204Y-6446469D01*
X10692434Y-6616649D01*
X10704779Y-6627672D01*
X10718088Y-6637172D01*
X10732363Y-6645046D01*
X10747451Y-6651294D01*
X10763148Y-6655816D01*
X10779201Y-6658559D01*
X10795812Y-6659422D01*
X10995863Y-6659422D01*
X11012424Y-6658559D01*
X11028527Y-6655816D01*
X11044174Y-6651294D01*
X11059261Y-6645046D01*
X11073536Y-6637172D01*
X11086846Y-6627672D01*
X11099241Y-6616649D01*
X11277752Y-6438138D01*
X11288826Y-6425793D01*
X11298275Y-6412484D01*
X11306149Y-6398209D01*
X11312398Y-6383121D01*
X11313312Y-6379870D01*
X11315395Y-6376060D01*
X11318849Y-6373469D01*
X11323066Y-6372504D01*
X12983311Y-6372504D01*
X12986969Y-6373164D01*
X12990169Y-6375146D01*
X12997688Y-6381953D01*
X13013486Y-6393688D01*
X13030403Y-6403848D01*
X13048183Y-6412230D01*
X13066674Y-6418884D01*
X13085775Y-6423660D01*
X13105231Y-6426555D01*
X13124891Y-6427520D01*
X13144550Y-6426555D01*
X13164007Y-6423660D01*
X13183107Y-6418884D01*
X13201040Y-6412433D01*
X13205409Y-6411925D01*
X13209625Y-6413246D01*
X13212826Y-6416294D01*
X13219277Y-6425641D01*
X13232587Y-6441592D01*
X13247319Y-6456375D01*
X13263321Y-6469684D01*
X13280491Y-6481470D01*
X13298678Y-6491630D01*
X13317728Y-6500012D01*
X13337489Y-6506565D01*
X13357758Y-6511391D01*
X13378383Y-6514287D01*
X13399211Y-6515252D01*
X13420039Y-6514287D01*
X13440663Y-6511391D01*
X13460933Y-6506565D01*
X13480694Y-6500012D01*
X13499744Y-6491630D01*
X13517930Y-6481470D01*
X13535101Y-6469684D01*
X13551103Y-6456375D01*
X13565835Y-6441592D01*
X13579144Y-6425641D01*
X13585901Y-6415836D01*
X13589101Y-6412738D01*
X13593318Y-6411468D01*
X13597686Y-6412026D01*
X13616838Y-6418884D01*
X13635939Y-6423660D01*
X13655395Y-6426555D01*
X13675055Y-6427520D01*
X13694714Y-6426555D01*
X13714171Y-6423660D01*
X13733272Y-6418884D01*
X13751763Y-6412230D01*
X13769543Y-6403848D01*
X13786459Y-6393688D01*
X13802258Y-6381953D01*
X13816838Y-6368796D01*
X13830046Y-6354165D01*
X13841780Y-6338417D01*
X13851890Y-6321450D01*
X13860272Y-6303721D01*
X13866926Y-6285230D01*
X13871701Y-6266129D01*
X13874597Y-6246672D01*
X13875562Y-6227013D01*
X13874597Y-6207353D01*
X13871701Y-6187897D01*
X13866926Y-6168796D01*
X13860272Y-6150305D01*
X13851890Y-6132525D01*
X13841780Y-6115608D01*
X13834668Y-6106007D01*
X13832890Y-6102096D01*
X13832890Y-6097879D01*
X13834668Y-6093968D01*
X13841780Y-6084417D01*
X13851890Y-6067450D01*
X13860272Y-6049721D01*
X13866926Y-6031230D01*
X13871701Y-6012129D01*
X13874597Y-5992672D01*
X13875105Y-5982411D01*
X13875969Y-5978855D01*
X13878051Y-5975807D01*
X13938656Y-5915202D01*
X13941958Y-5913018D01*
X13945819Y-5912205D01*
X13952575Y-5912205D01*
X13955826Y-5912764D01*
X13958773Y-5914339D01*
X13961008Y-5916726D01*
X13968476Y-5927902D01*
X13977112Y-5937758D01*
X13987018Y-5946444D01*
X13997940Y-5953760D01*
X14009725Y-5959500D01*
X14022171Y-5963767D01*
X14035074Y-5966307D01*
X14048536Y-5967222D01*
X14247825Y-5967222D01*
X14261287Y-5966307D01*
X14274190Y-5963767D01*
X14286636Y-5959500D01*
X14298422Y-5953760D01*
X14309344Y-5946444D01*
X14319250Y-5937758D01*
X14327886Y-5927902D01*
X14335201Y-5916980D01*
X14341043Y-5905144D01*
X14345259Y-5892698D01*
X14347799Y-5879846D01*
X14348713Y-5866384D01*
X14348713Y-5667044D01*
X14347799Y-5653582D01*
X14345259Y-5640730D01*
X14341043Y-5628284D01*
X14335201Y-5616448D01*
X14327886Y-5605526D01*
X14319250Y-5595670D01*
X14309344Y-5586984D01*
X14298422Y-5579668D01*
X14286636Y-5573877D01*
X14274190Y-5569661D01*
X14261287Y-5567070D01*
X14247825Y-5566206D01*
X14048536Y-5566206D01*
X14035074Y-5567070D01*
X14022171Y-5569661D01*
X14009725Y-5573877D01*
X13997940Y-5579668D01*
X13987018Y-5586984D01*
X13977112Y-5595670D01*
X13968476Y-5605526D01*
X13961008Y-5616702D01*
X13958773Y-5619038D01*
X13955826Y-5620664D01*
X13952575Y-5621223D01*
X13881658Y-5621223D01*
X13865047Y-5622137D01*
X13848994Y-5624880D01*
X13833297Y-5629402D01*
X13818209Y-5635599D01*
X13803934Y-5643473D01*
X13790625Y-5652973D01*
X13778280Y-5663996D01*
X13672261Y-5769965D01*
X13669213Y-5772099D01*
X13665606Y-5772912D01*
X13655395Y-5773470D01*
X13635939Y-5776315D01*
X13616838Y-5781141D01*
X13597940Y-5787898D01*
X13593572Y-5788456D01*
X13589406Y-5787034D01*
X13586155Y-5784088D01*
X13579144Y-5773826D01*
X13565835Y-5757875D01*
X13551103Y-5743092D01*
X13535101Y-5729833D01*
X13517930Y-5718048D01*
X13499744Y-5707888D01*
X13480694Y-5699506D01*
X13460933Y-5692902D01*
X13440663Y-5688126D01*
X13420039Y-5685231D01*
X13399211Y-5684266D01*
X13378383Y-5685231D01*
X13357758Y-5688126D01*
X13337489Y-5692902D01*
X13317728Y-5699506D01*
X13298678Y-5707888D01*
X13280491Y-5718048D01*
X13263321Y-5729833D01*
X13247319Y-5743092D01*
X13232587Y-5757875D01*
X13219277Y-5773826D01*
X13212572Y-5783630D01*
X13209320Y-5786678D01*
X13205155Y-5787999D01*
X13200735Y-5787491D01*
X13183107Y-5781141D01*
X13164007Y-5776315D01*
X13144550Y-5773470D01*
X13124891Y-5772505D01*
X13105231Y-5773470D01*
X13085775Y-5776315D01*
X13072973Y-5779566D01*
X13068909Y-5779719D01*
X13065099Y-5778296D01*
X13062153Y-5775553D01*
X13051790Y-5760821D01*
X13040563Y-5748223D01*
X13027964Y-5736996D01*
X13014198Y-5727242D01*
X12999415Y-5719064D01*
X12983819Y-5712612D01*
X12967614Y-5707888D01*
X12951002Y-5705094D01*
X12934137Y-5704179D01*
X12917322Y-5705094D01*
X12899694Y-5708142D01*
X12895326Y-5707888D01*
X12891414Y-5705906D01*
X12888772Y-5702401D01*
X12887807Y-5698134D01*
X12887807Y-5667044D01*
X12886944Y-5653582D01*
X12884353Y-5640730D01*
X12880136Y-5628284D01*
X12874345Y-5616448D01*
X12867030Y-5605526D01*
X12858343Y-5595670D01*
X12848488Y-5586984D01*
X12837566Y-5579668D01*
X12825730Y-5573877D01*
X12813284Y-5569661D01*
X12800431Y-5567070D01*
X12786969Y-5566206D01*
X12587630Y-5566206D01*
X12574168Y-5567070D01*
X12561316Y-5569661D01*
X12548870Y-5573877D01*
X12537033Y-5579668D01*
X12526111Y-5586984D01*
X12516256Y-5595670D01*
X12507569Y-5605526D01*
X12500254Y-5616448D01*
X12494463Y-5628284D01*
X12490246Y-5640730D01*
X12487656Y-5653582D01*
X12486792Y-5667044D01*
X12486792Y-5866384D01*
X12487656Y-5879846D01*
X12490246Y-5892698D01*
X12494463Y-5905144D01*
X12500254Y-5916980D01*
X12507569Y-5927902D01*
X12516256Y-5937758D01*
X12526111Y-5946444D01*
X12537033Y-5953760D01*
X12548870Y-5959500D01*
X12561316Y-5963767D01*
X12574168Y-5966307D01*
X12587630Y-5967222D01*
X12786969Y-5967222D01*
X12800431Y-5966307D01*
X12813284Y-5963767D01*
X12820345Y-5961380D01*
X12823850Y-5960872D01*
X12827355Y-5961583D01*
X12830352Y-5963361D01*
X12840309Y-5972302D01*
X12854076Y-5982055D01*
X12868859Y-5990234D01*
X12884454Y-5996635D01*
X12900660Y-6001359D01*
X12917271Y-6004204D01*
X12918897Y-6004306D01*
X12923012Y-6005372D01*
X12926314Y-6008116D01*
X12928193Y-6011976D01*
X12933019Y-6031230D01*
X12939674Y-6049721D01*
X12947802Y-6066942D01*
X12948767Y-6070955D01*
X12948158Y-6074968D01*
X12945973Y-6078372D01*
X12942620Y-6080709D01*
X12938658Y-6081522D01*
X11361318Y-6081522D01*
X11357356Y-6080709D01*
X11354003Y-6078372D01*
X11351818Y-6074968D01*
X11351158Y-6070955D01*
X11352123Y-6066942D01*
X11360302Y-6049721D01*
X11366906Y-6031230D01*
X11371681Y-6012129D01*
X11374577Y-5992672D01*
X11375085Y-5982411D01*
X11375948Y-5978855D01*
X11378031Y-5975807D01*
X11438636Y-5915202D01*
X11441938Y-5913018D01*
X11445849Y-5912205D01*
X11450269Y-5912205D01*
X11453571Y-5912764D01*
X11456466Y-5914339D01*
X11458752Y-5916726D01*
X11466169Y-5927902D01*
X11474856Y-5937758D01*
X11484711Y-5946444D01*
X11495633Y-5953760D01*
X11507470Y-5959500D01*
X11519916Y-5963767D01*
X11532768Y-5966307D01*
X11546230Y-5967222D01*
X11745569Y-5967222D01*
X11759031Y-5966307D01*
X11771884Y-5963767D01*
X11784330Y-5959500D01*
X11796166Y-5953760D01*
X11807088Y-5946444D01*
X11816943Y-5937758D01*
X11825630Y-5927902D01*
X11832945Y-5916930D01*
X11838736Y-5905144D01*
X11842953Y-5892698D01*
X11845544Y-5879846D01*
X11846407Y-5866384D01*
X11846407Y-5667044D01*
X11845544Y-5653582D01*
X11842953Y-5640679D01*
X11838736Y-5628233D01*
X11832945Y-5616448D01*
X11825630Y-5605526D01*
X11816943Y-5595670D01*
X11807088Y-5586984D01*
X11798147Y-5581040D01*
X11795709Y-5578754D01*
X11794185Y-5575858D01*
X11793626Y-5572556D01*
X11793626Y-5306364D01*
X11444173Y-5306364D01*
X11447119Y-5313121D01*
X11461394Y-5341061D01*
X11477396Y-5368188D01*
X11495074Y-5394198D01*
X11514328Y-5419039D01*
X11535105Y-5442661D01*
X11557355Y-5464860D01*
X11580926Y-5485638D01*
X11605768Y-5504942D01*
X11631777Y-5522620D01*
X11658854Y-5538622D01*
X11675313Y-5547004D01*
X11678767Y-5549849D01*
X11680647Y-5553913D01*
X11680545Y-5558434D01*
X11678564Y-5562396D01*
X11675059Y-5565190D01*
X11670690Y-5566206D01*
X11546230Y-5566206D01*
X11532768Y-5567070D01*
X11519916Y-5569661D01*
X11507470Y-5573877D01*
X11495633Y-5579668D01*
X11484711Y-5586984D01*
X11474856Y-5595670D01*
X11466169Y-5605526D01*
X11458752Y-5616702D01*
X11456466Y-5619038D01*
X11453571Y-5620664D01*
X11450269Y-5621223D01*
X11381638Y-5621223D01*
X11365077Y-5622137D01*
X11348974Y-5624880D01*
X11333327Y-5629402D01*
X11318240Y-5635599D01*
X11303965Y-5643473D01*
X11290655Y-5652973D01*
X11278260Y-5663996D01*
X11172291Y-5769965D01*
X11169192Y-5772099D01*
X11165586Y-5772912D01*
X11155426Y-5773470D01*
X11135969Y-5776315D01*
X11116868Y-5781141D01*
X11097971Y-5787898D01*
X11093602Y-5788456D01*
X11089386Y-5787034D01*
X11086185Y-5784088D01*
X11079175Y-5773826D01*
X11065865Y-5757875D01*
X11051133Y-5743092D01*
X11035131Y-5729833D01*
X11017910Y-5718048D01*
X10999724Y-5707888D01*
X10980674Y-5699506D01*
X10960912Y-5692902D01*
X10940643Y-5688126D01*
X10920018Y-5685231D01*
X10899241Y-5684266D01*
X10878413Y-5685231D01*
X10857788Y-5688126D01*
X10837519Y-5692902D01*
X10817758Y-5699506D01*
X10798708Y-5707888D01*
X10780522Y-5718048D01*
X10763300Y-5729833D01*
X10747298Y-5743092D01*
X10732566Y-5757875D01*
X10719257Y-5773826D01*
X10712551Y-5783630D01*
X10709351Y-5786678D01*
X10705134Y-5787999D01*
X10700766Y-5787491D01*
X10683087Y-5781141D01*
X10663986Y-5776315D01*
X10644530Y-5773470D01*
X10624921Y-5772505D01*
X10605262Y-5773470D01*
X10585805Y-5776315D01*
X10572953Y-5779566D01*
X10568940Y-5779719D01*
X10565130Y-5778296D01*
X10562183Y-5775553D01*
X10551769Y-5760821D01*
X10540542Y-5748223D01*
X10527995Y-5736996D01*
X10514228Y-5727242D01*
X10499445Y-5719064D01*
X10483850Y-5712612D01*
X10467644Y-5707888D01*
X10450982Y-5705094D01*
X10434167Y-5704179D01*
X10417302Y-5705094D01*
X10400639Y-5707888D01*
X10384434Y-5712612D01*
X10368838Y-5719064D01*
X10362895Y-5722366D01*
X10358882Y-5723534D01*
X10354716Y-5723026D01*
X10351109Y-5720943D01*
X10348671Y-5717540D01*
X10347807Y-5713476D01*
X10347807Y-5667044D01*
X10346944Y-5653582D01*
X10344353Y-5640730D01*
X10340136Y-5628284D01*
X10334345Y-5616448D01*
X10327030Y-5605526D01*
X10318343Y-5595670D01*
X10308488Y-5586984D01*
X10297566Y-5579668D01*
X10285730Y-5573877D01*
X10273284Y-5569661D01*
X10260431Y-5567070D01*
X10246969Y-5566206D01*
X10047630Y-5566206D01*
X10034168Y-5567070D01*
X10021316Y-5569661D01*
X10008870Y-5573877D01*
X9997033Y-5579668D01*
X9986111Y-5586984D01*
X9976256Y-5595670D01*
X9967569Y-5605526D01*
X9960254Y-5616448D01*
X9954463Y-5628284D01*
X9950246Y-5640730D01*
X9947656Y-5653582D01*
X9946792Y-5667044D01*
X9946792Y-5675680D01*
X9946030Y-5679592D01*
X9943795Y-5682945D01*
X9940544Y-5685129D01*
X9936632Y-5685891D01*
X9932720Y-5685129D01*
X9929469Y-5682945D01*
X9692640Y-5446115D01*
X9690303Y-5442458D01*
X9689744Y-5438089D01*
X9691014Y-5433872D01*
X9694011Y-5430672D01*
X9698024Y-5428945D01*
X9702444Y-5429148D01*
X9720681Y-5433872D01*
X9738207Y-5436616D01*
X9756241Y-5437530D01*
X9805720Y-5437530D01*
X9823754Y-5436616D01*
X9841331Y-5433872D01*
X9858502Y-5429453D01*
X9875164Y-5423306D01*
X9891166Y-5415483D01*
X9906254Y-5406034D01*
X9920274Y-5395163D01*
X9933178Y-5382920D01*
X9944760Y-5369407D01*
X9954920Y-5354777D01*
X9963556Y-5339283D01*
X9970566Y-5322976D01*
X9975850Y-5306009D01*
X9979456Y-5288584D01*
X9981234Y-5270906D01*
X9981234Y-5253126D01*
X9979456Y-5235448D01*
X9975850Y-5217972D01*
X9970566Y-5201056D01*
X9963556Y-5184749D01*
X9954920Y-5169154D01*
X9944760Y-5154523D01*
X9933635Y-5141620D01*
X9931806Y-5138521D01*
X9931196Y-5134965D01*
X9931806Y-5131511D01*
X9933635Y-5128412D01*
X9944760Y-5115407D01*
X9954920Y-5100777D01*
X9963556Y-5085283D01*
X9970566Y-5068976D01*
X9975850Y-5052009D01*
X9979456Y-5034584D01*
X9981234Y-5016906D01*
X9981234Y-4999126D01*
X9979456Y-4981448D01*
X9975850Y-4963972D01*
X9970566Y-4947056D01*
X9963556Y-4930749D01*
X9954920Y-4915154D01*
X9944760Y-4900523D01*
X9933635Y-4887620D01*
X9931806Y-4884521D01*
X9931196Y-4880965D01*
X9931806Y-4877511D01*
X9933635Y-4874412D01*
X9944760Y-4861407D01*
X9954920Y-4846777D01*
X9963556Y-4831283D01*
X9970566Y-4814976D01*
X9975900Y-4797856D01*
X9837318Y-4797856D01*
X9837318Y-4823663D01*
X9836404Y-4827930D01*
X9833813Y-4831384D01*
X9829952Y-4833416D01*
X9825634Y-4833721D01*
X9823754Y-4833416D01*
X9805720Y-4832502D01*
X9756241Y-4832502D01*
X9738207Y-4833416D01*
X9736328Y-4833721D01*
X9732010Y-4833416D01*
X9728149Y-4831384D01*
X9725558Y-4827930D01*
X9724644Y-4823663D01*
X9724644Y-4797856D01*
X9586061Y-4797856D01*
X9591395Y-4814976D01*
X9598406Y-4831283D01*
X9607042Y-4846777D01*
X9617202Y-4861407D01*
X9628327Y-4874412D01*
X9630156Y-4877511D01*
X9630765Y-4880965D01*
X9630156Y-4884521D01*
X9628327Y-4887620D01*
X9617202Y-4900523D01*
X9607042Y-4915154D01*
X9598406Y-4930749D01*
X9591395Y-4947056D01*
X9586112Y-4963972D01*
X9582505Y-4981448D01*
X9580727Y-4999126D01*
X9580727Y-5016906D01*
X9582505Y-5034584D01*
X9586112Y-5052009D01*
X9591395Y-5068976D01*
X9598406Y-5085283D01*
X9607042Y-5100777D01*
X9617202Y-5115407D01*
X9628327Y-5128412D01*
X9630156Y-5131511D01*
X9630765Y-5134965D01*
X9630156Y-5138521D01*
X9628327Y-5141620D01*
X9617202Y-5154523D01*
X9607042Y-5169154D01*
X9598406Y-5184749D01*
X9591395Y-5201056D01*
X9586112Y-5217972D01*
X9582505Y-5235448D01*
X9580727Y-5253126D01*
X9580727Y-5270906D01*
X9582505Y-5288584D01*
X9586112Y-5306009D01*
X9589058Y-5315407D01*
X9589414Y-5319877D01*
X9587839Y-5323992D01*
X9584639Y-5327142D01*
X9580372Y-5328564D01*
X9575952Y-5328056D01*
X9572193Y-5325668D01*
X9533178Y-5286705D01*
X9530994Y-5283403D01*
X9530232Y-5279491D01*
X9530232Y-4830775D01*
X9529318Y-4814163D01*
X9526574Y-4798110D01*
X9522053Y-4782413D01*
X9515805Y-4767326D01*
X9507931Y-4753000D01*
X9498482Y-4739741D01*
X9487408Y-4727397D01*
X9214662Y-4454550D01*
X9213138Y-4452721D01*
X9212122Y-4450486D01*
X9208566Y-4439056D01*
X9201556Y-4422749D01*
X9192920Y-4407154D01*
X9182760Y-4392523D01*
X9171635Y-4379620D01*
X9169806Y-4376521D01*
X9169196Y-4372965D01*
X9169806Y-4369511D01*
X9171635Y-4366412D01*
X9182760Y-4353407D01*
X9192920Y-4338777D01*
X9201556Y-4323283D01*
X9208566Y-4306976D01*
X9213850Y-4290009D01*
X9217456Y-4272584D01*
X9219234Y-4254906D01*
X9219234Y-4237126D01*
X9217456Y-4219448D01*
X9213443Y-4200550D01*
X9213037Y-4196130D01*
X9214612Y-4191965D01*
X9217863Y-4188815D01*
X9222079Y-4187444D01*
X9226550Y-4188002D01*
X9230309Y-4190390D01*
X9585299Y-4545380D01*
X9586823Y-4547311D01*
X9587839Y-4549546D01*
X9591395Y-4560976D01*
X9598406Y-4577283D01*
X9607042Y-4592777D01*
X9617202Y-4607407D01*
X9628327Y-4620412D01*
X9630156Y-4623511D01*
X9630765Y-4626965D01*
X9630156Y-4630521D01*
X9628327Y-4633620D01*
X9617202Y-4646523D01*
X9607042Y-4661154D01*
X9598406Y-4676749D01*
X9591395Y-4693056D01*
X9586061Y-4710176D01*
X9724644Y-4710176D01*
X9724644Y-4684369D01*
X9725558Y-4680102D01*
X9728149Y-4676648D01*
X9732010Y-4674616D01*
X9736328Y-4674311D01*
X9738207Y-4674616D01*
X9756241Y-4675530D01*
X9805720Y-4675530D01*
X9823754Y-4674616D01*
X9825634Y-4674311D01*
X9829952Y-4674616D01*
X9833813Y-4676648D01*
X9836404Y-4680102D01*
X9837318Y-4684369D01*
X9837318Y-4710176D01*
X9975900Y-4710176D01*
X9970566Y-4693056D01*
X9963556Y-4676749D01*
X9954920Y-4661154D01*
X9944760Y-4646523D01*
X9933635Y-4633620D01*
X9931806Y-4630521D01*
X9931196Y-4626965D01*
X9931806Y-4623511D01*
X9933635Y-4620412D01*
X9944760Y-4607407D01*
X9954920Y-4592777D01*
X9963556Y-4577283D01*
X9970566Y-4560976D01*
X9975850Y-4544009D01*
X9979456Y-4526584D01*
X9981234Y-4508906D01*
X9981234Y-4491126D01*
X9979456Y-4473448D01*
X9975850Y-4455972D01*
X9970566Y-4439056D01*
X9963556Y-4422749D01*
X9954920Y-4407154D01*
X9944760Y-4392523D01*
X9933635Y-4379620D01*
X9931806Y-4376521D01*
X9931196Y-4372965D01*
X9931806Y-4369511D01*
X9933635Y-4366412D01*
X9944760Y-4353407D01*
X9954920Y-4338777D01*
X9963556Y-4323283D01*
X9970566Y-4306976D01*
X9975900Y-4289856D01*
X9837318Y-4289856D01*
X9837318Y-4315663D01*
X9836404Y-4319930D01*
X9833813Y-4323384D01*
X9829952Y-4325416D01*
X9825634Y-4325721D01*
X9823754Y-4325416D01*
X9805720Y-4324502D01*
X9780219Y-4324502D01*
X9776307Y-4323740D01*
X9773005Y-4321556D01*
X9670999Y-4219498D01*
X9668814Y-4216146D01*
X9668002Y-4212285D01*
X9668814Y-4208373D01*
X9670999Y-4205122D01*
X9674301Y-4202938D01*
X9678162Y-4202176D01*
X9724644Y-4202176D01*
X9724644Y-4176369D01*
X9725558Y-4172102D01*
X9728149Y-4168648D01*
X9732010Y-4166615D01*
X9736328Y-4166311D01*
X9738207Y-4166615D01*
X9756241Y-4167530D01*
X9805720Y-4167530D01*
X9823754Y-4166615D01*
X9825634Y-4166311D01*
X9829952Y-4166615D01*
X9833813Y-4168648D01*
X9836404Y-4172102D01*
X9837318Y-4176369D01*
X9837318Y-4202176D01*
X9975900Y-4202176D01*
X9970566Y-4185056D01*
X9963556Y-4168749D01*
X9954920Y-4153154D01*
X9944760Y-4138523D01*
X9933635Y-4125620D01*
X9931806Y-4122521D01*
X9931196Y-4118965D01*
X9931806Y-4115511D01*
X9933635Y-4112412D01*
X9944760Y-4099407D01*
X9954920Y-4084777D01*
X9963556Y-4069283D01*
X9970566Y-4052976D01*
X9975850Y-4036009D01*
X9979456Y-4018584D01*
X9981234Y-4000906D01*
X9981234Y-3983126D01*
X9979456Y-3965448D01*
X9975850Y-3947972D01*
X9970566Y-3931056D01*
X9963556Y-3914749D01*
X9954920Y-3899154D01*
X9944760Y-3884523D01*
X9933635Y-3871620D01*
X9931806Y-3868521D01*
X9931196Y-3864965D01*
X9931806Y-3861511D01*
X9933635Y-3858412D01*
X9944760Y-3845407D01*
X9954920Y-3830777D01*
X9963556Y-3815283D01*
X9970566Y-3798976D01*
X9975850Y-3782009D01*
X9979456Y-3764584D01*
X9981234Y-3746906D01*
X9981234Y-3729126D01*
X9979456Y-3711448D01*
X9975850Y-3693972D01*
X9970566Y-3677056D01*
X9963556Y-3660749D01*
X9954920Y-3645154D01*
X9944760Y-3630523D01*
X9933178Y-3617112D01*
X9920274Y-3604869D01*
X9906254Y-3593998D01*
X9891166Y-3584549D01*
X9875164Y-3576726D01*
X9858502Y-3570579D01*
X9841331Y-3566109D01*
X9823754Y-3563416D01*
X9805720Y-3562502D01*
X9756241Y-3562502D01*
X9738207Y-3563416D01*
X9720630Y-3566109D01*
X9703460Y-3570579D01*
X9686798Y-3576726D01*
X9670796Y-3584549D01*
X9655708Y-3593998D01*
X9641687Y-3604869D01*
X9628784Y-3617112D01*
X9617202Y-3630523D01*
X9607042Y-3645154D01*
X9598406Y-3660749D01*
X9591395Y-3677056D01*
X9586112Y-3693972D01*
X9582505Y-3711448D01*
X9580727Y-3729126D01*
X9580727Y-3746906D01*
X9582505Y-3764584D01*
X9586112Y-3782009D01*
X9591395Y-3798976D01*
X9598406Y-3815283D01*
X9607042Y-3830777D01*
X9617202Y-3845407D01*
X9628327Y-3858412D01*
X9630156Y-3861511D01*
X9630765Y-3864965D01*
X9630156Y-3868521D01*
X9628327Y-3871620D01*
X9617202Y-3884523D01*
X9607042Y-3899154D01*
X9598406Y-3914749D01*
X9591395Y-3931056D01*
X9586112Y-3947972D01*
X9582505Y-3965448D01*
X9580727Y-3983126D01*
X9580727Y-4000906D01*
X9582505Y-4018584D01*
X9586112Y-4036009D01*
X9591395Y-4052976D01*
X9598406Y-4069283D01*
X9607042Y-4084777D01*
X9617202Y-4099407D01*
X9628327Y-4112412D01*
X9630156Y-4115511D01*
X9630765Y-4118965D01*
X9630156Y-4122521D01*
X9628327Y-4125620D01*
X9617202Y-4138523D01*
X9613036Y-4144619D01*
X9609785Y-4147616D01*
X9605568Y-4148937D01*
X9601200Y-4148378D01*
X9597491Y-4145991D01*
X9362643Y-3911193D01*
X9360458Y-3907891D01*
X9359696Y-3903979D01*
X9359696Y-3609136D01*
X9358782Y-3592576D01*
X9356039Y-3576472D01*
X9351518Y-3560826D01*
X9345269Y-3545738D01*
X9337395Y-3531463D01*
X9327946Y-3518103D01*
X9316872Y-3505758D01*
X9166148Y-3354984D01*
X9153753Y-3343960D01*
X9140444Y-3334461D01*
X9126169Y-3326637D01*
X9111081Y-3320338D01*
X9095435Y-3315868D01*
X9079331Y-3313176D01*
X9062770Y-3312210D01*
X8570620Y-3312210D01*
X8566759Y-3311448D01*
X8563457Y-3309264D01*
X8522055Y-3267862D01*
X8519820Y-3264458D01*
X8519109Y-3260394D01*
X8520023Y-3256432D01*
X8522462Y-3253130D01*
X8525967Y-3250996D01*
X8532418Y-3248863D01*
X8544204Y-3243021D01*
X8555177Y-3235756D01*
X8563864Y-3228035D01*
X8567826Y-3225952D01*
X8572296Y-3225698D01*
X8576462Y-3227425D01*
X8578799Y-3229102D01*
X8594496Y-3237992D01*
X8611057Y-3245256D01*
X8628278Y-3250742D01*
X8645956Y-3254349D01*
X8663940Y-3256279D01*
X8682024Y-3256279D01*
X8700008Y-3254349D01*
X8717686Y-3250742D01*
X8734907Y-3245256D01*
X8751468Y-3237992D01*
X8767165Y-3229102D01*
X8781897Y-3218637D01*
X8793276Y-3208629D01*
X8796375Y-3206750D01*
X8799982Y-3206038D01*
X8803589Y-3206750D01*
X8806688Y-3208629D01*
X8818067Y-3218637D01*
X8832799Y-3229102D01*
X8848496Y-3237992D01*
X8865057Y-3245256D01*
X8883142Y-3250895D01*
X8883142Y-3124860D01*
X8859418Y-3124860D01*
X8855557Y-3124098D01*
X8852255Y-3121914D01*
X8850071Y-3118561D01*
X8849258Y-3114649D01*
X8850071Y-3110788D01*
X8852255Y-3107537D01*
X8903665Y-3056077D01*
X8906967Y-3053943D01*
X8910828Y-3053130D01*
X8996375Y-3053130D01*
X9000439Y-3053994D01*
X9003842Y-3056382D01*
X9005976Y-3059938D01*
X9006484Y-3064103D01*
X9005570Y-3076498D01*
X9006027Y-3094532D01*
X9008516Y-3113379D01*
X9008160Y-3117596D01*
X9006078Y-3121406D01*
X9002623Y-3123946D01*
X8998407Y-3124860D01*
X8970822Y-3124860D01*
X8970822Y-3250895D01*
X8988907Y-3245256D01*
X9005468Y-3237992D01*
X9021165Y-3229102D01*
X9035897Y-3218637D01*
X9047276Y-3208629D01*
X9050375Y-3206750D01*
X9053982Y-3206038D01*
X9057589Y-3206750D01*
X9060688Y-3208629D01*
X9072067Y-3218637D01*
X9086799Y-3229102D01*
X9102496Y-3237992D01*
X9119057Y-3245256D01*
X9136278Y-3250742D01*
X9153956Y-3254349D01*
X9171940Y-3256279D01*
X9190024Y-3256279D01*
X9208008Y-3254349D01*
X9225686Y-3250742D01*
X9242907Y-3245256D01*
X9259468Y-3237992D01*
X9275165Y-3229102D01*
X9289897Y-3218637D01*
X9303461Y-3206699D01*
X9315754Y-3193440D01*
X9326575Y-3179013D01*
X9335871Y-3163519D01*
X9343542Y-3147110D01*
X9344456Y-3144469D01*
X9346590Y-3140964D01*
X9349994Y-3138576D01*
X9354058Y-3137662D01*
X9971074Y-3137662D01*
X9974986Y-3138474D01*
X9978288Y-3140659D01*
X9980472Y-3143961D01*
X9981234Y-3147872D01*
X9981234Y-3262325D01*
X9982200Y-3278835D01*
X9984892Y-3294938D01*
X9989413Y-3310585D01*
X9995662Y-3325672D01*
X10003536Y-3339998D01*
X10012984Y-3353308D01*
X10024059Y-3365703D01*
X10660024Y-4001668D01*
X10661802Y-4004005D01*
X10662818Y-4006799D01*
X10664850Y-4016552D01*
X10670387Y-4033875D01*
X10677652Y-4050537D01*
X10686643Y-4066387D01*
X10697159Y-4081221D01*
X10709198Y-4094886D01*
X10722508Y-4107230D01*
X10737088Y-4118152D01*
X10752683Y-4127550D01*
X10769142Y-4135221D01*
X10786313Y-4141215D01*
X10804042Y-4145330D01*
X10822076Y-4147718D01*
X10840262Y-4148226D01*
X10858398Y-4146753D01*
X10876280Y-4143552D01*
X10893755Y-4138472D01*
X10910620Y-4131614D01*
X10926673Y-4123029D01*
X10941761Y-4112920D01*
X10955731Y-4101236D01*
X10968431Y-4088180D01*
X10979708Y-4073956D01*
X10989513Y-4058615D01*
X10997641Y-4042257D01*
X11004042Y-4025290D01*
X11008664Y-4007713D01*
X11011458Y-3989730D01*
X11012424Y-3971594D01*
X11011458Y-3953357D01*
X11008664Y-3935425D01*
X11004042Y-3917848D01*
X10997641Y-3900830D01*
X10989513Y-3884472D01*
X10979708Y-3869182D01*
X10968431Y-3854907D01*
X10955731Y-3841902D01*
X10941761Y-3830218D01*
X10926673Y-3820109D01*
X10910620Y-3811524D01*
X10893755Y-3804665D01*
X10876280Y-3799535D01*
X10871149Y-3798671D01*
X10868253Y-3797655D01*
X10865764Y-3795826D01*
X10275214Y-3205327D01*
X10273030Y-3202025D01*
X10272268Y-3198114D01*
X10272268Y-3056686D01*
X10273030Y-3052775D01*
X10275214Y-3049473D01*
X10348671Y-2976067D01*
X10359745Y-2963672D01*
X10363555Y-2958236D01*
X10366908Y-2955137D01*
X10370820Y-2953359D01*
X10375138Y-2953359D01*
X10379049Y-2955137D01*
X10391952Y-2964688D01*
X10408310Y-2974492D01*
X10425531Y-2982671D01*
X10443514Y-2989122D01*
X10462056Y-2993745D01*
X10480903Y-2996488D01*
X10500004Y-2997454D01*
X10519054Y-2996488D01*
X10537901Y-2993745D01*
X10556443Y-2989122D01*
X10574426Y-2982671D01*
X10591647Y-2974492D01*
X10608005Y-2964688D01*
X10623346Y-2953359D01*
X10637469Y-2940507D01*
X10650321Y-2926384D01*
X10661700Y-2910992D01*
X10671505Y-2894685D01*
X10679633Y-2877464D01*
X10686084Y-2859481D01*
X10690707Y-2840939D01*
X10693501Y-2822092D01*
X10694466Y-2803042D01*
X10693501Y-2783941D01*
X10690707Y-2765094D01*
X10686084Y-2746552D01*
X10679633Y-2728569D01*
X10671505Y-2711348D01*
X10661700Y-2694990D01*
X10650321Y-2679649D01*
X10637469Y-2665526D01*
X10623346Y-2652623D01*
X10608005Y-2641295D01*
X10591647Y-2631490D01*
X10574426Y-2623312D01*
X10556443Y-2616911D01*
X10537901Y-2612288D01*
X10519054Y-2609494D01*
X10500004Y-2608529D01*
X10480903Y-2609494D01*
X10462056Y-2612288D01*
X10443514Y-2616911D01*
X10425531Y-2623312D01*
X10408310Y-2631490D01*
X10391952Y-2641295D01*
X10379049Y-2650896D01*
X10375138Y-2652623D01*
X10370820Y-2652623D01*
X10366908Y-2650896D01*
X10354005Y-2641295D01*
X10337647Y-2631490D01*
X10320426Y-2623312D01*
X10302443Y-2616911D01*
X10283901Y-2612288D01*
X10265054Y-2609494D01*
X10246004Y-2608529D01*
X10226903Y-2609494D01*
X10208056Y-2612288D01*
X10189514Y-2616911D01*
X10171531Y-2623312D01*
X10157206Y-2630119D01*
X10153853Y-2631033D01*
X10150398Y-2630779D01*
X10147249Y-2629408D01*
X10136225Y-2621991D01*
X10124389Y-2616200D01*
X10111943Y-2611983D01*
X10099090Y-2609392D01*
X10085628Y-2608529D01*
X9898329Y-2608529D01*
X9884867Y-2609392D01*
X9872014Y-2611983D01*
X9859568Y-2616200D01*
X9847732Y-2621991D01*
X9836810Y-2629306D01*
X9826955Y-2637942D01*
X9818268Y-2647848D01*
X9814864Y-2652979D01*
X9812578Y-2655417D01*
X9809683Y-2656992D01*
X9806381Y-2657449D01*
X9475470Y-2657449D01*
X9471558Y-2656738D01*
X9468256Y-2654554D01*
X9287002Y-2473248D01*
X9284614Y-2469540D01*
X9284055Y-2465222D01*
X9285325Y-2461006D01*
X9288272Y-2457704D01*
X9289897Y-2456637D01*
X9303461Y-2444699D01*
X9315754Y-2431440D01*
X9326575Y-2417013D01*
X9335871Y-2401519D01*
X9343542Y-2385110D01*
X9349486Y-2368092D01*
X9353651Y-2350465D01*
X9355937Y-2332583D01*
X9356394Y-2314498D01*
X9355023Y-2296464D01*
X9351772Y-2278735D01*
X9346742Y-2261311D01*
X9339935Y-2244648D01*
X9331452Y-2228646D01*
X9321342Y-2213660D01*
X9309760Y-2199792D01*
X9296857Y-2187194D01*
X9282684Y-2175967D01*
X9267444Y-2166315D01*
X9251238Y-2158187D01*
X9234373Y-2151837D01*
X9216898Y-2147214D01*
X9199016Y-2144471D01*
X9180982Y-2143506D01*
X9162948Y-2144471D01*
X9145066Y-2147214D01*
X9127591Y-2151837D01*
X9110726Y-2158187D01*
X9094520Y-2166315D01*
X9079280Y-2175967D01*
X9065107Y-2187194D01*
X9061094Y-2191156D01*
X9057792Y-2193290D01*
X9053982Y-2194052D01*
X9050172Y-2193290D01*
X9046870Y-2191156D01*
X9042857Y-2187194D01*
X9028684Y-2175967D01*
X9013444Y-2166315D01*
X8997238Y-2158187D01*
X8980373Y-2151837D01*
X8962948Y-2147265D01*
X8960459Y-2146249D01*
X8958376Y-2144572D01*
X8833866Y-2020163D01*
X8821521Y-2009089D01*
X8808212Y-1999640D01*
X8793937Y-1991715D01*
X8778849Y-1985518D01*
X8763152Y-1980946D01*
X8747099Y-1978253D01*
X8730488Y-1977339D01*
X8339124Y-1977339D01*
X8335213Y-1976526D01*
X8331911Y-1974342D01*
X8223503Y-1865884D01*
X8221268Y-1862582D01*
X8220506Y-1858721D01*
X8221268Y-1854809D01*
X8223503Y-1851507D01*
X8226755Y-1849323D01*
X8230666Y-1848561D01*
X10534599Y-1848561D01*
X10551160Y-1847596D01*
X10567263Y-1844903D01*
X10582910Y-1840382D01*
X10597997Y-1834134D01*
X10612272Y-1826260D01*
X10625582Y-1816811D01*
X10637977Y-1805736D01*
X10751972Y-1691741D01*
X10755731Y-1689354D01*
X10774426Y-1682699D01*
X10791647Y-1674520D01*
X10808004Y-1664716D01*
X10823346Y-1653336D01*
X10837468Y-1640484D01*
X10850321Y-1626362D01*
X10861700Y-1611071D01*
X10871504Y-1594713D01*
X10879632Y-1577441D01*
X10886084Y-1559407D01*
X10890707Y-1540967D01*
X10893501Y-1522069D01*
X10894466Y-1503019D01*
X10893501Y-1483969D01*
X10890707Y-1465072D01*
X10886084Y-1446580D01*
X10879632Y-1428546D01*
X10871504Y-1411325D01*
X10861700Y-1394968D01*
X10850321Y-1379626D01*
X10837468Y-1365504D01*
X10823346Y-1352702D01*
X10808004Y-1341323D01*
X10791647Y-1331518D01*
X10774426Y-1323340D01*
X10756442Y-1316939D01*
X10737900Y-1312265D01*
X10719054Y-1309471D01*
X10700004Y-1308557D01*
X10680903Y-1309471D01*
X10662056Y-1312265D01*
X10643514Y-1316939D01*
X10625531Y-1323340D01*
X10608310Y-1331518D01*
X10591952Y-1341323D01*
X10579049Y-1350822D01*
X10575137Y-1352651D01*
X10570819Y-1352651D01*
X10566908Y-1350822D01*
X10554004Y-1341323D01*
X10537647Y-1331518D01*
X10520426Y-1323340D01*
X10502442Y-1316939D01*
X10483900Y-1312265D01*
X10465054Y-1309471D01*
X10446004Y-1308557D01*
X10426903Y-1309471D01*
X10408056Y-1312265D01*
X10389514Y-1316939D01*
X10371531Y-1323340D01*
X10357205Y-1330147D01*
X10353852Y-1331061D01*
X10350398Y-1330807D01*
X10347248Y-1329334D01*
X10341559Y-1325626D01*
X10338663Y-1322679D01*
X10337190Y-1318818D01*
X10337393Y-1314704D01*
X10339171Y-1310944D01*
X10342321Y-1308252D01*
X10351312Y-1303324D01*
X10364622Y-1293876D01*
X10376966Y-1282801D01*
X10783824Y-875944D01*
X10786414Y-874064D01*
X10807700Y-868273D01*
X10824718Y-861872D01*
X10841024Y-853795D01*
X10856366Y-844042D01*
X10870641Y-832764D01*
X10883646Y-820064D01*
X10895330Y-806094D01*
X10905439Y-791006D01*
X10914024Y-774903D01*
X10920882Y-758088D01*
X10925962Y-740613D01*
X10929213Y-722680D01*
X10930636Y-704596D01*
X10930128Y-686409D01*
X10927791Y-668324D01*
X10923625Y-650646D01*
X10917631Y-633476D01*
X10909960Y-616966D01*
X10900562Y-601370D01*
X10889640Y-586841D01*
X10877296Y-573481D01*
X10863630Y-561492D01*
X10848797Y-550926D01*
X10832998Y-541934D01*
X10816285Y-534619D01*
X10798962Y-529132D01*
X10781182Y-525373D01*
X10763097Y-523544D01*
X10744860Y-523544D01*
X10726775Y-525373D01*
X10708995Y-529132D01*
X10691672Y-534619D01*
X10674959Y-541934D01*
X10659160Y-550926D01*
X10644327Y-561492D01*
X10630662Y-573481D01*
X10618317Y-586841D01*
X10607395Y-601370D01*
X10597997Y-616966D01*
X10590326Y-633476D01*
X10584332Y-650646D01*
X10580878Y-665175D01*
X10579862Y-667816D01*
X10578185Y-670052D01*
X10216591Y-1031646D01*
X10213289Y-1033830D01*
X10209428Y-1034592D01*
X10115346Y-1034592D01*
X10111333Y-1033780D01*
X10107930Y-1031392D01*
X10105796Y-1027887D01*
X10105186Y-1023772D01*
X10106304Y-1019810D01*
X10108895Y-1016609D01*
X10112552Y-1014679D01*
X10118394Y-1013002D01*
X10133482Y-1006754D01*
X10147757Y-998880D01*
X10161066Y-989380D01*
X10173411Y-978357D01*
X10275824Y-875944D01*
X10278414Y-874064D01*
X10299700Y-868273D01*
X10316718Y-861872D01*
X10333024Y-853795D01*
X10348366Y-844042D01*
X10362641Y-832764D01*
X10375646Y-820064D01*
X10387330Y-806094D01*
X10397439Y-791006D01*
X10406024Y-774903D01*
X10412882Y-758088D01*
X10417962Y-740613D01*
X10421213Y-722680D01*
X10422636Y-704596D01*
X10422128Y-686409D01*
X10419791Y-668324D01*
X10415625Y-650646D01*
X10409631Y-633476D01*
X10401960Y-616966D01*
X10392562Y-601370D01*
X10381640Y-586841D01*
X10369296Y-573481D01*
X10355630Y-561492D01*
X10340797Y-550926D01*
X10324998Y-541934D01*
X10308285Y-534619D01*
X10290962Y-529132D01*
X10273182Y-525373D01*
X10255097Y-523544D01*
X10236860Y-523544D01*
X10218775Y-525373D01*
X10200995Y-529132D01*
X10183672Y-534619D01*
X10166959Y-541934D01*
X10151160Y-550926D01*
X10136327Y-561492D01*
X10135006Y-562660D01*
X10131094Y-564743D01*
X10126675Y-565048D01*
X10122560Y-563422D01*
X10119563Y-560171D01*
X10118191Y-555955D01*
X10118750Y-551586D01*
X10121087Y-547827D01*
X10187482Y-481380D01*
X10189870Y-479653D01*
X10192664Y-478637D01*
X10205974Y-475894D01*
X10222941Y-470611D01*
X10239248Y-463600D01*
X10254792Y-454964D01*
X10269423Y-444754D01*
X10282885Y-433222D01*
X10295128Y-420319D01*
X10305999Y-406298D01*
X10315448Y-391210D01*
X10323271Y-375208D01*
X10329418Y-358546D01*
X10333888Y-341376D01*
X10336580Y-323799D01*
X10337495Y-305765D01*
X10337495Y-256235D01*
X10336580Y-238252D01*
X10333888Y-220675D01*
X10329418Y-203454D01*
X10323271Y-186842D01*
X10315448Y-170840D01*
X10305999Y-155752D01*
X10295128Y-141732D01*
X10282885Y-128828D01*
X10269423Y-117246D01*
X10254792Y-107086D01*
X10239248Y-98399D01*
X10222941Y-91440D01*
X10205974Y-86156D01*
X10188549Y-82550D01*
X10183774Y-82092D01*
X10180472Y-81127D01*
X10177627Y-79146D01*
X10081666Y16865D01*
X10069271Y27889D01*
X10055961Y37388D01*
X10041686Y45212D01*
X10026599Y51511D01*
X10010952Y55981D01*
X9994849Y58724D01*
X9978288Y59639D01*
X9718243Y59639D01*
X9714331Y60452D01*
X9711029Y62636D01*
X9662668Y110998D01*
X9660483Y114300D01*
X9659670Y118211D01*
X9660483Y122072D01*
X9662668Y125374D01*
X9665970Y127558D01*
X9669830Y128371D01*
X10473588Y128371D01*
X10490149Y129285D01*
X10506252Y132029D01*
X10521899Y136550D01*
X10536986Y142849D01*
X10551261Y150672D01*
X10564571Y160121D01*
X10576966Y171196D01*
X11809374Y1403604D01*
X11811965Y1405534D01*
X11814962Y1406499D01*
X11818162Y1406499D01*
X11837263Y1403451D01*
X11868556Y1400454D01*
X11900154Y1399489D01*
X12299797Y1399489D01*
X12331395Y1400454D01*
X12362688Y1403451D01*
X12393777Y1408328D01*
X12424460Y1415186D01*
X12454636Y1423974D01*
X12484201Y1434642D01*
X12513056Y1447139D01*
X12541097Y1461414D01*
X12568174Y1477416D01*
X12594183Y1495044D01*
X12606121Y1504340D01*
X12609017Y1505915D01*
X12612319Y1506474D01*
X13995501Y1506474D01*
X14012062Y1507388D01*
X14028166Y1510131D01*
X14043812Y1514652D01*
X14058900Y1520901D01*
X14073174Y1528775D01*
X14086484Y1538224D01*
X14098879Y1549298D01*
X14209572Y1660042D01*
X14220647Y1672386D01*
X14230096Y1685696D01*
X14237969Y1699971D01*
X14244218Y1715058D01*
X14248739Y1730705D01*
X14251482Y1746808D01*
X14252397Y1763369D01*
X14252397Y1929485D01*
X14251482Y1946097D01*
X14248739Y1962150D01*
X14244218Y1977847D01*
X14237969Y1992934D01*
X14230096Y2007209D01*
X14220647Y2020519D01*
X14209572Y2032863D01*
X14089380Y2153107D01*
X14076984Y2164181D01*
X14063675Y2173630D01*
X14049400Y2181504D01*
X14038427Y2186127D01*
X14035074Y2188311D01*
X14032839Y2191715D01*
X14032128Y2195728D01*
X14033093Y2199690D01*
X14035481Y2202942D01*
X14041729Y2208631D01*
X14054937Y2223262D01*
X14066672Y2239010D01*
X14076781Y2255977D01*
X14085214Y2273706D01*
X14091818Y2292197D01*
X14092275Y2294077D01*
X13956334Y2294077D01*
X13956334Y2244039D01*
X13955572Y2240127D01*
X13953337Y2236876D01*
X13950035Y2234641D01*
X13946174Y2233879D01*
X13942263Y2234641D01*
X13938961Y2236876D01*
X13786408Y2389428D01*
X13784224Y2392730D01*
X13783411Y2396642D01*
X13784224Y2400554D01*
X13786408Y2403805D01*
X13789710Y2405989D01*
X13793571Y2406751D01*
X13843609Y2406751D01*
X13843609Y2542743D01*
X13841780Y2542286D01*
X13823238Y2535631D01*
X13805458Y2527249D01*
X13788593Y2517140D01*
X13772794Y2505405D01*
X13758214Y2492197D01*
X13745006Y2477617D01*
X13733272Y2461818D01*
X13730325Y2458212D01*
X13727074Y2456484D01*
X13723416Y2456027D01*
X13719860Y2456891D01*
X13716863Y2458974D01*
X12723215Y3452672D01*
X12721031Y3455924D01*
X12720269Y3459784D01*
X12721031Y3463696D01*
X12723215Y3466998D01*
X13902740Y4646523D01*
X13905839Y4648606D01*
X13909446Y4649470D01*
X13919606Y4649978D01*
X13939062Y4652873D01*
X13958163Y4657699D01*
X13976705Y4664303D01*
X13994485Y4672685D01*
X14011351Y4682794D01*
X14027150Y4694529D01*
X14041729Y4707737D01*
X14054937Y4722317D01*
X14066672Y4738116D01*
X14076781Y4755032D01*
X14085214Y4772812D01*
X14091818Y4791303D01*
X14096593Y4810404D01*
X14099489Y4829860D01*
X14100454Y4849520D01*
X14099489Y4869230D01*
X14096593Y4888636D01*
X14091818Y4907788D01*
X14085214Y4926228D01*
X14076781Y4944008D01*
X14066672Y4960924D01*
X14054937Y4976723D01*
X14041729Y4991354D01*
X14027150Y5004562D01*
X14011351Y5016296D01*
X13994485Y5026355D01*
X13976705Y5034788D01*
X13958163Y5041392D01*
X13939062Y5046167D01*
X13919606Y5049062D01*
X13899997Y5050028D01*
X13880338Y5049062D01*
X13860881Y5046167D01*
X13841780Y5041392D01*
X13823238Y5034788D01*
X13805458Y5026355D01*
X13788593Y5016296D01*
X13772794Y5004562D01*
X13758214Y4991354D01*
X13745006Y4976723D01*
X13733272Y4960924D01*
X13723162Y4944008D01*
X13714730Y4926228D01*
X13708126Y4907788D01*
X13703350Y4888636D01*
X13700455Y4869230D01*
X13699947Y4858969D01*
X13699083Y4855362D01*
X13697000Y4852314D01*
X12452959Y3608273D01*
X12449657Y3606088D01*
X12445796Y3605326D01*
X10752124Y3605326D01*
X10735513Y3604361D01*
X10719460Y3601669D01*
X10703763Y3597148D01*
X10688675Y3590950D01*
X10674400Y3583076D01*
X10661091Y3573576D01*
X10648746Y3562553D01*
X10341610Y3255365D01*
X10339476Y3253740D01*
X10336987Y3252724D01*
X10319613Y3248152D01*
X10302697Y3241802D01*
X10286542Y3233674D01*
X10271302Y3224072D01*
X10257129Y3212846D01*
X10253065Y3208832D01*
X10249814Y3206699D01*
X10246004Y3205988D01*
X10242143Y3206699D01*
X10238892Y3208832D01*
X10234828Y3212846D01*
X10220655Y3224072D01*
X10214305Y3228035D01*
X10211460Y3230778D01*
X10209885Y3234385D01*
X10209784Y3238296D01*
X10212476Y3254248D01*
X10213390Y3270859D01*
X10213390Y3720084D01*
X10214152Y3723894D01*
X10216235Y3727196D01*
X10219385Y3729329D01*
X10223144Y3730244D01*
X10226954Y3729685D01*
X10230256Y3727754D01*
X10238790Y3720236D01*
X10249712Y3712921D01*
X10261549Y3707180D01*
X10273995Y3702913D01*
X10286847Y3700373D01*
X10300309Y3699459D01*
X10499648Y3699459D01*
X10513110Y3700373D01*
X10525963Y3702913D01*
X10538409Y3707180D01*
X10550245Y3712921D01*
X10561167Y3720236D01*
X10571022Y3728923D01*
X10579709Y3738778D01*
X10587024Y3749700D01*
X10592816Y3761536D01*
X10597032Y3773982D01*
X10599623Y3786835D01*
X10600486Y3800297D01*
X10600486Y3999636D01*
X10599623Y4013098D01*
X10597032Y4025950D01*
X10592816Y4038396D01*
X10587024Y4050233D01*
X10579709Y4061155D01*
X10571022Y4071061D01*
X10561167Y4079697D01*
X10550245Y4087012D01*
X10538409Y4092803D01*
X10525963Y4097020D01*
X10513110Y4099610D01*
X10499648Y4100474D01*
X10300309Y4100474D01*
X10286847Y4099610D01*
X10273995Y4097020D01*
X10261549Y4092803D01*
X10249712Y4087012D01*
X10238790Y4079697D01*
X10230256Y4072178D01*
X10226954Y4070248D01*
X10223144Y4069689D01*
X10219385Y4070604D01*
X10216235Y4072788D01*
X10214152Y4076039D01*
X10213390Y4079900D01*
X10213390Y4263186D01*
X10212476Y4279798D01*
X10209733Y4295851D01*
X10205212Y4311548D01*
X10198963Y4326636D01*
X10191089Y4340910D01*
X10181640Y4354220D01*
X10170566Y4366615D01*
X10068966Y4468215D01*
X10067340Y4470298D01*
X10066324Y4472787D01*
X10064242Y4480560D01*
X10057739Y4497527D01*
X10049459Y4513732D01*
X10039604Y4528921D01*
X10028174Y4543044D01*
X10024414Y4546854D01*
X10022230Y4550054D01*
X10021468Y4553966D01*
X10022230Y4557877D01*
X10024414Y4561128D01*
X10028174Y4564938D01*
X10039604Y4579061D01*
X10049459Y4594250D01*
X10057739Y4610404D01*
X10064242Y4627422D01*
X10068915Y4644898D01*
X10071862Y4663287D01*
X10072827Y4666335D01*
X10074706Y4668977D01*
X10182148Y4776317D01*
X10185400Y4778552D01*
X10189311Y4779365D01*
X10193223Y4778552D01*
X10196474Y4776317D01*
X10198709Y4773015D01*
X10199471Y4769154D01*
X10199471Y4650384D01*
X10200335Y4636871D01*
X10202926Y4624019D01*
X10207142Y4611522D01*
X10212933Y4599736D01*
X10220248Y4588865D01*
X10228935Y4578908D01*
X10238790Y4570323D01*
X10249712Y4562957D01*
X10261549Y4557115D01*
X10273995Y4552899D01*
X10286847Y4550359D01*
X10300309Y4549444D01*
X10499648Y4549444D01*
X10513110Y4550359D01*
X10525963Y4552899D01*
X10538409Y4557115D01*
X10550245Y4562957D01*
X10561167Y4570323D01*
X10571022Y4578908D01*
X10579709Y4588865D01*
X10587126Y4599940D01*
X10589412Y4602378D01*
X10592308Y4604004D01*
X10595610Y4604512D01*
X11829288Y4604512D01*
X11845899Y4605426D01*
X11861952Y4608118D01*
X11877649Y4612640D01*
X11892737Y4618888D01*
X11907012Y4626762D01*
X11920321Y4636262D01*
X11932666Y4647285D01*
X11956694Y4671364D01*
X11967768Y4683658D01*
X11977217Y4696968D01*
X11985091Y4711242D01*
X11991340Y4726330D01*
X11995861Y4742027D01*
X11998604Y4758080D01*
X11999518Y4774692D01*
X11999518Y4780534D01*
X12000026Y4783785D01*
X12001601Y4786731D01*
X12015063Y4798415D01*
X12023699Y4808321D01*
X12031014Y4819243D01*
X12036806Y4831029D01*
X12041073Y4843475D01*
X12043613Y4856378D01*
X12044476Y4869789D01*
X12044476Y5129123D01*
X12043613Y5142585D01*
X12041073Y5155488D01*
X12036806Y5167934D01*
X12031014Y5179720D01*
X12024766Y5189169D01*
X12023140Y5193131D01*
X12023394Y5197500D01*
X12025477Y5201412D01*
X12028932Y5203952D01*
X12033199Y5204917D01*
X13758418Y5204917D01*
X13762075Y5204206D01*
X13765225Y5202326D01*
X13772794Y5195417D01*
X13788593Y5183682D01*
X13805458Y5173573D01*
X13823238Y5165242D01*
X13841780Y5158536D01*
X13860881Y5153761D01*
X13880338Y5150866D01*
X13899997Y5149900D01*
X13919606Y5150866D01*
X13939062Y5153761D01*
X13958163Y5158536D01*
X13976705Y5165242D01*
X13994485Y5173573D01*
X14011351Y5183682D01*
X14027150Y5195417D01*
X14041729Y5208676D01*
X14054937Y5223205D01*
X14066672Y5239004D01*
X14076781Y5255920D01*
X14085214Y5273700D01*
X14091818Y5292242D01*
X14096593Y5311292D01*
X14099489Y5330799D01*
X14100454Y5350408D01*
X14099489Y5370068D01*
X14096593Y5389524D01*
X14091818Y5408625D01*
X14085214Y5427116D01*
X14076781Y5444896D01*
X14066672Y5461812D01*
X14054937Y5477611D01*
X14041729Y5492191D01*
X14027150Y5505399D01*
X14011351Y5517134D01*
X13994485Y5527243D01*
X13976705Y5535625D01*
X13958163Y5542330D01*
X13939062Y5547055D01*
X13919606Y5549950D01*
X13899997Y5550916D01*
X13880338Y5549950D01*
X13860881Y5547055D01*
X13841780Y5542330D01*
X13823238Y5535625D01*
X13805458Y5527243D01*
X13788593Y5517134D01*
X13772794Y5505399D01*
X13765225Y5498541D01*
X13762075Y5496610D01*
X13758418Y5495950D01*
X11825732Y5495950D01*
X11809171Y5494985D01*
X11793067Y5492242D01*
X11777421Y5487720D01*
X11762333Y5481472D01*
X11748058Y5473598D01*
X11734749Y5464200D01*
X11722354Y5453075D01*
X11497310Y5228031D01*
X11486235Y5215686D01*
X11476786Y5202377D01*
X11473789Y5196890D01*
X11470944Y5193639D01*
X11467033Y5191861D01*
X11462766Y5191861D01*
X11458854Y5193639D01*
X11451844Y5198922D01*
X11435791Y5208473D01*
X11418874Y5216499D01*
X11401298Y5222748D01*
X11383162Y5227320D01*
X11364671Y5230063D01*
X11345976Y5230977D01*
X11327333Y5230063D01*
X11308842Y5227320D01*
X11290706Y5222748D01*
X11273078Y5216499D01*
X11256213Y5208473D01*
X11240160Y5198922D01*
X11225123Y5187746D01*
X11211306Y5175148D01*
X11198758Y5161330D01*
X11190376Y5150104D01*
X11188141Y5147868D01*
X11185347Y5146446D01*
X11182248Y5145938D01*
X10200741Y5145938D01*
X10184180Y5145024D01*
X10168077Y5142280D01*
X10152430Y5137759D01*
X10137343Y5131562D01*
X10123068Y5123688D01*
X10109758Y5114188D01*
X10097363Y5103164D01*
X9850678Y4856429D01*
X9848088Y4854600D01*
X9845090Y4853635D01*
X9826650Y4850688D01*
X9809124Y4845964D01*
X9792157Y4839462D01*
X9776002Y4831232D01*
X9771227Y4828184D01*
X9768535Y4826914D01*
X9765690Y4826457D01*
X9439605Y4826457D01*
X9435693Y4827270D01*
X9432391Y4829454D01*
X8994698Y5267147D01*
X8992463Y5270601D01*
X8991752Y5274665D01*
X8992717Y5278678D01*
X8995206Y5281980D01*
X8998762Y5284012D01*
X9002877Y5284470D01*
X9264853Y5258816D01*
X9268663Y5258663D01*
X10286034Y5284165D01*
X10882477Y5334914D01*
X10886084Y5335422D01*
X11509654Y5462778D01*
X12664897Y5767476D01*
X12670688Y5769660D01*
X13165175Y6023254D01*
X13170814Y6027064D01*
X13173963Y6030163D01*
X13313206Y6194755D01*
X13316559Y6199835D01*
X13318591Y6205016D01*
X13319506Y6211062D01*
X13325856Y6398361D01*
X13370102Y6779818D01*
X13370255Y6783781D01*
X13369950Y6787438D01*
X13344651Y6951776D01*
X13343534Y6956501D01*
X13341756Y6960616D01*
X13189762Y7252004D01*
X13187070Y7256322D01*
X12919659Y7612735D01*
X12449149Y8172246D01*
X12067895Y8591550D01*
X11713210Y8971788D01*
X11602212Y9133230D01*
X11600688Y9136684D01*
X11600484Y9140393D01*
X11601704Y9143949D01*
X11604091Y9146844D01*
X11607342Y9148673D01*
X11671300Y9169958D01*
X11674144Y9170466D01*
X11998401Y9182912D01*
X12389662Y9157614D01*
X12995198Y9074353D01*
X13387120Y8955684D01*
X14208302Y8639759D01*
X14209979Y8638946D01*
X14993924Y8158429D01*
X15550540Y7740903D01*
X16183356Y7133285D01*
X16651427Y6589166D01*
X17043400Y5994857D01*
X17511725Y5095900D01*
X17802555Y4235805D01*
X17928742Y3616909D01*
X17953939Y3023717D01*
X17916144Y2470048D01*
X17915890Y2468321D01*
X17764404Y1850034D01*
X17613020Y1446479D01*
X17412309Y1057656D01*
X17411293Y1056081D01*
X17096333Y652983D01*
X16809008Y353161D01*
X16806773Y351434D01*
X16680129Y277520D01*
X16676268Y276250D01*
X16672255Y276504D01*
X16668648Y278384D01*
X16632783Y307035D01*
X16630802Y309168D01*
X16629532Y311759D01*
X16569486Y491794D01*
X16567912Y495604D01*
X16565981Y498957D01*
X16401338Y739495D01*
X16397681Y743915D01*
X16093490Y1048105D01*
X16089731Y1051306D01*
X15633242Y1380998D01*
X15628213Y1383944D01*
X15247975Y1561388D01*
X15244216Y1562862D01*
X15240609Y1563674D01*
X15012974Y1601622D01*
X15006319Y1601927D01*
X15000274Y1600911D01*
X14696440Y1512265D01*
X14692426Y1510741D01*
X14688972Y1508861D01*
X14333982Y1280668D01*
X14330680Y1278178D01*
X13658088Y707136D01*
X13655294Y704494D01*
X13223900Y235000D01*
X13221665Y232257D01*
X12853771Y-275183D01*
X12851231Y-279298D01*
X12572187Y-824687D01*
X12570510Y-828649D01*
X12443714Y-1196289D01*
X12442647Y-1200607D01*
X12442190Y-1204620D01*
X12416790Y-1966214D01*
X12416790Y-2919222D01*
X12417196Y-2924149D01*
X12480544Y-3316935D01*
X12481915Y-3322421D01*
X12622530Y-3718255D01*
X12812725Y-4123994D01*
X12815671Y-4128973D01*
X13043763Y-4445711D01*
X13046557Y-4449114D01*
X13363498Y-4778756D01*
X13367816Y-4782464D01*
X13633754Y-4972456D01*
X13638784Y-4975352D01*
X13968222Y-5127396D01*
X13972387Y-5128971D01*
X14314576Y-5230368D01*
X14318335Y-5231180D01*
X14321840Y-5231536D01*
X14752828Y-5244236D01*
X14758720Y-5243830D01*
X15227655Y-5167782D01*
X15233650Y-5166156D01*
X15704667Y-4987899D01*
X16292677Y-4722672D01*
X16296894Y-4721809D01*
X16301059Y-4722672D01*
X16304513Y-4725314D01*
X16306596Y-4729022D01*
X16306901Y-4733391D01*
X16239794Y-5213858D01*
X16136264Y-5615533D01*
X16135096Y-5618327D01*
X15915335Y-5975858D01*
X15913862Y-5977686D01*
X15652242Y-6239357D01*
X15249855Y-6528714D01*
X15248128Y-6529730D01*
X14528241Y-6858050D01*
X13679779Y-7136587D01*
X12475260Y-7428179D01*
X11105845Y-7656372D01*
G37*

%LPC*%
G36*
X12743637Y-6817207D02*
G01*
X12786969Y-6817207D01*
X12800431Y-6816344D01*
X12813284Y-6813753D01*
X12825730Y-6809587D01*
X12837566Y-6803745D01*
X12848488Y-6796430D01*
X12858343Y-6787794D01*
X12867030Y-6777888D01*
X12874345Y-6766915D01*
X12880136Y-6755130D01*
X12884353Y-6742734D01*
X12886944Y-6729780D01*
X12887807Y-6716369D01*
X12887807Y-6673088D01*
X12743637Y-6673088D01*
G37*
G36*
X4704537Y-6817207D02*
G01*
X4747869Y-6817207D01*
X4761331Y-6816344D01*
X4774184Y-6813753D01*
X4786630Y-6809587D01*
X4798466Y-6803745D01*
X4809388Y-6796430D01*
X4819243Y-6787794D01*
X4827930Y-6777888D01*
X4835245Y-6766915D01*
X4841036Y-6755130D01*
X4845253Y-6742734D01*
X4847844Y-6729780D01*
X4848707Y-6716369D01*
X4848707Y-6673088D01*
X4704537Y-6673088D01*
G37*
G36*
X4548530Y-6817207D02*
G01*
X4591862Y-6817207D01*
X4591862Y-6673088D01*
X4447692Y-6673088D01*
X4447692Y-6716369D01*
X4448556Y-6729780D01*
X4451146Y-6742734D01*
X4455363Y-6755130D01*
X4461154Y-6766915D01*
X4468469Y-6777888D01*
X4477156Y-6787794D01*
X4487011Y-6796430D01*
X4497933Y-6803745D01*
X4509770Y-6809587D01*
X4522216Y-6813753D01*
X4535068Y-6816344D01*
G37*
G36*
X12587630Y-6817207D02*
G01*
X12630962Y-6817207D01*
X12630962Y-6673088D01*
X12486792Y-6673088D01*
X12486792Y-6716369D01*
X12487656Y-6729780D01*
X12490246Y-6742734D01*
X12494463Y-6755130D01*
X12500254Y-6766915D01*
X12507569Y-6777888D01*
X12516256Y-6787794D01*
X12526111Y-6796430D01*
X12537033Y-6803745D01*
X12548870Y-6809587D01*
X12561316Y-6813753D01*
X12574168Y-6816344D01*
G37*
G36*
X7048550Y-6817207D02*
G01*
X7091832Y-6817207D01*
X7091832Y-6673088D01*
X6947712Y-6673088D01*
X6947712Y-6716369D01*
X6948576Y-6729780D01*
X6951116Y-6742734D01*
X6955383Y-6755130D01*
X6961174Y-6766915D01*
X6968490Y-6777888D01*
X6977125Y-6787794D01*
X6987031Y-6796430D01*
X6997953Y-6803745D01*
X7009739Y-6809587D01*
X7022185Y-6813753D01*
X7035088Y-6816344D01*
G37*
G36*
X14048536Y-6817207D02*
G01*
X14091818Y-6817207D01*
X14091818Y-6673088D01*
X13947698Y-6673088D01*
X13947698Y-6716369D01*
X13948562Y-6729780D01*
X13951102Y-6742734D01*
X13955369Y-6755130D01*
X13961160Y-6766915D01*
X13968476Y-6777888D01*
X13977112Y-6787794D01*
X13987018Y-6796430D01*
X13997940Y-6803745D01*
X14009725Y-6809587D01*
X14022171Y-6813753D01*
X14035074Y-6816344D01*
G37*
G36*
X14204543Y-6817207D02*
G01*
X14247825Y-6817207D01*
X14261287Y-6816344D01*
X14274190Y-6813753D01*
X14286636Y-6809587D01*
X14298422Y-6803745D01*
X14309344Y-6796430D01*
X14319250Y-6787794D01*
X14327886Y-6777888D01*
X14335201Y-6766915D01*
X14341043Y-6755130D01*
X14345259Y-6742734D01*
X14347799Y-6729780D01*
X14348713Y-6716369D01*
X14348713Y-6673088D01*
X14204543Y-6673088D01*
G37*
G36*
X7204557Y-6817207D02*
G01*
X7247839Y-6817207D01*
X7261301Y-6816344D01*
X7274204Y-6813753D01*
X7286650Y-6809587D01*
X7298436Y-6803745D01*
X7309358Y-6796430D01*
X7319264Y-6787794D01*
X7327900Y-6777888D01*
X7335215Y-6766915D01*
X7341057Y-6755130D01*
X7345273Y-6742734D01*
X7347813Y-6729780D01*
X7348728Y-6716369D01*
X7348728Y-6673088D01*
X7204557Y-6673088D01*
G37*
G36*
X11702237Y-6817156D02*
G01*
X11745569Y-6817156D01*
X11759031Y-6816344D01*
X11771884Y-6813753D01*
X11784330Y-6809536D01*
X11796166Y-6803745D01*
X11807088Y-6796430D01*
X11816943Y-6787794D01*
X11825630Y-6777888D01*
X11832945Y-6766915D01*
X11838736Y-6755130D01*
X11842953Y-6742734D01*
X11845544Y-6729780D01*
X11846407Y-6716369D01*
X11846407Y-6673088D01*
X11702237Y-6673088D01*
G37*
G36*
X6072530Y-6817156D02*
G01*
X6115862Y-6817156D01*
X6115862Y-6673088D01*
X5971692Y-6673088D01*
X5971692Y-6716369D01*
X5972556Y-6729780D01*
X5975146Y-6742734D01*
X5979363Y-6755130D01*
X5985154Y-6766915D01*
X5992469Y-6777888D01*
X6001156Y-6787794D01*
X6011011Y-6796430D01*
X6021933Y-6803745D01*
X6033770Y-6809536D01*
X6046216Y-6813753D01*
X6059068Y-6816344D01*
G37*
G36*
X6228537Y-6817156D02*
G01*
X6271869Y-6817156D01*
X6285331Y-6816344D01*
X6298184Y-6813753D01*
X6310630Y-6809536D01*
X6322466Y-6803745D01*
X6333388Y-6796430D01*
X6343243Y-6787794D01*
X6351930Y-6777888D01*
X6359245Y-6766915D01*
X6365036Y-6755130D01*
X6369253Y-6742734D01*
X6371844Y-6729780D01*
X6372707Y-6716369D01*
X6372707Y-6673088D01*
X6228537Y-6673088D01*
G37*
G36*
X11546230Y-6817156D02*
G01*
X11589562Y-6817156D01*
X11589562Y-6673088D01*
X11445392Y-6673088D01*
X11445392Y-6716369D01*
X11446256Y-6729780D01*
X11448846Y-6742734D01*
X11453063Y-6755130D01*
X11458854Y-6766915D01*
X11466169Y-6777888D01*
X11474856Y-6787794D01*
X11484711Y-6796430D01*
X11495633Y-6803745D01*
X11507470Y-6809536D01*
X11519916Y-6813753D01*
X11532768Y-6816344D01*
G37*
G36*
X12486792Y-6560312D02*
G01*
X12630962Y-6560312D01*
X12630962Y-6416192D01*
X12587630Y-6416192D01*
X12574168Y-6417106D01*
X12561316Y-6419596D01*
X12548870Y-6423914D01*
X12537033Y-6429705D01*
X12526111Y-6437020D01*
X12516256Y-6445656D01*
X12507569Y-6455562D01*
X12500254Y-6466484D01*
X12494463Y-6478219D01*
X12490246Y-6490716D01*
X12487656Y-6503619D01*
X12486792Y-6517081D01*
G37*
G36*
X11702237Y-6560312D02*
G01*
X11846407Y-6560312D01*
X11846407Y-6517030D01*
X11845544Y-6503619D01*
X11842953Y-6490716D01*
X11838736Y-6478219D01*
X11832945Y-6466484D01*
X11825630Y-6455562D01*
X11816943Y-6445656D01*
X11807088Y-6437020D01*
X11796166Y-6429705D01*
X11784330Y-6423863D01*
X11771884Y-6419596D01*
X11759031Y-6417106D01*
X11745569Y-6416192D01*
X11702237Y-6416192D01*
G37*
G36*
X11445392Y-6560312D02*
G01*
X11589562Y-6560312D01*
X11589562Y-6416192D01*
X11546230Y-6416192D01*
X11532768Y-6417106D01*
X11519916Y-6419596D01*
X11507470Y-6423863D01*
X11495633Y-6429705D01*
X11484711Y-6437020D01*
X11474856Y-6445656D01*
X11466169Y-6455562D01*
X11458854Y-6466484D01*
X11453063Y-6478219D01*
X11448846Y-6490716D01*
X11446256Y-6503619D01*
X11445392Y-6517030D01*
G37*
G36*
X6228537Y-6560312D02*
G01*
X6372707Y-6560312D01*
X6372707Y-6517030D01*
X6371844Y-6503619D01*
X6369253Y-6490716D01*
X6365036Y-6478219D01*
X6359245Y-6466484D01*
X6351930Y-6455562D01*
X6343243Y-6445656D01*
X6333388Y-6437020D01*
X6322466Y-6429705D01*
X6310630Y-6423863D01*
X6298184Y-6419596D01*
X6285331Y-6417106D01*
X6271869Y-6416192D01*
X6228537Y-6416192D01*
G37*
G36*
X12743637Y-6560312D02*
G01*
X12887807Y-6560312D01*
X12887807Y-6517081D01*
X12886944Y-6503619D01*
X12884353Y-6490716D01*
X12880136Y-6478219D01*
X12874345Y-6466484D01*
X12867030Y-6455562D01*
X12858343Y-6445656D01*
X12848488Y-6437020D01*
X12837566Y-6429705D01*
X12825730Y-6423914D01*
X12813284Y-6419596D01*
X12800431Y-6417106D01*
X12786969Y-6416192D01*
X12743637Y-6416192D01*
G37*
G36*
X4447692Y-6560312D02*
G01*
X4591862Y-6560312D01*
X4591862Y-6416192D01*
X4548530Y-6416192D01*
X4535068Y-6417106D01*
X4522216Y-6419596D01*
X4509770Y-6423914D01*
X4497933Y-6429705D01*
X4487011Y-6437020D01*
X4477156Y-6445656D01*
X4468469Y-6455562D01*
X4461154Y-6466484D01*
X4455363Y-6478219D01*
X4451146Y-6490716D01*
X4448556Y-6503619D01*
X4447692Y-6517081D01*
G37*
G36*
X4704537Y-6560312D02*
G01*
X4848707Y-6560312D01*
X4848707Y-6517081D01*
X4847844Y-6503619D01*
X4845253Y-6490716D01*
X4841036Y-6478219D01*
X4835245Y-6466484D01*
X4827930Y-6455562D01*
X4819243Y-6445656D01*
X4809388Y-6437020D01*
X4798466Y-6429705D01*
X4786630Y-6423914D01*
X4774184Y-6419596D01*
X4761331Y-6417106D01*
X4747869Y-6416192D01*
X4704537Y-6416192D01*
G37*
G36*
X6947712Y-6560312D02*
G01*
X7091832Y-6560312D01*
X7091832Y-6416192D01*
X7048550Y-6416192D01*
X7035088Y-6417106D01*
X7022185Y-6419596D01*
X7009739Y-6423914D01*
X6997953Y-6429705D01*
X6987031Y-6437020D01*
X6977125Y-6445656D01*
X6968490Y-6455562D01*
X6961174Y-6466484D01*
X6955383Y-6478219D01*
X6951116Y-6490716D01*
X6948576Y-6503619D01*
X6947712Y-6517081D01*
G37*
G36*
X7204557Y-6560312D02*
G01*
X7348728Y-6560312D01*
X7348728Y-6517081D01*
X7347813Y-6503619D01*
X7345273Y-6490716D01*
X7341057Y-6478219D01*
X7335215Y-6466484D01*
X7327900Y-6455562D01*
X7319264Y-6445656D01*
X7309358Y-6437020D01*
X7298436Y-6429705D01*
X7286650Y-6423914D01*
X7274204Y-6419596D01*
X7261301Y-6417106D01*
X7247839Y-6416192D01*
X7204557Y-6416192D01*
G37*
G36*
X14204543Y-6560312D02*
G01*
X14348713Y-6560312D01*
X14348713Y-6517081D01*
X14347799Y-6503619D01*
X14345259Y-6490716D01*
X14341043Y-6478219D01*
X14335201Y-6466484D01*
X14327886Y-6455562D01*
X14319250Y-6445656D01*
X14309344Y-6437020D01*
X14298422Y-6429705D01*
X14286636Y-6423914D01*
X14274190Y-6419596D01*
X14261287Y-6417106D01*
X14247825Y-6416192D01*
X14204543Y-6416192D01*
G37*
G36*
X13947698Y-6560312D02*
G01*
X14091818Y-6560312D01*
X14091818Y-6416192D01*
X14048536Y-6416192D01*
X14035074Y-6417106D01*
X14022171Y-6419596D01*
X14009725Y-6423914D01*
X13997940Y-6429705D01*
X13987018Y-6437020D01*
X13977112Y-6445656D01*
X13968476Y-6455562D01*
X13961160Y-6466484D01*
X13955369Y-6478219D01*
X13951102Y-6490716D01*
X13948562Y-6503619D01*
X13947698Y-6517081D01*
G37*
G36*
X3892600Y-6325819D02*
G01*
X3925976Y-6325260D01*
X3959199Y-6322568D01*
X3992219Y-6317742D01*
X4024884Y-6310833D01*
X4057040Y-6301892D01*
X4088536Y-6290919D01*
X4119321Y-6277914D01*
X4149191Y-6263132D01*
X4178046Y-6246368D01*
X4205782Y-6227826D01*
X4232300Y-6207607D01*
X4257497Y-6185662D01*
X4281271Y-6162192D01*
X4303471Y-6137300D01*
X4324045Y-6111036D01*
X4342892Y-6083503D01*
X4360011Y-6054852D01*
X4375251Y-6025184D01*
X4388561Y-5994603D01*
X4399940Y-5963208D01*
X4409287Y-5931103D01*
X4416552Y-5898591D01*
X4421784Y-5865672D01*
X4424883Y-5832449D01*
X4425899Y-5799074D01*
X4424781Y-5765698D01*
X4421530Y-5732526D01*
X4416196Y-5699556D01*
X4408779Y-5667044D01*
X4399330Y-5635040D01*
X4387850Y-5603697D01*
X4374438Y-5573064D01*
X4359097Y-5543499D01*
X4341876Y-5514898D01*
X4322927Y-5487466D01*
X4302252Y-5461203D01*
X4279950Y-5436362D01*
X4256125Y-5413044D01*
X4230878Y-5391251D01*
X4204258Y-5371084D01*
X4176471Y-5352643D01*
X4147515Y-5336032D01*
X4117594Y-5321249D01*
X4086809Y-5308346D01*
X4055262Y-5297576D01*
X4023055Y-5288737D01*
X3990390Y-5281930D01*
X3957320Y-5277256D01*
X3924096Y-5274614D01*
X3890721Y-5274157D01*
X3857396Y-5275834D01*
X3824224Y-5279542D01*
X3791356Y-5285435D01*
X3758946Y-5293410D01*
X3727094Y-5303367D01*
X3695954Y-5315305D01*
X3665626Y-5329224D01*
X3636213Y-5345023D01*
X3607917Y-5362702D01*
X3580739Y-5382107D01*
X3554882Y-5403138D01*
X3530396Y-5425897D01*
X3507435Y-5450027D01*
X3486048Y-5475681D01*
X3466287Y-5502554D01*
X3448304Y-5530646D01*
X3432149Y-5559856D01*
X3417824Y-5590032D01*
X3405479Y-5620969D01*
X3395116Y-5652719D01*
X3386836Y-5685078D01*
X3380536Y-5717844D01*
X3376371Y-5750915D01*
X3374339Y-5784291D01*
X3374390Y-5817666D01*
X3376574Y-5850940D01*
X3380841Y-5884011D01*
X3387242Y-5916777D01*
X3395675Y-5949086D01*
X3406140Y-5980785D01*
X3418586Y-6011722D01*
X3433013Y-6041847D01*
X3449269Y-6070955D01*
X3467354Y-6098997D01*
X3487216Y-6125819D01*
X3508705Y-6151372D01*
X3531768Y-6175400D01*
X3556304Y-6198057D01*
X3582263Y-6219088D01*
X3609492Y-6238392D01*
X3637838Y-6255918D01*
X3667302Y-6271564D01*
X3697681Y-6285433D01*
X3728872Y-6297269D01*
X3760774Y-6307124D01*
X3793185Y-6314948D01*
X3826103Y-6320688D01*
X3859276Y-6324346D01*
G37*
G36*
X15292578Y-6325819D02*
G01*
X15325953Y-6325260D01*
X15359176Y-6322568D01*
X15392196Y-6317742D01*
X15424861Y-6310833D01*
X15457017Y-6301892D01*
X15488513Y-6290919D01*
X15519298Y-6277914D01*
X15549168Y-6263132D01*
X15578023Y-6246368D01*
X15605760Y-6227826D01*
X15632277Y-6207607D01*
X15657474Y-6185662D01*
X15681248Y-6162192D01*
X15703448Y-6137300D01*
X15724022Y-6111036D01*
X15742869Y-6083503D01*
X15759988Y-6054852D01*
X15775228Y-6025184D01*
X15788538Y-5994603D01*
X15799917Y-5963208D01*
X15809264Y-5931103D01*
X15816529Y-5898591D01*
X15821761Y-5865672D01*
X15824860Y-5832449D01*
X15825876Y-5799074D01*
X15824758Y-5765698D01*
X15821507Y-5732526D01*
X15816173Y-5699556D01*
X15808756Y-5667044D01*
X15799307Y-5635040D01*
X15787827Y-5603697D01*
X15774416Y-5573064D01*
X15759074Y-5543499D01*
X15741853Y-5514898D01*
X15722904Y-5487466D01*
X15702229Y-5461203D01*
X15679928Y-5436362D01*
X15656102Y-5413044D01*
X15630855Y-5391251D01*
X15604236Y-5371084D01*
X15576448Y-5352643D01*
X15547492Y-5336032D01*
X15517571Y-5321249D01*
X15486786Y-5308346D01*
X15455239Y-5297576D01*
X15423032Y-5288737D01*
X15390368Y-5281930D01*
X15357297Y-5277256D01*
X15324074Y-5274614D01*
X15290698Y-5274157D01*
X15257373Y-5275834D01*
X15224201Y-5279542D01*
X15191333Y-5285435D01*
X15158923Y-5293410D01*
X15127071Y-5303367D01*
X15095931Y-5315305D01*
X15065603Y-5329224D01*
X15036190Y-5345023D01*
X15007894Y-5362702D01*
X14980716Y-5382107D01*
X14954859Y-5403138D01*
X14930374Y-5425897D01*
X14907412Y-5450027D01*
X14886025Y-5475681D01*
X14866264Y-5502554D01*
X14848281Y-5530646D01*
X14832126Y-5559856D01*
X14817801Y-5590032D01*
X14805456Y-5620969D01*
X14795093Y-5652719D01*
X14786813Y-5685078D01*
X14780513Y-5717844D01*
X14776348Y-5750915D01*
X14774316Y-5784291D01*
X14774367Y-5817666D01*
X14776551Y-5850940D01*
X14780818Y-5884011D01*
X14787219Y-5916777D01*
X14795652Y-5949086D01*
X14806117Y-5980785D01*
X14818563Y-6011722D01*
X14832990Y-6041847D01*
X14849246Y-6070955D01*
X14867331Y-6098997D01*
X14887194Y-6125819D01*
X14908682Y-6151372D01*
X14931745Y-6175400D01*
X14956282Y-6198057D01*
X14982240Y-6219088D01*
X15009469Y-6238392D01*
X15037816Y-6255918D01*
X15067280Y-6271564D01*
X15097658Y-6285433D01*
X15128849Y-6297269D01*
X15160751Y-6307124D01*
X15193162Y-6314948D01*
X15226080Y-6320688D01*
X15259253Y-6324346D01*
G37*
G36*
X12406325Y-5588863D02*
G01*
X12424460Y-5584799D01*
X12454636Y-5576011D01*
X12484201Y-5565394D01*
X12513056Y-5552897D01*
X12541097Y-5538622D01*
X12568174Y-5522620D01*
X12594183Y-5504942D01*
X12619024Y-5485638D01*
X12642596Y-5464860D01*
X12664846Y-5442661D01*
X12685623Y-5419039D01*
X12704876Y-5394198D01*
X12722555Y-5368188D01*
X12738557Y-5341061D01*
X12752832Y-5313121D01*
X12755778Y-5306364D01*
X12406325Y-5306364D01*
G37*
G36*
X6493662Y-5588863D02*
G01*
X6493662Y-5306364D01*
X6144209Y-5306364D01*
X6147104Y-5313121D01*
X6161379Y-5341112D01*
X6177381Y-5368188D01*
X6195060Y-5394198D01*
X6214364Y-5419039D01*
X6235141Y-5442661D01*
X6257391Y-5464860D01*
X6280962Y-5485638D01*
X6305804Y-5504942D01*
X6331813Y-5522620D01*
X6358890Y-5538622D01*
X6386880Y-5552897D01*
X6415735Y-5565394D01*
X6445300Y-5576011D01*
X6475526Y-5584799D01*
G37*
G36*
X7106361Y-4893614D02*
G01*
X7455763Y-4893614D01*
X7452868Y-4886909D01*
X7438593Y-4858918D01*
X7422591Y-4831842D01*
X7404912Y-4805832D01*
X7385608Y-4780991D01*
X7364831Y-4757369D01*
X7342581Y-4735169D01*
X7319009Y-4714392D01*
X7294168Y-4695088D01*
X7268159Y-4677460D01*
X7241082Y-4661458D01*
X7213092Y-4647184D01*
X7184237Y-4634687D01*
X7154672Y-4624019D01*
X7124446Y-4615230D01*
X7106361Y-4611217D01*
G37*
G36*
X6144209Y-4893614D02*
G01*
X6493662Y-4893614D01*
X6493662Y-4611217D01*
X6475526Y-4615230D01*
X6445300Y-4624019D01*
X6415735Y-4634687D01*
X6386880Y-4647184D01*
X6358890Y-4661458D01*
X6331813Y-4677460D01*
X6305804Y-4695088D01*
X6280962Y-4714392D01*
X6257391Y-4735169D01*
X6235141Y-4757369D01*
X6214364Y-4780991D01*
X6195060Y-4805832D01*
X6177381Y-4831842D01*
X6161379Y-4858918D01*
X6147104Y-4886909D01*
G37*
G36*
X11444173Y-4893614D02*
G01*
X11793626Y-4893614D01*
X11793626Y-4611166D01*
X11775490Y-4615230D01*
X11745315Y-4624019D01*
X11715750Y-4634636D01*
X11686895Y-4647133D01*
X11658854Y-4661408D01*
X11631777Y-4677410D01*
X11605768Y-4695088D01*
X11580926Y-4714392D01*
X11557355Y-4735169D01*
X11535105Y-4757369D01*
X11514328Y-4780991D01*
X11495074Y-4805832D01*
X11477396Y-4831842D01*
X11461394Y-4858918D01*
X11447119Y-4886909D01*
G37*
G36*
X12406325Y-4893614D02*
G01*
X12755778Y-4893614D01*
X12752832Y-4886909D01*
X12738557Y-4858918D01*
X12722555Y-4831842D01*
X12704876Y-4805832D01*
X12685623Y-4780991D01*
X12664846Y-4757369D01*
X12642596Y-4735169D01*
X12619024Y-4714392D01*
X12594183Y-4695088D01*
X12568174Y-4677410D01*
X12541097Y-4661408D01*
X12513056Y-4647133D01*
X12484201Y-4634636D01*
X12454636Y-4624019D01*
X12424460Y-4615230D01*
X12406325Y-4611166D01*
G37*
G36*
X5056327Y1657197D02*
G01*
X5058206Y1657654D01*
X5076698Y1664309D01*
X5094478Y1672742D01*
X5111394Y1682800D01*
X5127193Y1694535D01*
X5141772Y1707743D01*
X5154980Y1722323D01*
X5166715Y1738172D01*
X5176824Y1755038D01*
X5185206Y1772869D01*
X5191861Y1791309D01*
X5192318Y1793189D01*
X5056327Y1793189D01*
G37*
G36*
X4943652Y1657197D02*
G01*
X4943652Y1793189D01*
X4807661Y1793189D01*
X4808118Y1791309D01*
X4814773Y1772869D01*
X4823155Y1755038D01*
X4833264Y1738172D01*
X4844999Y1722323D01*
X4858207Y1707743D01*
X4872786Y1694535D01*
X4888585Y1682800D01*
X4905502Y1672742D01*
X4923282Y1664309D01*
X4941773Y1657654D01*
G37*
G36*
X14600580Y1874062D02*
G01*
X17099330Y1874062D01*
X17105833Y1874926D01*
X17111370Y1876958D01*
X17116501Y1880514D01*
X17119549Y1883511D01*
X17122190Y1887169D01*
X17124680Y1892655D01*
X17125899Y1900123D01*
X17125899Y5399328D01*
X17125086Y5405831D01*
X17123003Y5411419D01*
X17119447Y5416499D01*
X17116399Y5419547D01*
X17112792Y5422188D01*
X17107255Y5424678D01*
X17099788Y5425846D01*
X14600580Y5425846D01*
X14594078Y5425135D01*
X14588540Y5423001D01*
X14583410Y5419445D01*
X14580362Y5416397D01*
X14577720Y5412790D01*
X14575231Y5407253D01*
X14574062Y5399786D01*
X14574062Y1900580D01*
X14574875Y1894078D01*
X14576958Y1888540D01*
X14580514Y1883410D01*
X14583410Y1880514D01*
X14588540Y1876958D01*
X14594078Y1874926D01*
G37*
G36*
X5056327Y1905863D02*
G01*
X5192318Y1905863D01*
X5191861Y1907743D01*
X5185206Y1926234D01*
X5176824Y1944014D01*
X5166715Y1960930D01*
X5154980Y1976729D01*
X5141772Y1991309D01*
X5127193Y2004517D01*
X5111394Y2016252D01*
X5094478Y2026412D01*
X5076698Y2034743D01*
X5058206Y2041398D01*
X5056327Y2041855D01*
G37*
G36*
X4807661Y1905863D02*
G01*
X4943652Y1905863D01*
X4943652Y2041855D01*
X4941773Y2041398D01*
X4923282Y2034743D01*
X4905502Y2026412D01*
X4888585Y2016252D01*
X4872786Y2004517D01*
X4858207Y1991309D01*
X4844999Y1976729D01*
X4833264Y1960930D01*
X4823155Y1944014D01*
X4814773Y1926234D01*
X4808118Y1907743D01*
G37*
G36*
X1851507Y2032863D02*
G01*
X4352188Y2032863D01*
X4358690Y2033727D01*
X4364228Y2035759D01*
X4369358Y2039315D01*
X4372406Y2042312D01*
X4375048Y2045919D01*
X4377537Y2051456D01*
X4378706Y2058924D01*
X4378706Y5550662D01*
X4377893Y5557164D01*
X4375810Y5562701D01*
X4372254Y5567832D01*
X4369257Y5570880D01*
X4365650Y5573572D01*
X4360113Y5576062D01*
X4352645Y5577179D01*
X1851507Y5577179D01*
X1845005Y5576366D01*
X1839468Y5574284D01*
X1834337Y5570728D01*
X1831289Y5567730D01*
X1828647Y5564124D01*
X1826158Y5558586D01*
X1824989Y5551119D01*
X1824989Y2059381D01*
X1825802Y2052878D01*
X1827885Y2047392D01*
X1831441Y2042210D01*
X1834337Y2039315D01*
X1839468Y2035759D01*
X1845005Y2033727D01*
G37*
G36*
X13956334Y2406751D02*
G01*
X14092275Y2406751D01*
X14091818Y2408631D01*
X14085214Y2427122D01*
X14076781Y2444953D01*
X14066672Y2461818D01*
X14054937Y2477617D01*
X14041729Y2492197D01*
X14027150Y2505405D01*
X14011351Y2517140D01*
X13994485Y2527249D01*
X13976705Y2535631D01*
X13958163Y2542286D01*
X13956334Y2542743D01*
G37*

%LPD*%
D10*
X9018981Y-3737990D02*
G01*
X8823909Y-3737990D01*
X8197189Y-3611549D02*
G01*
X8697468Y-3611549D01*
X8823909Y-3737990D01*
X10126751Y-2992170D02*
G01*
X10245979Y-2872943D01*
X10245979Y-2802991D01*
X8672982Y-3080994D02*
G01*
X8846362Y-2907614D01*
X9248343Y-2907614D01*
X9332899Y-2992170D01*
X10126751Y-2992170D01*
X10126751Y-2992170D02*
G01*
X10126751Y-3262579D01*
X10835716Y-3971544D01*
X8218982Y3594709D02*
G01*
X9896068Y3594709D01*
X4999989Y5350433D02*
G01*
X4797221Y5147665D01*
X4797221Y4759985D01*
X5962497Y3594709D01*
X8218982Y3594709D01*
X8218982Y3080994D02*
G01*
X8218982Y3594709D01*
X12510261Y3459835D02*
G01*
X12510236Y3459835D01*
X10751820Y3459835D01*
X10372979Y3080994D01*
X12099975Y1899996D02*
G01*
X12347981Y1651990D01*
X13995781Y1651990D01*
X14106906Y1763115D01*
X14106906Y1929815D01*
X13986281Y2050440D01*
X13919631Y2050440D01*
X12510261Y3459835D01*
X13899972Y4849545D02*
G01*
X12510261Y3459835D01*
X12099975Y1899996D02*
G01*
X10473867Y273888D01*
X9582657Y273888D01*
X9399981Y456564D01*
X9399981Y480999D01*
X9018981Y-4499990D02*
G01*
X8998940Y-4499990D01*
X8175066Y-5323865D01*
X8175066Y-5972987D01*
X10624896Y-6226987D02*
G01*
X10267746Y-6226987D01*
X9384715Y-5343956D01*
X9384715Y-4830445D01*
X9054261Y-4499990D01*
X9018981Y-4499990D01*
X11175060Y-6226987D02*
G01*
X11175060Y-6335039D01*
X10996142Y-6513957D01*
X10795507Y-6513957D01*
X10624896Y-6343345D01*
X10624896Y-6226987D01*
X13124891Y-6226987D02*
G01*
X11175060Y-6226987D01*
X9780981Y-4753990D02*
G01*
X11753951Y-4753990D01*
X12099975Y-5100015D01*
X8926982Y-3080994D02*
G01*
X9415246Y-3569258D01*
X9415246Y-3915537D01*
X9745700Y-4245990D01*
X9780981Y-4245990D01*
X8472982Y2318994D02*
G01*
X8472982Y2295270D01*
X8297621Y2119909D01*
X7923758Y2119909D01*
X7642428Y2401239D01*
X5551677Y2401239D01*
X4999989Y1849551D01*
X9653981Y685139D02*
G01*
X9653981Y480999D01*
X10626979Y2318994D02*
G01*
X10350500Y2042515D01*
X10350500Y1415922D01*
X10039375Y1104798D01*
X9761194Y1104798D01*
X9653981Y997584D01*
X9653981Y685139D01*
X9653981Y685139D02*
G01*
X9325254Y685139D01*
X9145981Y505866D01*
X9145981Y480999D01*
X14148181Y-6616700D02*
G01*
X12687300Y-6616700D01*
X11645900Y-6616700D02*
G01*
X12687300Y-6616700D01*
X8623300Y-6616700D02*
G01*
X10147300Y-6616700D01*
X6172200Y-6616700D02*
G01*
X7148195Y-6616700D01*
X6074663Y-6616700D02*
G01*
X6172200Y-6616700D01*
X6074663Y-6616700D02*
G01*
X5977127Y-6616700D01*
X4648200Y-6616700D02*
G01*
X4843272Y-6616700D01*
X4843272Y-6616700D02*
G01*
X4889804Y-6663232D01*
X5930595Y-6663232D01*
X5977127Y-6616700D01*
X9018981Y-4245990D02*
G01*
X8994571Y-4245990D01*
X7390231Y-5850331D01*
X7390231Y-5878220D01*
X7070267Y-6198184D01*
X5703874Y-6198184D01*
X5675071Y-6226987D01*
X9018981Y-4753990D02*
G01*
X8996629Y-4753990D01*
X8428100Y-5322519D01*
X8428100Y-6013780D01*
X8214893Y-6226987D01*
X8175066Y-6226987D01*
X10245979Y-699998D02*
G01*
X10070338Y-875639D01*
X9263405Y-875639D01*
X9174581Y-786815D01*
X9174581Y-668832D01*
X8891981Y-386232D01*
X8891981Y-281000D01*
X8427008Y65989D02*
G01*
X7702397Y-658622D01*
X7702397Y-2653944D01*
X8506155Y-3457702D01*
X9063050Y-3457702D01*
X9214180Y-3608832D01*
X9214180Y-3968445D01*
X9745725Y-4499990D01*
X9780981Y-4499990D01*
X9399981Y-281000D02*
G01*
X9399981Y-260832D01*
X9073159Y65989D01*
X8427008Y65989D01*
X8099780Y1899996D02*
G01*
X8099780Y393217D01*
X8427008Y65989D01*
X8099780Y1899996D02*
G01*
X8594496Y1899996D01*
X8980982Y2286482D01*
X8980982Y2318994D01*
X6799986Y1899996D02*
G01*
X8099780Y1899996D01*
X11345976Y5000472D02*
G01*
X10200462Y5000472D01*
X9880981Y4680991D01*
X6845985Y5000472D02*
G01*
X6845985Y5056606D01*
X7014082Y5224703D01*
X8831402Y5224703D01*
X9375114Y4680991D01*
X9880981Y4680991D01*
X8980982Y2318994D02*
G01*
X9156090Y2494102D01*
X10705871Y2494102D01*
X10880979Y2318994D01*
X8849995Y-699998D02*
G01*
X8849995Y-895070D01*
X8445982Y-1502994D02*
G01*
X8445982Y-1299082D01*
X8849995Y-895070D01*
X7999984Y-699998D02*
G01*
X7999984Y-895070D01*
X7999984Y-895070D02*
G01*
X7848549Y-1046505D01*
X7848549Y-1696720D01*
X8274634Y-2122805D01*
X8730792Y-2122805D01*
X8926982Y-2318994D01*
X9191980Y-1502994D02*
G01*
X9191980Y-1313942D01*
X10753979Y-699998D02*
G01*
X10273893Y-1180084D01*
X9325838Y-1180084D01*
X9191980Y-1313942D01*
X9991979Y-2802991D02*
G01*
X9410979Y-2802991D01*
X8926982Y-2318994D01*
X13899972Y1849551D02*
G01*
X12493447Y3256076D01*
X10802061Y3256076D01*
X10626979Y3080994D01*
X8218982Y2342438D02*
G01*
X8731478Y2854934D01*
X9034246Y2854934D01*
X9204909Y3025597D01*
X9204909Y3050006D01*
X8218982Y2318994D02*
G01*
X8218982Y2342438D01*
X4999989Y2350439D02*
G01*
X5201589Y2552039D01*
X8009381Y2552039D01*
X8218982Y2342438D01*
X9399981Y3050006D02*
G01*
X9204909Y3050006D01*
X9399981Y2199995D02*
G01*
X9595053Y2199995D01*
X9690100Y2197988D02*
G01*
X9597059Y2197988D01*
X9595053Y2199995D01*
X8637981Y-281000D02*
G01*
X8637981Y-734440D01*
X8002803Y-1369618D01*
X8002803Y-1651863D01*
X8053959Y-1703019D01*
X10534878Y-1703019D01*
X10699978Y-1537919D01*
X10699978Y-1502994D01*
X8299983Y1299997D02*
G01*
X8299983Y1104925D01*
X8637981Y480999D02*
G01*
X8637981Y913231D01*
X8446287Y1104925D01*
X8299983Y1104925D01*
X11854002Y4999481D02*
G01*
X11854002Y4774412D01*
X11854002Y4774412D02*
G01*
X11829592Y4750003D01*
X10399979Y4750003D01*
X9149994Y1299997D02*
G01*
X9899980Y1299997D01*
X6172200Y-5766689D02*
G01*
X5977127Y-5766689D01*
X5124907Y-6226987D02*
G01*
X5091938Y-6226987D01*
X4921072Y-6056122D01*
X4921072Y-5890361D01*
X5122087Y-5689346D01*
X5899784Y-5689346D01*
X5977127Y-5766689D01*
X8623300Y-5766689D02*
G01*
X8818372Y-5766689D01*
X7624902Y-6226987D02*
G01*
X7624902Y-6335547D01*
X8102803Y-6813448D01*
X10286568Y-6813448D01*
X10346842Y-6753174D01*
X10346842Y-6467856D01*
X10300487Y-6421501D01*
X9473184Y-6421501D01*
X8818372Y-5766689D01*
X11175060Y-5972987D02*
G01*
X11381359Y-5766689D01*
X11645900Y-5766689D01*
X13675055Y-5972987D02*
G01*
X13881354Y-5766689D01*
X14148181Y-5766689D01*
X7100011Y4999481D02*
G01*
X7100011Y4951882D01*
X6914134Y4766005D01*
X5083530Y4766005D01*
X4999989Y4849545D01*
X11600002Y4999481D02*
G01*
X11600002Y5124983D01*
X11825452Y5350433D01*
X13899972Y5350433D01*
X10372979Y2318994D02*
G01*
X10372979Y2263317D01*
X10096500Y1986838D01*
X10096500Y1701800D01*
X9149994Y1699996D02*
G01*
X9345066Y1699996D01*
X10096500Y1701800D02*
G01*
X9346869Y1701800D01*
X9345066Y1699996D01*
X10161981Y-281000D02*
G01*
X10161981Y-269240D01*
X9978567Y-85826D01*
X9653752Y-85826D01*
X9344406Y223519D01*
X8621318Y223519D01*
X8299983Y544855D01*
X8299983Y899998D01*
X9345980Y-699998D02*
G01*
X9520123Y-525856D01*
X9937267Y-525856D01*
X10161981Y-301142D01*
X10161981Y-281000D01*
X8599982Y4750003D02*
G01*
X8599982Y4554931D01*
X9880981Y3918991D02*
G01*
X9696907Y3734917D01*
X9044203Y3734917D01*
X8877249Y3901871D01*
X8877249Y4277664D01*
X8599982Y4554931D01*
X8599982Y4750003D02*
G01*
X8404910Y4750003D01*
X7353985Y4999481D02*
G01*
X8155431Y4999481D01*
X8404910Y4750003D01*
X10749991Y1299997D02*
G01*
X10749991Y1495069D01*
X9880981Y4426991D02*
G01*
X9904425Y4426991D01*
X10067899Y4263517D01*
X10067899Y3270580D01*
X9948798Y3151479D01*
X9948798Y3010509D01*
X10048493Y2910814D01*
X10543209Y2910814D01*
X11065179Y2388844D01*
X11065179Y1810257D01*
X10749991Y1495069D01*
X10161981Y480999D02*
G01*
X10161981Y676071D01*
X10749991Y1299997D02*
G01*
X10749991Y1104925D01*
X10161981Y676071D02*
G01*
X10590834Y1104925D01*
X10749991Y1104925D01*
D11*
G01*
X10624896Y-6226987D03*
D12*
G01*
X10749991Y1299997D03*
D11*
G01*
X5675071Y-5972987D03*
G01*
X5124907Y-5972987D03*
G01*
X5675071Y-6226987D03*
G01*
X5124907Y-6226987D03*
G01*
X8175066Y-5972987D03*
G01*
X7624902Y-5972987D03*
G01*
X8175066Y-6226987D03*
G01*
X7624902Y-6226987D03*
G01*
X11175060Y-6226987D03*
G01*
X10624896Y-5972987D03*
G01*
X11175060Y-5972987D03*
G01*
X13124891Y-6226987D03*
G01*
X13675055Y-6226987D03*
G01*
X13124891Y-5972987D03*
G01*
X13675055Y-5972987D03*
D12*
G01*
X9899980Y1299997D03*
G01*
X8599982Y3899992D03*
G01*
X8599982Y4750003D03*
G01*
X10399979Y3899992D03*
G01*
X10399979Y4750003D03*
G01*
X8299983Y1299997D03*
G01*
X9149994Y1299997D03*
G01*
X8299983Y899998D03*
G01*
X9149994Y899998D03*
G01*
X9899980Y899998D03*
G01*
X10749991Y899998D03*
G01*
X9399981Y2199995D03*
G01*
X9399981Y3050006D03*
G01*
X9690100Y3048000D03*
G01*
X9690100Y2197988D03*
G01*
X7999984Y-699998D03*
G01*
X8849995Y-699998D03*
D11*
G01*
X13899972Y1849551D03*
G01*
X13899972Y2350439D03*
G01*
X4999989Y2350439D03*
G01*
X4999989Y1849551D03*
D13*
G01*
X8418982Y-3080994D03*
D14*
G01*
X8672982Y-3080994D03*
G01*
X8926982Y-3080994D03*
G01*
X9180982Y-3080994D03*
G01*
X8418982Y-2318994D03*
G01*
X8672982Y-2318994D03*
G01*
X8926982Y-2318994D03*
G01*
X9180982Y-2318994D03*
D12*
G01*
X8299983Y1699996D03*
G01*
X9149994Y1699996D03*
D15*
G01*
X9880981Y3918991D03*
G01*
X9880981Y4172991D03*
G01*
X9880981Y4426991D03*
G01*
X9880981Y4680991D03*
G01*
X9118981Y3918991D03*
G01*
X9118981Y4172991D03*
G01*
X9118981Y4426991D03*
G01*
X9118981Y4680991D03*
D16*
G01*
X8637981Y-281000D03*
G01*
X8891981Y-281000D03*
G01*
X9145981Y-281000D03*
G01*
X9399981Y-281000D03*
G01*
X9653981Y-281000D03*
G01*
X9907981Y-281000D03*
G01*
X10161981Y-281000D03*
G01*
X8637981Y480999D03*
G01*
X8891981Y480999D03*
G01*
X9145981Y480999D03*
G01*
X9399981Y480999D03*
G01*
X9653981Y480999D03*
G01*
X9907981Y480999D03*
D17*
G01*
X10161981Y480999D03*
D11*
G01*
X13899972Y4849545D03*
G01*
X13899972Y5350433D03*
G01*
X4999989Y5350433D03*
G01*
X4999989Y4849545D03*
D18*
G01*
X11600002Y4999481D03*
G01*
X11345976Y5000472D03*
D19*
G01*
X11854002Y4999481D03*
D18*
G01*
X7100011Y4999481D03*
G01*
X6845985Y5000472D03*
D19*
G01*
X7353985Y4999481D03*
D13*
G01*
X10118979Y2318994D03*
D14*
G01*
X10372979Y2318994D03*
G01*
X10626979Y2318994D03*
G01*
X10880979Y2318994D03*
G01*
X10118979Y3080994D03*
G01*
X10372979Y3080994D03*
G01*
X10626979Y3080994D03*
G01*
X10880979Y3080994D03*
D20*
G01*
X8218982Y2318994D03*
G01*
X8472982Y2318994D03*
G01*
X8726982Y2318994D03*
G01*
X8980982Y2318994D03*
G01*
X8218982Y3080994D03*
G01*
X8472982Y3080994D03*
G01*
X8726982Y3080994D03*
G01*
X8980982Y3080994D03*
D21*
G01*
X10753979Y-699998D03*
G01*
X10245979Y-699998D03*
G01*
X9853980Y-699998D03*
G01*
X9345980Y-699998D03*
G01*
X10096500Y1701800D03*
G01*
X10604500Y1701800D03*
D22*
G01*
X6799986Y-5100015D03*
G01*
X6799986Y1899996D03*
G01*
X12099975Y1899996D03*
G01*
X12099975Y-5100015D03*
D23*
G01*
X8191982Y-1502994D03*
D24*
G01*
X8445982Y-1502994D03*
G01*
X8699982Y-1502994D03*
D23*
G01*
X9191980Y-1502994D03*
D24*
G01*
X9445980Y-1502994D03*
G01*
X9699980Y-1502994D03*
D23*
G01*
X10191978Y-1502994D03*
D24*
G01*
X10445978Y-1502994D03*
G01*
X10699978Y-1502994D03*
D23*
G01*
X9991979Y-2802991D03*
D24*
G01*
X10245979Y-2802991D03*
G01*
X10499979Y-2802991D03*
D12*
G01*
X12687300Y-6616700D03*
G01*
X12687300Y-5766689D03*
G01*
X14148181Y-5766689D03*
G01*
X14148181Y-6616700D03*
G01*
X11645900Y-5766689D03*
G01*
X11645900Y-6616700D03*
G01*
X10147300Y-6616700D03*
G01*
X10147300Y-5766689D03*
G01*
X8623300Y-5766689D03*
G01*
X8623300Y-6616700D03*
G01*
X7148195Y-6616700D03*
G01*
X7148195Y-5766689D03*
G01*
X6172200Y-5766689D03*
G01*
X6172200Y-6616700D03*
G01*
X4648200Y-6616700D03*
G01*
X4648200Y-5766689D03*
D25*
G01*
X9780981Y-5261990D03*
G01*
X9780981Y-5007990D03*
G01*
X9780981Y-4753990D03*
G01*
X9780981Y-4499990D03*
G01*
X9780981Y-4245990D03*
G01*
X9780981Y-3991990D03*
G01*
X9780981Y-3737990D03*
G01*
X9018981Y-5261990D03*
G01*
X9018981Y-5007990D03*
G01*
X9018981Y-4753990D03*
G01*
X9018981Y-4499990D03*
G01*
X9018981Y-4245990D03*
G01*
X9018981Y-3991990D03*
D26*
G01*
X9018981Y-3737990D03*
D21*
G01*
X8197189Y-3611549D03*
G01*
X10835716Y-3971544D03*
G01*
X9896068Y3594709D03*
M02*
