G04 Layer: BottomPasteMaskLayer*
G04 EasyEDA v6.5.20, 2022-10-24 14:32:38*
G04 8d121422a4ac45e995a65f3fcbcb15b0,c6a1bf633b9a4ba285e4988a7d74c357,10*
G04 Gerber Generator version 0.2*
G04 Scale: 100 percent, Rotated: No, Reflected: No *
G04 Dimensions in millimeters *
G04 leading zeros omitted , absolute positions ,4 integer and 5 decimal *
%FSLAX45Y45*%
%MOMM*%

%ADD10C,0.0001*%

%LPD*%
G36*
X8639505Y-4255008D02*
G01*
X8634476Y-4259986D01*
X8634476Y-4284218D01*
X8671458Y-4284218D01*
X8671458Y-4317187D01*
X8634476Y-4317187D01*
X8634476Y-4339996D01*
X8639505Y-4344974D01*
X8719464Y-4344974D01*
X8724493Y-4339996D01*
X8724493Y-4259986D01*
X8719464Y-4255008D01*
G37*
G36*
X8480501Y-4255008D02*
G01*
X8475472Y-4259986D01*
X8475472Y-4339996D01*
X8480501Y-4344974D01*
X8559495Y-4344974D01*
X8564473Y-4339996D01*
X8564473Y-4317187D01*
X8526475Y-4317187D01*
X8526475Y-4284218D01*
X8564473Y-4284218D01*
X8564473Y-4259986D01*
X8559495Y-4255008D01*
G37*
G36*
X8480501Y-3754983D02*
G01*
X8475472Y-3760012D01*
X8475472Y-3839972D01*
X8480501Y-3845001D01*
X8560460Y-3845001D01*
X8565489Y-3839972D01*
X8565489Y-3815791D01*
X8528456Y-3815791D01*
X8528456Y-3782771D01*
X8565489Y-3782771D01*
X8565489Y-3760012D01*
X8560460Y-3754983D01*
G37*
G36*
X8640470Y-3754983D02*
G01*
X8635492Y-3760012D01*
X8635492Y-3782771D01*
X8673490Y-3782771D01*
X8673490Y-3815791D01*
X8635492Y-3815791D01*
X8635492Y-3839972D01*
X8640470Y-3845001D01*
X8719464Y-3845001D01*
X8724493Y-3839972D01*
X8724493Y-3760012D01*
X8719464Y-3754983D01*
G37*
G36*
X8480501Y-5255006D02*
G01*
X8475472Y-5259984D01*
X8475472Y-5339994D01*
X8480501Y-5344972D01*
X8560460Y-5344972D01*
X8565489Y-5339994D01*
X8565489Y-5315813D01*
X8528456Y-5315813D01*
X8528456Y-5282793D01*
X8565489Y-5282793D01*
X8565489Y-5259984D01*
X8560460Y-5255006D01*
G37*
G36*
X8640470Y-5255006D02*
G01*
X8635492Y-5259984D01*
X8635492Y-5282793D01*
X8673490Y-5282793D01*
X8673490Y-5315813D01*
X8635492Y-5315813D01*
X8635492Y-5339994D01*
X8640470Y-5344972D01*
X8719464Y-5344972D01*
X8724493Y-5339994D01*
X8724493Y-5259984D01*
X8719464Y-5255006D01*
G37*
G36*
X8639505Y-4754981D02*
G01*
X8634476Y-4760010D01*
X8634476Y-4784191D01*
X8671458Y-4784191D01*
X8671458Y-4817211D01*
X8634476Y-4817211D01*
X8634476Y-4839970D01*
X8639505Y-4844999D01*
X8719464Y-4844999D01*
X8724493Y-4839970D01*
X8724493Y-4760010D01*
X8719464Y-4754981D01*
G37*
G36*
X8480501Y-4754981D02*
G01*
X8475472Y-4760010D01*
X8475472Y-4839970D01*
X8480501Y-4844999D01*
X8559495Y-4844999D01*
X8564473Y-4839970D01*
X8564473Y-4817211D01*
X8526475Y-4817211D01*
X8526475Y-4784191D01*
X8564473Y-4784191D01*
X8564473Y-4760010D01*
X8559495Y-4754981D01*
G37*
G36*
X10680496Y-4754981D02*
G01*
X10675467Y-4760010D01*
X10675467Y-4839970D01*
X10680496Y-4844999D01*
X10760456Y-4844999D01*
X10765485Y-4839970D01*
X10765485Y-4815789D01*
X10728502Y-4815789D01*
X10728502Y-4782769D01*
X10765485Y-4782769D01*
X10765485Y-4760010D01*
X10760456Y-4754981D01*
G37*
G36*
X10840466Y-4754981D02*
G01*
X10835487Y-4760010D01*
X10835487Y-4782769D01*
X10873486Y-4782769D01*
X10873486Y-4815789D01*
X10835487Y-4815789D01*
X10835487Y-4839970D01*
X10840466Y-4844999D01*
X10919460Y-4844999D01*
X10924489Y-4839970D01*
X10924489Y-4760010D01*
X10919460Y-4754981D01*
G37*
G36*
X10339476Y-4754981D02*
G01*
X10334498Y-4760010D01*
X10334498Y-4784191D01*
X10371480Y-4784191D01*
X10371480Y-4817211D01*
X10334498Y-4817211D01*
X10334498Y-4839970D01*
X10339476Y-4844999D01*
X10419486Y-4844999D01*
X10424464Y-4839970D01*
X10424464Y-4760010D01*
X10419486Y-4754981D01*
G37*
G36*
X10180472Y-4754981D02*
G01*
X10175494Y-4760010D01*
X10175494Y-4839970D01*
X10180472Y-4844999D01*
X10259466Y-4844999D01*
X10264495Y-4839970D01*
X10264495Y-4817211D01*
X10226497Y-4817211D01*
X10226497Y-4784191D01*
X10264495Y-4784191D01*
X10264495Y-4760010D01*
X10259466Y-4754981D01*
G37*
G36*
X10680496Y-5255006D02*
G01*
X10675467Y-5259984D01*
X10675467Y-5339994D01*
X10680496Y-5344972D01*
X10760456Y-5344972D01*
X10765485Y-5339994D01*
X10765485Y-5315813D01*
X10728502Y-5315813D01*
X10728502Y-5282793D01*
X10765485Y-5282793D01*
X10765485Y-5259984D01*
X10760456Y-5255006D01*
G37*
G36*
X10840466Y-5255006D02*
G01*
X10835487Y-5259984D01*
X10835487Y-5282793D01*
X10873486Y-5282793D01*
X10873486Y-5315813D01*
X10835487Y-5315813D01*
X10835487Y-5339994D01*
X10840466Y-5344972D01*
X10919460Y-5344972D01*
X10924489Y-5339994D01*
X10924489Y-5259984D01*
X10919460Y-5255006D01*
G37*
G36*
X10180472Y-3754983D02*
G01*
X10175494Y-3760012D01*
X10175494Y-3839972D01*
X10180472Y-3845001D01*
X10260482Y-3845001D01*
X10265460Y-3839972D01*
X10265460Y-3815791D01*
X10228478Y-3815791D01*
X10228478Y-3782771D01*
X10265460Y-3782771D01*
X10265460Y-3760012D01*
X10260482Y-3754983D01*
G37*
G36*
X10340492Y-3754983D02*
G01*
X10335463Y-3760012D01*
X10335463Y-3782771D01*
X10373461Y-3782771D01*
X10373461Y-3815791D01*
X10335463Y-3815791D01*
X10335463Y-3839972D01*
X10340492Y-3845001D01*
X10419486Y-3845001D01*
X10424464Y-3839972D01*
X10424464Y-3760012D01*
X10419486Y-3754983D01*
G37*
G36*
X10839500Y-4255008D02*
G01*
X10834471Y-4259986D01*
X10834471Y-4284218D01*
X10871454Y-4284218D01*
X10871454Y-4317187D01*
X10834471Y-4317187D01*
X10834471Y-4339996D01*
X10839500Y-4344974D01*
X10919460Y-4344974D01*
X10924489Y-4339996D01*
X10924489Y-4259986D01*
X10919460Y-4255008D01*
G37*
G36*
X10680496Y-4255008D02*
G01*
X10675467Y-4259986D01*
X10675467Y-4339996D01*
X10680496Y-4344974D01*
X10759490Y-4344974D01*
X10764469Y-4339996D01*
X10764469Y-4317187D01*
X10726470Y-4317187D01*
X10726470Y-4284218D01*
X10764469Y-4284218D01*
X10764469Y-4259986D01*
X10759490Y-4255008D01*
G37*
G36*
X10280497Y-4255008D02*
G01*
X10275468Y-4259986D01*
X10275468Y-4339996D01*
X10280497Y-4344974D01*
X10360456Y-4344974D01*
X10365486Y-4339996D01*
X10365486Y-4315764D01*
X10328452Y-4315764D01*
X10328452Y-4282795D01*
X10365486Y-4282795D01*
X10365486Y-4259986D01*
X10360456Y-4255008D01*
G37*
G36*
X10440466Y-4255008D02*
G01*
X10435488Y-4259986D01*
X10435488Y-4282795D01*
X10473486Y-4282795D01*
X10473486Y-4315764D01*
X10435488Y-4315764D01*
X10435488Y-4339996D01*
X10440466Y-4344974D01*
X10519460Y-4344974D01*
X10524490Y-4339996D01*
X10524490Y-4259986D01*
X10519460Y-4255008D01*
G37*
G36*
X10839500Y-3754983D02*
G01*
X10834471Y-3760012D01*
X10834471Y-3784193D01*
X10871454Y-3784193D01*
X10871454Y-3817213D01*
X10834471Y-3817213D01*
X10834471Y-3839972D01*
X10839500Y-3845001D01*
X10919460Y-3845001D01*
X10924489Y-3839972D01*
X10924489Y-3760012D01*
X10919460Y-3754983D01*
G37*
G36*
X10680496Y-3754983D02*
G01*
X10675467Y-3760012D01*
X10675467Y-3839972D01*
X10680496Y-3845001D01*
X10759490Y-3845001D01*
X10764469Y-3839972D01*
X10764469Y-3817213D01*
X10726470Y-3817213D01*
X10726470Y-3784193D01*
X10764469Y-3784193D01*
X10764469Y-3760012D01*
X10759490Y-3754983D01*
G37*
G36*
X10180472Y-5255006D02*
G01*
X10175494Y-5259984D01*
X10175494Y-5339994D01*
X10180472Y-5344972D01*
X10260482Y-5344972D01*
X10265460Y-5339994D01*
X10265460Y-5315813D01*
X10228478Y-5315813D01*
X10228478Y-5282793D01*
X10265460Y-5282793D01*
X10265460Y-5259984D01*
X10260482Y-5255006D01*
G37*
G36*
X10340492Y-5255006D02*
G01*
X10335463Y-5259984D01*
X10335463Y-5282793D01*
X10373461Y-5282793D01*
X10373461Y-5315813D01*
X10335463Y-5315813D01*
X10335463Y-5339994D01*
X10340492Y-5344972D01*
X10419486Y-5344972D01*
X10424464Y-5339994D01*
X10424464Y-5259984D01*
X10419486Y-5255006D01*
G37*
G36*
X8139480Y-5255006D02*
G01*
X8134502Y-5259984D01*
X8134502Y-5284216D01*
X8171484Y-5284216D01*
X8171484Y-5317185D01*
X8134502Y-5317185D01*
X8134502Y-5339994D01*
X8139480Y-5344972D01*
X8219490Y-5344972D01*
X8224469Y-5339994D01*
X8224469Y-5259984D01*
X8219490Y-5255006D01*
G37*
G36*
X7980476Y-5255006D02*
G01*
X7975498Y-5259984D01*
X7975498Y-5339994D01*
X7980476Y-5344972D01*
X8059470Y-5344972D01*
X8064500Y-5339994D01*
X8064500Y-5317185D01*
X8026501Y-5317185D01*
X8026501Y-5284216D01*
X8064500Y-5284216D01*
X8064500Y-5259984D01*
X8059470Y-5255006D01*
G37*
G36*
X7980476Y-4754981D02*
G01*
X7975498Y-4760010D01*
X7975498Y-4839970D01*
X7980476Y-4844999D01*
X8060486Y-4844999D01*
X8065465Y-4839970D01*
X8065465Y-4815789D01*
X8028482Y-4815789D01*
X8028482Y-4782769D01*
X8065465Y-4782769D01*
X8065465Y-4760010D01*
X8060486Y-4754981D01*
G37*
G36*
X8140496Y-4754981D02*
G01*
X8135467Y-4760010D01*
X8135467Y-4782769D01*
X8173466Y-4782769D01*
X8173466Y-4815789D01*
X8135467Y-4815789D01*
X8135467Y-4839970D01*
X8140496Y-4844999D01*
X8219490Y-4844999D01*
X8224469Y-4839970D01*
X8224469Y-4760010D01*
X8219490Y-4754981D01*
G37*
G36*
X8139480Y-4255008D02*
G01*
X8134502Y-4259986D01*
X8134502Y-4284218D01*
X8171484Y-4284218D01*
X8171484Y-4317187D01*
X8134502Y-4317187D01*
X8134502Y-4339996D01*
X8139480Y-4344974D01*
X8219490Y-4344974D01*
X8224469Y-4339996D01*
X8224469Y-4259986D01*
X8219490Y-4255008D01*
G37*
G36*
X7980476Y-4255008D02*
G01*
X7975498Y-4259986D01*
X7975498Y-4339996D01*
X7980476Y-4344974D01*
X8059470Y-4344974D01*
X8064500Y-4339996D01*
X8064500Y-4317187D01*
X8026501Y-4317187D01*
X8026501Y-4284218D01*
X8064500Y-4284218D01*
X8064500Y-4259986D01*
X8059470Y-4255008D01*
G37*
G36*
X7980476Y-3754983D02*
G01*
X7975498Y-3760012D01*
X7975498Y-3839972D01*
X7980476Y-3845001D01*
X8060486Y-3845001D01*
X8065465Y-3839972D01*
X8065465Y-3815791D01*
X8028482Y-3815791D01*
X8028482Y-3782771D01*
X8065465Y-3782771D01*
X8065465Y-3760012D01*
X8060486Y-3754983D01*
G37*
G36*
X8140496Y-3754983D02*
G01*
X8135467Y-3760012D01*
X8135467Y-3782771D01*
X8173466Y-3782771D01*
X8173466Y-3815791D01*
X8135467Y-3815791D01*
X8135467Y-3839972D01*
X8140496Y-3845001D01*
X8219490Y-3845001D01*
X8224469Y-3839972D01*
X8224469Y-3760012D01*
X8219490Y-3754983D01*
G37*
M02*
